<?xml version="1.0" encoding="utf-8" standalone="no"?>
<!DOCTYPE svg PUBLIC "-//W3C//DTD SVG 1.1//EN"
  "http://www.w3.org/Graphics/SVG/1.1/DTD/svg11.dtd">
<!-- Created with matplotlib (https://matplotlib.org/) -->
<svg height="345.6pt" version="1.1" viewBox="0 0 460.8 345.6" width="460.8pt" xmlns="http://www.w3.org/2000/svg" xmlns:xlink="http://www.w3.org/1999/xlink">
 <metadata>
  <rdf:RDF xmlns:cc="http://creativecommons.org/ns#" xmlns:dc="http://purl.org/dc/elements/1.1/" xmlns:rdf="http://www.w3.org/1999/02/22-rdf-syntax-ns#">
   <cc:Work>
    <dc:type rdf:resource="http://purl.org/dc/dcmitype/StillImage"/>
    <dc:date>2021-01-16T19:10:16.214342</dc:date>
    <dc:format>image/svg+xml</dc:format>
    <dc:creator>
     <cc:Agent>
      <dc:title>Matplotlib v3.3.3, https://matplotlib.org/</dc:title>
     </cc:Agent>
    </dc:creator>
   </cc:Work>
  </rdf:RDF>
 </metadata>
 <defs>
  <style type="text/css">*{stroke-linecap:butt;stroke-linejoin:round;}</style>
 </defs>
 <g id="figure_1">
  <g id="patch_1">
   <path d="M 0 345.6 
L 460.8 345.6 
L 460.8 0 
L 0 0 
z
" style="fill:#ffffff;"/>
  </g>
  <g id="axes_1">
   <g id="patch_2">
    <path d="M 57.6 276.48 
L 414.72 276.48 
L 414.72 41.472 
L 57.6 41.472 
z
" style="fill:#ffffff;"/>
   </g>
   <g id="PathCollection_1">
    <defs>
     <path d="M 0 -3 
L -3 3 
L 3 3 
z
" id="m22b3cf0c4d" style="stroke:#008000;"/>
    </defs>
    <g clip-path="url(#pb5f6937ae0)">
     <use style="fill:#008000;stroke:#008000;" x="76.912698" xlink:href="#m22b3cf0c4d" y="232.167883"/>
     <use style="fill:#008000;stroke:#008000;" x="77.528692" xlink:href="#m22b3cf0c4d" y="230.50964"/>
     <use style="fill:#008000;stroke:#008000;" x="78.144686" xlink:href="#m22b3cf0c4d" y="230.230833"/>
     <use style="fill:#008000;stroke:#008000;" x="81.84065" xlink:href="#m22b3cf0c4d" y="229.30333"/>
     <use style="fill:#008000;stroke:#008000;" x="88.000591" xlink:href="#m22b3cf0c4d" y="227.722216"/>
     <use style="fill:#008000;stroke:#008000;" x="90.464567" xlink:href="#m22b3cf0c4d" y="227.519819"/>
     <use style="fill:#008000;stroke:#008000;" x="117.568307" xlink:href="#m22b3cf0c4d" y="220.961587"/>
     <use style="fill:#008000;stroke:#008000;" x="118.184301" xlink:href="#m22b3cf0c4d" y="220.935383"/>
     <use style="fill:#008000;stroke:#008000;" x="120.032283" xlink:href="#m22b3cf0c4d" y="220.790362"/>
     <use style="fill:#008000;stroke:#008000;" x="203.21715" xlink:href="#m22b3cf0c4d" y="187.379907"/>
     <use style="fill:#008000;stroke:#008000;" x="259.246945" xlink:href="#m22b3cf0c4d" y="201.426161"/>
     <use style="fill:#008000;stroke:#008000;" x="259.862939" xlink:href="#m22b3cf0c4d" y="201.361045"/>
     <use style="fill:#008000;stroke:#008000;" x="260.478933" xlink:href="#m22b3cf0c4d" y="201.27984"/>
    </g>
   </g>
   <g id="PathCollection_2">
    <defs>
     <path d="M -0 3 
L 3 -3 
L -3 -3 
z
" id="m268cd702d5" style="stroke:#ff0000;"/>
    </defs>
    <g clip-path="url(#pb5f6937ae0)">
     <use style="fill:#ff0000;stroke:#ff0000;" x="78.76068" xlink:href="#m268cd702d5" y="215.244714"/>
     <use style="fill:#ff0000;stroke:#ff0000;" x="86.768603" xlink:href="#m268cd702d5" y="213.196271"/>
     <use style="fill:#ff0000;stroke:#ff0000;" x="108.328396" xlink:href="#m268cd702d5" y="202.928766"/>
     <use style="fill:#ff0000;stroke:#ff0000;" x="108.94439" xlink:href="#m268cd702d5" y="203.269736"/>
     <use style="fill:#ff0000;stroke:#ff0000;" x="109.560384" xlink:href="#m268cd702d5" y="203.588555"/>
     <use style="fill:#ff0000;stroke:#ff0000;" x="200.13718" xlink:href="#m268cd702d5" y="169.715093"/>
     <use style="fill:#ff0000;stroke:#ff0000;" x="203.833144" xlink:href="#m268cd702d5" y="169.610958"/>
     <use style="fill:#ff0000;stroke:#ff0000;" x="204.449138" xlink:href="#m268cd702d5" y="169.661573"/>
     <use style="fill:#ff0000;stroke:#ff0000;" x="206.271454" xlink:href="#m268cd702d5" y="169.858284"/>
    </g>
   </g>
   <g id="matplotlib.axis_1">
    <g id="xtick_1">
     <g id="line2d_1">
      <path clip-path="url(#pb5f6937ae0)" d="M 89.232579 276.48 
L 89.232579 41.472 
" style="fill:none;stroke:#b0b0b0;stroke-linecap:square;stroke-width:0.8;"/>
     </g>
     <g id="line2d_2">
      <defs>
       <path d="M 0 0 
L 0 3.5 
" id="m18f3ebbc73" style="stroke:#000000;stroke-width:0.8;"/>
      </defs>
      <g>
       <use style="stroke:#000000;stroke-width:0.8;" x="89.232579" xlink:href="#m18f3ebbc73" y="276.48"/>
      </g>
     </g>
     <g id="text_1">
      <!-- 2019-09 -->
      <g transform="translate(52.007758 310.951846)rotate(-30)scale(0.1 -0.1)">
       <defs>
        <path d="M 19.1875 8.296875 
L 53.609375 8.296875 
L 53.609375 0 
L 7.328125 0 
L 7.328125 8.296875 
Q 12.9375 14.109375 22.625 23.890625 
Q 32.328125 33.6875 34.8125 36.53125 
Q 39.546875 41.84375 41.421875 45.53125 
Q 43.3125 49.21875 43.3125 52.78125 
Q 43.3125 58.59375 39.234375 62.25 
Q 35.15625 65.921875 28.609375 65.921875 
Q 23.96875 65.921875 18.8125 64.3125 
Q 13.671875 62.703125 7.8125 59.421875 
L 7.8125 69.390625 
Q 13.765625 71.78125 18.9375 73 
Q 24.125 74.21875 28.421875 74.21875 
Q 39.75 74.21875 46.484375 68.546875 
Q 53.21875 62.890625 53.21875 53.421875 
Q 53.21875 48.921875 51.53125 44.890625 
Q 49.859375 40.875 45.40625 35.40625 
Q 44.1875 33.984375 37.640625 27.21875 
Q 31.109375 20.453125 19.1875 8.296875 
z
" id="DejaVuSans-50"/>
        <path d="M 31.78125 66.40625 
Q 24.171875 66.40625 20.328125 58.90625 
Q 16.5 51.421875 16.5 36.375 
Q 16.5 21.390625 20.328125 13.890625 
Q 24.171875 6.390625 31.78125 6.390625 
Q 39.453125 6.390625 43.28125 13.890625 
Q 47.125 21.390625 47.125 36.375 
Q 47.125 51.421875 43.28125 58.90625 
Q 39.453125 66.40625 31.78125 66.40625 
z
M 31.78125 74.21875 
Q 44.046875 74.21875 50.515625 64.515625 
Q 56.984375 54.828125 56.984375 36.375 
Q 56.984375 17.96875 50.515625 8.265625 
Q 44.046875 -1.421875 31.78125 -1.421875 
Q 19.53125 -1.421875 13.0625 8.265625 
Q 6.59375 17.96875 6.59375 36.375 
Q 6.59375 54.828125 13.0625 64.515625 
Q 19.53125 74.21875 31.78125 74.21875 
z
" id="DejaVuSans-48"/>
        <path d="M 12.40625 8.296875 
L 28.515625 8.296875 
L 28.515625 63.921875 
L 10.984375 60.40625 
L 10.984375 69.390625 
L 28.421875 72.90625 
L 38.28125 72.90625 
L 38.28125 8.296875 
L 54.390625 8.296875 
L 54.390625 0 
L 12.40625 0 
z
" id="DejaVuSans-49"/>
        <path d="M 10.984375 1.515625 
L 10.984375 10.5 
Q 14.703125 8.734375 18.5 7.8125 
Q 22.3125 6.890625 25.984375 6.890625 
Q 35.75 6.890625 40.890625 13.453125 
Q 46.046875 20.015625 46.78125 33.40625 
Q 43.953125 29.203125 39.59375 26.953125 
Q 35.25 24.703125 29.984375 24.703125 
Q 19.046875 24.703125 12.671875 31.3125 
Q 6.296875 37.9375 6.296875 49.421875 
Q 6.296875 60.640625 12.9375 67.421875 
Q 19.578125 74.21875 30.609375 74.21875 
Q 43.265625 74.21875 49.921875 64.515625 
Q 56.59375 54.828125 56.59375 36.375 
Q 56.59375 19.140625 48.40625 8.859375 
Q 40.234375 -1.421875 26.421875 -1.421875 
Q 22.703125 -1.421875 18.890625 -0.6875 
Q 15.09375 0.046875 10.984375 1.515625 
z
M 30.609375 32.421875 
Q 37.25 32.421875 41.125 36.953125 
Q 45.015625 41.5 45.015625 49.421875 
Q 45.015625 57.28125 41.125 61.84375 
Q 37.25 66.40625 30.609375 66.40625 
Q 23.96875 66.40625 20.09375 61.84375 
Q 16.21875 57.28125 16.21875 49.421875 
Q 16.21875 41.5 20.09375 36.953125 
Q 23.96875 32.421875 30.609375 32.421875 
z
" id="DejaVuSans-57"/>
        <path d="M 4.890625 31.390625 
L 31.203125 31.390625 
L 31.203125 23.390625 
L 4.890625 23.390625 
z
" id="DejaVuSans-45"/>
       </defs>
       <use xlink:href="#DejaVuSans-50"/>
       <use x="63.623047" xlink:href="#DejaVuSans-48"/>
       <use x="127.246094" xlink:href="#DejaVuSans-49"/>
       <use x="190.869141" xlink:href="#DejaVuSans-57"/>
       <use x="254.492188" xlink:href="#DejaVuSans-45"/>
       <use x="290.576172" xlink:href="#DejaVuSans-48"/>
       <use x="354.199219" xlink:href="#DejaVuSans-57"/>
      </g>
     </g>
    </g>
    <g id="xtick_2">
     <g id="line2d_3">
      <path clip-path="url(#pb5f6937ae0)" d="M 126.808218 276.48 
L 126.808218 41.472 
" style="fill:none;stroke:#b0b0b0;stroke-linecap:square;stroke-width:0.8;"/>
     </g>
     <g id="line2d_4">
      <g>
       <use style="stroke:#000000;stroke-width:0.8;" x="126.808218" xlink:href="#m18f3ebbc73" y="276.48"/>
      </g>
     </g>
     <g id="text_2">
      <!-- 2019-11 -->
      <g transform="translate(89.583397 310.951846)rotate(-30)scale(0.1 -0.1)">
       <use xlink:href="#DejaVuSans-50"/>
       <use x="63.623047" xlink:href="#DejaVuSans-48"/>
       <use x="127.246094" xlink:href="#DejaVuSans-49"/>
       <use x="190.869141" xlink:href="#DejaVuSans-57"/>
       <use x="254.492188" xlink:href="#DejaVuSans-45"/>
       <use x="290.576172" xlink:href="#DejaVuSans-49"/>
       <use x="354.199219" xlink:href="#DejaVuSans-49"/>
      </g>
     </g>
    </g>
    <g id="xtick_3">
     <g id="line2d_5">
      <path clip-path="url(#pb5f6937ae0)" d="M 164.409523 276.48 
L 164.409523 41.472 
" style="fill:none;stroke:#b0b0b0;stroke-linecap:square;stroke-width:0.8;"/>
     </g>
     <g id="line2d_6">
      <g>
       <use style="stroke:#000000;stroke-width:0.8;" x="164.409523" xlink:href="#m18f3ebbc73" y="276.48"/>
      </g>
     </g>
     <g id="text_3">
      <!-- 2020-01 -->
      <g transform="translate(127.184702 310.951846)rotate(-30)scale(0.1 -0.1)">
       <use xlink:href="#DejaVuSans-50"/>
       <use x="63.623047" xlink:href="#DejaVuSans-48"/>
       <use x="127.246094" xlink:href="#DejaVuSans-50"/>
       <use x="190.869141" xlink:href="#DejaVuSans-48"/>
       <use x="254.492188" xlink:href="#DejaVuSans-45"/>
       <use x="290.576172" xlink:href="#DejaVuSans-48"/>
       <use x="354.199219" xlink:href="#DejaVuSans-49"/>
      </g>
     </g>
    </g>
    <g id="xtick_4">
     <g id="line2d_7">
      <path clip-path="url(#pb5f6937ae0)" d="M 201.369168 276.48 
L 201.369168 41.472 
" style="fill:none;stroke:#b0b0b0;stroke-linecap:square;stroke-width:0.8;"/>
     </g>
     <g id="line2d_8">
      <g>
       <use style="stroke:#000000;stroke-width:0.8;" x="201.369168" xlink:href="#m18f3ebbc73" y="276.48"/>
      </g>
     </g>
     <g id="text_4">
      <!-- 2020-03 -->
      <g transform="translate(164.144347 310.951846)rotate(-30)scale(0.1 -0.1)">
       <defs>
        <path d="M 40.578125 39.3125 
Q 47.65625 37.796875 51.625 33 
Q 55.609375 28.21875 55.609375 21.1875 
Q 55.609375 10.40625 48.1875 4.484375 
Q 40.765625 -1.421875 27.09375 -1.421875 
Q 22.515625 -1.421875 17.65625 -0.515625 
Q 12.796875 0.390625 7.625 2.203125 
L 7.625 11.71875 
Q 11.71875 9.328125 16.59375 8.109375 
Q 21.484375 6.890625 26.8125 6.890625 
Q 36.078125 6.890625 40.9375 10.546875 
Q 45.796875 14.203125 45.796875 21.1875 
Q 45.796875 27.640625 41.28125 31.265625 
Q 36.765625 34.90625 28.71875 34.90625 
L 20.21875 34.90625 
L 20.21875 43.015625 
L 29.109375 43.015625 
Q 36.375 43.015625 40.234375 45.921875 
Q 44.09375 48.828125 44.09375 54.296875 
Q 44.09375 59.90625 40.109375 62.90625 
Q 36.140625 65.921875 28.71875 65.921875 
Q 24.65625 65.921875 20.015625 65.03125 
Q 15.375 64.15625 9.8125 62.3125 
L 9.8125 71.09375 
Q 15.4375 72.65625 20.34375 73.4375 
Q 25.25 74.21875 29.59375 74.21875 
Q 40.828125 74.21875 47.359375 69.109375 
Q 53.90625 64.015625 53.90625 55.328125 
Q 53.90625 49.265625 50.4375 45.09375 
Q 46.96875 40.921875 40.578125 39.3125 
z
" id="DejaVuSans-51"/>
       </defs>
       <use xlink:href="#DejaVuSans-50"/>
       <use x="63.623047" xlink:href="#DejaVuSans-48"/>
       <use x="127.246094" xlink:href="#DejaVuSans-50"/>
       <use x="190.869141" xlink:href="#DejaVuSans-48"/>
       <use x="254.492188" xlink:href="#DejaVuSans-45"/>
       <use x="290.576172" xlink:href="#DejaVuSans-48"/>
       <use x="354.199219" xlink:href="#DejaVuSans-51"/>
      </g>
     </g>
    </g>
    <g id="xtick_5">
     <g id="line2d_9">
      <path clip-path="url(#pb5f6937ae0)" d="M 238.91914 276.48 
L 238.91914 41.472 
" style="fill:none;stroke:#b0b0b0;stroke-linecap:square;stroke-width:0.8;"/>
     </g>
     <g id="line2d_10">
      <g>
       <use style="stroke:#000000;stroke-width:0.8;" x="238.91914" xlink:href="#m18f3ebbc73" y="276.48"/>
      </g>
     </g>
     <g id="text_5">
      <!-- 2020-05 -->
      <g transform="translate(201.694319 310.951846)rotate(-30)scale(0.1 -0.1)">
       <defs>
        <path d="M 10.796875 72.90625 
L 49.515625 72.90625 
L 49.515625 64.59375 
L 19.828125 64.59375 
L 19.828125 46.734375 
Q 21.96875 47.46875 24.109375 47.828125 
Q 26.265625 48.1875 28.421875 48.1875 
Q 40.625 48.1875 47.75 41.5 
Q 54.890625 34.8125 54.890625 23.390625 
Q 54.890625 11.625 47.5625 5.09375 
Q 40.234375 -1.421875 26.90625 -1.421875 
Q 22.3125 -1.421875 17.546875 -0.640625 
Q 12.796875 0.140625 7.71875 1.703125 
L 7.71875 11.625 
Q 12.109375 9.234375 16.796875 8.0625 
Q 21.484375 6.890625 26.703125 6.890625 
Q 35.15625 6.890625 40.078125 11.328125 
Q 45.015625 15.765625 45.015625 23.390625 
Q 45.015625 31 40.078125 35.4375 
Q 35.15625 39.890625 26.703125 39.890625 
Q 22.75 39.890625 18.8125 39.015625 
Q 14.890625 38.140625 10.796875 36.28125 
z
" id="DejaVuSans-53"/>
       </defs>
       <use xlink:href="#DejaVuSans-50"/>
       <use x="63.623047" xlink:href="#DejaVuSans-48"/>
       <use x="127.246094" xlink:href="#DejaVuSans-50"/>
       <use x="190.869141" xlink:href="#DejaVuSans-48"/>
       <use x="254.492188" xlink:href="#DejaVuSans-45"/>
       <use x="290.576172" xlink:href="#DejaVuSans-48"/>
       <use x="354.199219" xlink:href="#DejaVuSans-53"/>
      </g>
     </g>
    </g>
    <g id="xtick_6">
     <g id="line2d_11">
      <path clip-path="url(#pb5f6937ae0)" d="M 276.494779 276.48 
L 276.494779 41.472 
" style="fill:none;stroke:#b0b0b0;stroke-linecap:square;stroke-width:0.8;"/>
     </g>
     <g id="line2d_12">
      <g>
       <use style="stroke:#000000;stroke-width:0.8;" x="276.494779" xlink:href="#m18f3ebbc73" y="276.48"/>
      </g>
     </g>
     <g id="text_6">
      <!-- 2020-07 -->
      <g transform="translate(239.269958 310.951846)rotate(-30)scale(0.1 -0.1)">
       <defs>
        <path d="M 8.203125 72.90625 
L 55.078125 72.90625 
L 55.078125 68.703125 
L 28.609375 0 
L 18.3125 0 
L 43.21875 64.59375 
L 8.203125 64.59375 
z
" id="DejaVuSans-55"/>
       </defs>
       <use xlink:href="#DejaVuSans-50"/>
       <use x="63.623047" xlink:href="#DejaVuSans-48"/>
       <use x="127.246094" xlink:href="#DejaVuSans-50"/>
       <use x="190.869141" xlink:href="#DejaVuSans-48"/>
       <use x="254.492188" xlink:href="#DejaVuSans-45"/>
       <use x="290.576172" xlink:href="#DejaVuSans-48"/>
       <use x="354.199219" xlink:href="#DejaVuSans-55"/>
      </g>
     </g>
    </g>
    <g id="xtick_7">
     <g id="line2d_13">
      <path clip-path="url(#pb5f6937ae0)" d="M 314.686412 276.48 
L 314.686412 41.472 
" style="fill:none;stroke:#b0b0b0;stroke-linecap:square;stroke-width:0.8;"/>
     </g>
     <g id="line2d_14">
      <g>
       <use style="stroke:#000000;stroke-width:0.8;" x="314.686412" xlink:href="#m18f3ebbc73" y="276.48"/>
      </g>
     </g>
     <g id="text_7">
      <!-- 2020-09 -->
      <g transform="translate(277.461591 310.951846)rotate(-30)scale(0.1 -0.1)">
       <use xlink:href="#DejaVuSans-50"/>
       <use x="63.623047" xlink:href="#DejaVuSans-48"/>
       <use x="127.246094" xlink:href="#DejaVuSans-50"/>
       <use x="190.869141" xlink:href="#DejaVuSans-48"/>
       <use x="254.492188" xlink:href="#DejaVuSans-45"/>
       <use x="290.576172" xlink:href="#DejaVuSans-48"/>
       <use x="354.199219" xlink:href="#DejaVuSans-57"/>
      </g>
     </g>
    </g>
    <g id="xtick_8">
     <g id="line2d_15">
      <path clip-path="url(#pb5f6937ae0)" d="M 352.26205 276.48 
L 352.26205 41.472 
" style="fill:none;stroke:#b0b0b0;stroke-linecap:square;stroke-width:0.8;"/>
     </g>
     <g id="line2d_16">
      <g>
       <use style="stroke:#000000;stroke-width:0.8;" x="352.26205" xlink:href="#m18f3ebbc73" y="276.48"/>
      </g>
     </g>
     <g id="text_8">
      <!-- 2020-11 -->
      <g transform="translate(315.03723 310.951846)rotate(-30)scale(0.1 -0.1)">
       <use xlink:href="#DejaVuSans-50"/>
       <use x="63.623047" xlink:href="#DejaVuSans-48"/>
       <use x="127.246094" xlink:href="#DejaVuSans-50"/>
       <use x="190.869141" xlink:href="#DejaVuSans-48"/>
       <use x="254.492188" xlink:href="#DejaVuSans-45"/>
       <use x="290.576172" xlink:href="#DejaVuSans-49"/>
       <use x="354.199219" xlink:href="#DejaVuSans-49"/>
      </g>
     </g>
    </g>
    <g id="xtick_9">
     <g id="line2d_17">
      <path clip-path="url(#pb5f6937ae0)" d="M 389.863356 276.48 
L 389.863356 41.472 
" style="fill:none;stroke:#b0b0b0;stroke-linecap:square;stroke-width:0.8;"/>
     </g>
     <g id="line2d_18">
      <g>
       <use style="stroke:#000000;stroke-width:0.8;" x="389.863356" xlink:href="#m18f3ebbc73" y="276.48"/>
      </g>
     </g>
     <g id="text_9">
      <!-- 2021-01 -->
      <g transform="translate(352.638535 310.951846)rotate(-30)scale(0.1 -0.1)">
       <use xlink:href="#DejaVuSans-50"/>
       <use x="63.623047" xlink:href="#DejaVuSans-48"/>
       <use x="127.246094" xlink:href="#DejaVuSans-50"/>
       <use x="190.869141" xlink:href="#DejaVuSans-49"/>
       <use x="254.492188" xlink:href="#DejaVuSans-45"/>
       <use x="290.576172" xlink:href="#DejaVuSans-48"/>
       <use x="354.199219" xlink:href="#DejaVuSans-49"/>
      </g>
     </g>
    </g>
    <g id="text_10">
     <!-- Date -->
     <g transform="translate(224.209219 324.351346)scale(0.1 -0.1)">
      <defs>
       <path d="M 19.671875 64.796875 
L 19.671875 8.109375 
L 31.59375 8.109375 
Q 46.6875 8.109375 53.6875 14.9375 
Q 60.6875 21.78125 60.6875 36.53125 
Q 60.6875 51.171875 53.6875 57.984375 
Q 46.6875 64.796875 31.59375 64.796875 
z
M 9.8125 72.90625 
L 30.078125 72.90625 
Q 51.265625 72.90625 61.171875 64.09375 
Q 71.09375 55.28125 71.09375 36.53125 
Q 71.09375 17.671875 61.125 8.828125 
Q 51.171875 0 30.078125 0 
L 9.8125 0 
z
" id="DejaVuSans-68"/>
       <path d="M 34.28125 27.484375 
Q 23.390625 27.484375 19.1875 25 
Q 14.984375 22.515625 14.984375 16.5 
Q 14.984375 11.71875 18.140625 8.90625 
Q 21.296875 6.109375 26.703125 6.109375 
Q 34.1875 6.109375 38.703125 11.40625 
Q 43.21875 16.703125 43.21875 25.484375 
L 43.21875 27.484375 
z
M 52.203125 31.203125 
L 52.203125 0 
L 43.21875 0 
L 43.21875 8.296875 
Q 40.140625 3.328125 35.546875 0.953125 
Q 30.953125 -1.421875 24.3125 -1.421875 
Q 15.921875 -1.421875 10.953125 3.296875 
Q 6 8.015625 6 15.921875 
Q 6 25.140625 12.171875 29.828125 
Q 18.359375 34.515625 30.609375 34.515625 
L 43.21875 34.515625 
L 43.21875 35.40625 
Q 43.21875 41.609375 39.140625 45 
Q 35.0625 48.390625 27.6875 48.390625 
Q 23 48.390625 18.546875 47.265625 
Q 14.109375 46.140625 10.015625 43.890625 
L 10.015625 52.203125 
Q 14.9375 54.109375 19.578125 55.046875 
Q 24.21875 56 28.609375 56 
Q 40.484375 56 46.34375 49.84375 
Q 52.203125 43.703125 52.203125 31.203125 
z
" id="DejaVuSans-97"/>
       <path d="M 18.3125 70.21875 
L 18.3125 54.6875 
L 36.8125 54.6875 
L 36.8125 47.703125 
L 18.3125 47.703125 
L 18.3125 18.015625 
Q 18.3125 11.328125 20.140625 9.421875 
Q 21.96875 7.515625 27.59375 7.515625 
L 36.8125 7.515625 
L 36.8125 0 
L 27.59375 0 
Q 17.1875 0 13.234375 3.875 
Q 9.28125 7.765625 9.28125 18.015625 
L 9.28125 47.703125 
L 2.6875 47.703125 
L 2.6875 54.6875 
L 9.28125 54.6875 
L 9.28125 70.21875 
z
" id="DejaVuSans-116"/>
       <path d="M 56.203125 29.59375 
L 56.203125 25.203125 
L 14.890625 25.203125 
Q 15.484375 15.921875 20.484375 11.0625 
Q 25.484375 6.203125 34.421875 6.203125 
Q 39.59375 6.203125 44.453125 7.46875 
Q 49.3125 8.734375 54.109375 11.28125 
L 54.109375 2.78125 
Q 49.265625 0.734375 44.1875 -0.34375 
Q 39.109375 -1.421875 33.890625 -1.421875 
Q 20.796875 -1.421875 13.15625 6.1875 
Q 5.515625 13.8125 5.515625 26.8125 
Q 5.515625 40.234375 12.765625 48.109375 
Q 20.015625 56 32.328125 56 
Q 43.359375 56 49.78125 48.890625 
Q 56.203125 41.796875 56.203125 29.59375 
z
M 47.21875 32.234375 
Q 47.125 39.59375 43.09375 43.984375 
Q 39.0625 48.390625 32.421875 48.390625 
Q 24.90625 48.390625 20.390625 44.140625 
Q 15.875 39.890625 15.1875 32.171875 
z
" id="DejaVuSans-101"/>
      </defs>
      <use xlink:href="#DejaVuSans-68"/>
      <use x="77.001953" xlink:href="#DejaVuSans-97"/>
      <use x="138.28125" xlink:href="#DejaVuSans-116"/>
      <use x="177.490234" xlink:href="#DejaVuSans-101"/>
     </g>
    </g>
   </g>
   <g id="matplotlib.axis_2">
    <g id="ytick_1">
     <g id="line2d_19">
      <path clip-path="url(#pb5f6937ae0)" d="M 57.6 254.290485 
L 414.72 254.290485 
" style="fill:none;stroke:#b0b0b0;stroke-linecap:square;stroke-width:0.8;"/>
     </g>
     <g id="line2d_20">
      <defs>
       <path d="M 0 0 
L -3.5 0 
" id="medd5158baa" style="stroke:#000000;stroke-width:0.8;"/>
      </defs>
      <g>
       <use style="stroke:#000000;stroke-width:0.8;" x="57.6" xlink:href="#medd5158baa" y="254.290485"/>
      </g>
     </g>
     <g id="text_11">
      <!-- 16 -->
      <g transform="translate(37.875 258.089704)scale(0.1 -0.1)">
       <defs>
        <path d="M 33.015625 40.375 
Q 26.375 40.375 22.484375 35.828125 
Q 18.609375 31.296875 18.609375 23.390625 
Q 18.609375 15.53125 22.484375 10.953125 
Q 26.375 6.390625 33.015625 6.390625 
Q 39.65625 6.390625 43.53125 10.953125 
Q 47.40625 15.53125 47.40625 23.390625 
Q 47.40625 31.296875 43.53125 35.828125 
Q 39.65625 40.375 33.015625 40.375 
z
M 52.59375 71.296875 
L 52.59375 62.3125 
Q 48.875 64.0625 45.09375 64.984375 
Q 41.3125 65.921875 37.59375 65.921875 
Q 27.828125 65.921875 22.671875 59.328125 
Q 17.53125 52.734375 16.796875 39.40625 
Q 19.671875 43.65625 24.015625 45.921875 
Q 28.375 48.1875 33.59375 48.1875 
Q 44.578125 48.1875 50.953125 41.515625 
Q 57.328125 34.859375 57.328125 23.390625 
Q 57.328125 12.15625 50.6875 5.359375 
Q 44.046875 -1.421875 33.015625 -1.421875 
Q 20.359375 -1.421875 13.671875 8.265625 
Q 6.984375 17.96875 6.984375 36.375 
Q 6.984375 53.65625 15.1875 63.9375 
Q 23.390625 74.21875 37.203125 74.21875 
Q 40.921875 74.21875 44.703125 73.484375 
Q 48.484375 72.75 52.59375 71.296875 
z
" id="DejaVuSans-54"/>
       </defs>
       <use xlink:href="#DejaVuSans-49"/>
       <use x="63.623047" xlink:href="#DejaVuSans-54"/>
      </g>
     </g>
    </g>
    <g id="ytick_2">
     <g id="line2d_21">
      <path clip-path="url(#pb5f6937ae0)" d="M 57.6 226.728009 
L 414.72 226.728009 
" style="fill:none;stroke:#b0b0b0;stroke-linecap:square;stroke-width:0.8;"/>
     </g>
     <g id="line2d_22">
      <g>
       <use style="stroke:#000000;stroke-width:0.8;" x="57.6" xlink:href="#medd5158baa" y="226.728009"/>
      </g>
     </g>
     <g id="text_12">
      <!-- 18 -->
      <g transform="translate(37.875 230.527228)scale(0.1 -0.1)">
       <defs>
        <path d="M 31.78125 34.625 
Q 24.75 34.625 20.71875 30.859375 
Q 16.703125 27.09375 16.703125 20.515625 
Q 16.703125 13.921875 20.71875 10.15625 
Q 24.75 6.390625 31.78125 6.390625 
Q 38.8125 6.390625 42.859375 10.171875 
Q 46.921875 13.96875 46.921875 20.515625 
Q 46.921875 27.09375 42.890625 30.859375 
Q 38.875 34.625 31.78125 34.625 
z
M 21.921875 38.8125 
Q 15.578125 40.375 12.03125 44.71875 
Q 8.5 49.078125 8.5 55.328125 
Q 8.5 64.0625 14.71875 69.140625 
Q 20.953125 74.21875 31.78125 74.21875 
Q 42.671875 74.21875 48.875 69.140625 
Q 55.078125 64.0625 55.078125 55.328125 
Q 55.078125 49.078125 51.53125 44.71875 
Q 48 40.375 41.703125 38.8125 
Q 48.828125 37.15625 52.796875 32.3125 
Q 56.78125 27.484375 56.78125 20.515625 
Q 56.78125 9.90625 50.3125 4.234375 
Q 43.84375 -1.421875 31.78125 -1.421875 
Q 19.734375 -1.421875 13.25 4.234375 
Q 6.78125 9.90625 6.78125 20.515625 
Q 6.78125 27.484375 10.78125 32.3125 
Q 14.796875 37.15625 21.921875 38.8125 
z
M 18.3125 54.390625 
Q 18.3125 48.734375 21.84375 45.5625 
Q 25.390625 42.390625 31.78125 42.390625 
Q 38.140625 42.390625 41.71875 45.5625 
Q 45.3125 48.734375 45.3125 54.390625 
Q 45.3125 60.0625 41.71875 63.234375 
Q 38.140625 66.40625 31.78125 66.40625 
Q 25.390625 66.40625 21.84375 63.234375 
Q 18.3125 60.0625 18.3125 54.390625 
z
" id="DejaVuSans-56"/>
       </defs>
       <use xlink:href="#DejaVuSans-49"/>
       <use x="63.623047" xlink:href="#DejaVuSans-56"/>
      </g>
     </g>
    </g>
    <g id="ytick_3">
     <g id="line2d_23">
      <path clip-path="url(#pb5f6937ae0)" d="M 57.6 199.165534 
L 414.72 199.165534 
" style="fill:none;stroke:#b0b0b0;stroke-linecap:square;stroke-width:0.8;"/>
     </g>
     <g id="line2d_24">
      <g>
       <use style="stroke:#000000;stroke-width:0.8;" x="57.6" xlink:href="#medd5158baa" y="199.165534"/>
      </g>
     </g>
     <g id="text_13">
      <!-- 20 -->
      <g transform="translate(37.875 202.964753)scale(0.1 -0.1)">
       <use xlink:href="#DejaVuSans-50"/>
       <use x="63.623047" xlink:href="#DejaVuSans-48"/>
      </g>
     </g>
    </g>
    <g id="ytick_4">
     <g id="line2d_25">
      <path clip-path="url(#pb5f6937ae0)" d="M 57.6 171.603059 
L 414.72 171.603059 
" style="fill:none;stroke:#b0b0b0;stroke-linecap:square;stroke-width:0.8;"/>
     </g>
     <g id="line2d_26">
      <g>
       <use style="stroke:#000000;stroke-width:0.8;" x="57.6" xlink:href="#medd5158baa" y="171.603059"/>
      </g>
     </g>
     <g id="text_14">
      <!-- 22 -->
      <g transform="translate(37.875 175.402278)scale(0.1 -0.1)">
       <use xlink:href="#DejaVuSans-50"/>
       <use x="63.623047" xlink:href="#DejaVuSans-50"/>
      </g>
     </g>
    </g>
    <g id="ytick_5">
     <g id="line2d_27">
      <path clip-path="url(#pb5f6937ae0)" d="M 57.6 144.040584 
L 414.72 144.040584 
" style="fill:none;stroke:#b0b0b0;stroke-linecap:square;stroke-width:0.8;"/>
     </g>
     <g id="line2d_28">
      <g>
       <use style="stroke:#000000;stroke-width:0.8;" x="57.6" xlink:href="#medd5158baa" y="144.040584"/>
      </g>
     </g>
     <g id="text_15">
      <!-- 24 -->
      <g transform="translate(37.875 147.839802)scale(0.1 -0.1)">
       <defs>
        <path d="M 37.796875 64.3125 
L 12.890625 25.390625 
L 37.796875 25.390625 
z
M 35.203125 72.90625 
L 47.609375 72.90625 
L 47.609375 25.390625 
L 58.015625 25.390625 
L 58.015625 17.1875 
L 47.609375 17.1875 
L 47.609375 0 
L 37.796875 0 
L 37.796875 17.1875 
L 4.890625 17.1875 
L 4.890625 26.703125 
z
" id="DejaVuSans-52"/>
       </defs>
       <use xlink:href="#DejaVuSans-50"/>
       <use x="63.623047" xlink:href="#DejaVuSans-52"/>
      </g>
     </g>
    </g>
    <g id="ytick_6">
     <g id="line2d_29">
      <path clip-path="url(#pb5f6937ae0)" d="M 57.6 116.478108 
L 414.72 116.478108 
" style="fill:none;stroke:#b0b0b0;stroke-linecap:square;stroke-width:0.8;"/>
     </g>
     <g id="line2d_30">
      <g>
       <use style="stroke:#000000;stroke-width:0.8;" x="57.6" xlink:href="#medd5158baa" y="116.478108"/>
      </g>
     </g>
     <g id="text_16">
      <!-- 26 -->
      <g transform="translate(37.875 120.277327)scale(0.1 -0.1)">
       <use xlink:href="#DejaVuSans-50"/>
       <use x="63.623047" xlink:href="#DejaVuSans-54"/>
      </g>
     </g>
    </g>
    <g id="ytick_7">
     <g id="line2d_31">
      <path clip-path="url(#pb5f6937ae0)" d="M 57.6 88.915633 
L 414.72 88.915633 
" style="fill:none;stroke:#b0b0b0;stroke-linecap:square;stroke-width:0.8;"/>
     </g>
     <g id="line2d_32">
      <g>
       <use style="stroke:#000000;stroke-width:0.8;" x="57.6" xlink:href="#medd5158baa" y="88.915633"/>
      </g>
     </g>
     <g id="text_17">
      <!-- 28 -->
      <g transform="translate(37.875 92.714852)scale(0.1 -0.1)">
       <use xlink:href="#DejaVuSans-50"/>
       <use x="63.623047" xlink:href="#DejaVuSans-56"/>
      </g>
     </g>
    </g>
    <g id="ytick_8">
     <g id="line2d_33">
      <path clip-path="url(#pb5f6937ae0)" d="M 57.6 61.353158 
L 414.72 61.353158 
" style="fill:none;stroke:#b0b0b0;stroke-linecap:square;stroke-width:0.8;"/>
     </g>
     <g id="line2d_34">
      <g>
       <use style="stroke:#000000;stroke-width:0.8;" x="57.6" xlink:href="#medd5158baa" y="61.353158"/>
      </g>
     </g>
     <g id="text_18">
      <!-- 30 -->
      <g transform="translate(37.875 65.152377)scale(0.1 -0.1)">
       <use xlink:href="#DejaVuSans-51"/>
       <use x="63.623047" xlink:href="#DejaVuSans-48"/>
      </g>
     </g>
    </g>
    <g id="text_19">
     <!-- Price [USD] -->
     <g transform="translate(31.795312 187.347875)rotate(-90)scale(0.1 -0.1)">
      <defs>
       <path d="M 19.671875 64.796875 
L 19.671875 37.40625 
L 32.078125 37.40625 
Q 38.96875 37.40625 42.71875 40.96875 
Q 46.484375 44.53125 46.484375 51.125 
Q 46.484375 57.671875 42.71875 61.234375 
Q 38.96875 64.796875 32.078125 64.796875 
z
M 9.8125 72.90625 
L 32.078125 72.90625 
Q 44.34375 72.90625 50.609375 67.359375 
Q 56.890625 61.8125 56.890625 51.125 
Q 56.890625 40.328125 50.609375 34.8125 
Q 44.34375 29.296875 32.078125 29.296875 
L 19.671875 29.296875 
L 19.671875 0 
L 9.8125 0 
z
" id="DejaVuSans-80"/>
       <path d="M 41.109375 46.296875 
Q 39.59375 47.171875 37.8125 47.578125 
Q 36.03125 48 33.890625 48 
Q 26.265625 48 22.1875 43.046875 
Q 18.109375 38.09375 18.109375 28.8125 
L 18.109375 0 
L 9.078125 0 
L 9.078125 54.6875 
L 18.109375 54.6875 
L 18.109375 46.1875 
Q 20.953125 51.171875 25.484375 53.578125 
Q 30.03125 56 36.53125 56 
Q 37.453125 56 38.578125 55.875 
Q 39.703125 55.765625 41.0625 55.515625 
z
" id="DejaVuSans-114"/>
       <path d="M 9.421875 54.6875 
L 18.40625 54.6875 
L 18.40625 0 
L 9.421875 0 
z
M 9.421875 75.984375 
L 18.40625 75.984375 
L 18.40625 64.59375 
L 9.421875 64.59375 
z
" id="DejaVuSans-105"/>
       <path d="M 48.78125 52.59375 
L 48.78125 44.1875 
Q 44.96875 46.296875 41.140625 47.34375 
Q 37.3125 48.390625 33.40625 48.390625 
Q 24.65625 48.390625 19.8125 42.84375 
Q 14.984375 37.3125 14.984375 27.296875 
Q 14.984375 17.28125 19.8125 11.734375 
Q 24.65625 6.203125 33.40625 6.203125 
Q 37.3125 6.203125 41.140625 7.25 
Q 44.96875 8.296875 48.78125 10.40625 
L 48.78125 2.09375 
Q 45.015625 0.34375 40.984375 -0.53125 
Q 36.96875 -1.421875 32.421875 -1.421875 
Q 20.0625 -1.421875 12.78125 6.34375 
Q 5.515625 14.109375 5.515625 27.296875 
Q 5.515625 40.671875 12.859375 48.328125 
Q 20.21875 56 33.015625 56 
Q 37.15625 56 41.109375 55.140625 
Q 45.0625 54.296875 48.78125 52.59375 
z
" id="DejaVuSans-99"/>
       <path id="DejaVuSans-32"/>
       <path d="M 8.59375 75.984375 
L 29.296875 75.984375 
L 29.296875 69 
L 17.578125 69 
L 17.578125 -6.203125 
L 29.296875 -6.203125 
L 29.296875 -13.1875 
L 8.59375 -13.1875 
z
" id="DejaVuSans-91"/>
       <path d="M 8.6875 72.90625 
L 18.609375 72.90625 
L 18.609375 28.609375 
Q 18.609375 16.890625 22.84375 11.734375 
Q 27.09375 6.59375 36.625 6.59375 
Q 46.09375 6.59375 50.34375 11.734375 
Q 54.59375 16.890625 54.59375 28.609375 
L 54.59375 72.90625 
L 64.5 72.90625 
L 64.5 27.390625 
Q 64.5 13.140625 57.4375 5.859375 
Q 50.390625 -1.421875 36.625 -1.421875 
Q 22.796875 -1.421875 15.734375 5.859375 
Q 8.6875 13.140625 8.6875 27.390625 
z
" id="DejaVuSans-85"/>
       <path d="M 53.515625 70.515625 
L 53.515625 60.890625 
Q 47.90625 63.578125 42.921875 64.890625 
Q 37.9375 66.21875 33.296875 66.21875 
Q 25.25 66.21875 20.875 63.09375 
Q 16.5 59.96875 16.5 54.203125 
Q 16.5 49.359375 19.40625 46.890625 
Q 22.3125 44.4375 30.421875 42.921875 
L 36.375 41.703125 
Q 47.40625 39.59375 52.65625 34.296875 
Q 57.90625 29 57.90625 20.125 
Q 57.90625 9.515625 50.796875 4.046875 
Q 43.703125 -1.421875 29.984375 -1.421875 
Q 24.8125 -1.421875 18.96875 -0.25 
Q 13.140625 0.921875 6.890625 3.21875 
L 6.890625 13.375 
Q 12.890625 10.015625 18.65625 8.296875 
Q 24.421875 6.59375 29.984375 6.59375 
Q 38.421875 6.59375 43.015625 9.90625 
Q 47.609375 13.234375 47.609375 19.390625 
Q 47.609375 24.75 44.3125 27.78125 
Q 41.015625 30.8125 33.5 32.328125 
L 27.484375 33.5 
Q 16.453125 35.6875 11.515625 40.375 
Q 6.59375 45.0625 6.59375 53.421875 
Q 6.59375 63.09375 13.40625 68.65625 
Q 20.21875 74.21875 32.171875 74.21875 
Q 37.3125 74.21875 42.625 73.28125 
Q 47.953125 72.359375 53.515625 70.515625 
z
" id="DejaVuSans-83"/>
       <path d="M 30.421875 75.984375 
L 30.421875 -13.1875 
L 9.71875 -13.1875 
L 9.71875 -6.203125 
L 21.390625 -6.203125 
L 21.390625 69 
L 9.71875 69 
L 9.71875 75.984375 
z
" id="DejaVuSans-93"/>
      </defs>
      <use xlink:href="#DejaVuSans-80"/>
      <use x="58.552734" xlink:href="#DejaVuSans-114"/>
      <use x="99.666016" xlink:href="#DejaVuSans-105"/>
      <use x="127.449219" xlink:href="#DejaVuSans-99"/>
      <use x="182.429688" xlink:href="#DejaVuSans-101"/>
      <use x="243.953125" xlink:href="#DejaVuSans-32"/>
      <use x="275.740234" xlink:href="#DejaVuSans-91"/>
      <use x="314.753906" xlink:href="#DejaVuSans-85"/>
      <use x="387.947266" xlink:href="#DejaVuSans-83"/>
      <use x="451.423828" xlink:href="#DejaVuSans-68"/>
      <use x="528.425781" xlink:href="#DejaVuSans-93"/>
     </g>
    </g>
   </g>
   <g id="line2d_35">
    <path clip-path="url(#pb5f6937ae0)" d="M 73.832727 228.532663 
L 74.448721 225.556604 
L 75.064715 226.452385 
L 76.912698 218.114736 
L 77.528692 216.116457 
L 78.144686 221.229985 
L 78.76068 223.627231 
L 79.376674 220.664265 
L 81.224656 217.770205 
L 81.84065 219.04497 
L 82.456644 216.943331 
L 83.072638 217.746088 
L 83.688633 219.04497 
L 85.536615 220.333515 
L 86.152609 220.104058 
L 86.768603 221.766764 
L 87.384597 215.806379 
L 88.000591 212.602241 
L 90.464567 216.116457 
L 91.080561 214.393802 
L 91.696556 208.536776 
L 92.31255 207.296464 
L 94.160532 204.195686 
L 94.776526 199.820143 
L 95.39252 196.512646 
L 96.008514 195.858037 
L 96.624508 193.377414 
L 98.47249 195.616866 
L 99.088484 195.720225 
L 99.704479 196.684911 
L 100.320473 196.030303 
L 100.936467 197.167255 
L 102.784449 201.715063 
L 103.400443 203.920061 
L 104.016437 207.847714 
L 105.248425 205.367091 
L 107.096407 203.954514 
L 107.712402 207.640995 
L 108.328396 217.976924 
L 108.94439 224.419652 
L 109.560384 224.178481 
L 111.408366 224.212934 
L 112.02436 227.216554 
L 112.640354 226.659103 
L 113.256348 225.074261 
L 113.872342 219.975203 
L 115.720325 219.286141 
L 116.336319 216.116457 
L 116.952313 214.910598 
L 117.568307 212.740053 
L 118.184301 211.70646 
L 120.032283 205.160373 
L 120.648277 205.642716 
L 121.264271 194.273195 
L 121.880265 189.311949 
L 122.496259 185.41875 
L 124.344242 183.42047 
L 124.960236 183.666465 
L 126.192224 186.348983 
L 128.681867 178.493678 
L 129.297861 178.700396 
L 130.529849 175.530712 
L 131.145843 176.495398 
L 132.993825 175.944149 
L 133.609819 174.2904 
L 134.225813 173.325714 
L 134.841807 173.256807 
L 135.457801 169.60478 
L 137.921778 172.016496 
L 138.537772 174.607369 
L 139.153766 175.565165 
L 139.76976 173.945869 
L 141.617742 172.79238 
L 142.233736 171.258528 
L 142.84973 170.845091 
L 144.081719 173.463526 
L 145.929701 173.943113 
L 146.545695 175.358446 
L 147.161689 168.502281 
L 148.393677 164.643534 
L 150.241659 163.334316 
L 150.857653 163.058692 
L 151.473648 159.820101 
L 152.089642 152.24042 
L 152.705636 148.209408 
L 154.553618 146.521206 
L 155.169612 145.177536 
L 155.785606 144.454021 
L 156.4016 143.213709 
L 157.017594 144.454021 
L 158.865576 144.247302 
L 159.481571 145.349801 
L 160.713559 144.178396 
L 161.329553 141.973398 
L 163.177535 142.869179 
L 163.793529 143.902771 
L 165.025517 139.630588 
L 165.641511 142.076757 
L 167.489494 140.801993 
L 168.105488 141.008711 
L 168.721482 139.423869 
L 169.337476 141.21543 
L 169.95347 143.592693 
L 171.801452 145.349801 
L 172.417446 145.728785 
L 173.03344 145.418707 
L 173.649434 146.038863 
L 174.265428 144.522927 
L 176.729405 146.107769 
L 177.345399 144.936364 
L 177.961393 148.037143 
L 178.577387 144.522927 
L 180.425369 153.067294 
L 181.041363 154.996668 
L 181.657357 149.932063 
L 182.273351 151.482452 
L 182.889345 154.169793 
L 184.737328 152.722763 
L 185.353322 144.454021 
L 185.969316 128.467785 
L 186.58531 132.671063 
L 187.201304 139.010432 
L 189.049286 139.906212 
L 189.66528 135.347379 
L 190.281274 134.118093 
L 190.897268 138.218011 
L 191.513263 141.284336 
L 193.977239 141.732226 
L 194.593233 139.010432 
L 195.209227 139.32051 
L 195.825221 144.178396 
L 197.673203 160.389955 
L 198.289197 163.988925 
L 198.905191 163.162051 
L 199.521186 168.674546 
L 200.13718 178.803756 
L 201.985162 176.219774 
L 202.601156 171.982043 
L 203.21715 171.671965 
L 203.833144 179.768442 
L 204.449138 185.723315 
L 206.271454 206.814121 
L 206.887448 204.953654 
L 207.503442 211.36193 
L 208.119436 241.198309 
L 208.73543 239.957309 
L 210.583413 257.046732 
L 211.199407 257.666888 
L 211.815401 263.386102 
L 212.431395 258.045872 
L 213.047389 249.122521 
L 214.895371 265.797818 
L 215.511365 247.468772 
L 216.743353 217.873564 
L 217.359347 223.329556 
L 219.20733 237.478753 
L 219.823324 235.75472 
L 220.439318 244.643618 
L 221.055312 242.231902 
L 221.671306 247.262054 
L 223.519288 233.756441 
L 224.135282 225.522151 
L 224.751276 230.793475 
L 225.36727 225.28098 
L 227.831247 229.415351 
L 228.447241 222.662544 
L 229.063235 235.548002 
L 229.679229 239.613467 
L 230.295223 232.86066 
L 232.143205 232.033786 
L 232.759199 239.889091 
L 233.375193 239.462562 
L 233.991188 236.891672 
L 234.607182 236.30597 
L 236.455164 229.549718 
L 237.071158 217.873564 
L 237.687152 210.259431 
L 238.303146 214.70388 
L 238.91914 221.732311 
L 240.767122 226.728009 
L 241.383116 225.212073 
L 241.999111 229.208632 
L 242.615105 228.829648 
L 243.231099 223.489419 
L 245.079081 222.83481 
L 245.695075 223.2827 
L 246.311069 226.969181 
L 246.927063 238.373155 
L 247.543057 232.148859 
L 249.391039 218.838251 
L 250.007034 216.254269 
L 250.623028 212.774506 
L 251.239022 217.447035 
L 251.855016 217.218956 
L 254.318992 206.193965 
L 254.934986 205.814981 
L 255.55098 201.608259 
L 256.166974 204.12678 
L 258.014957 200.78483 
L 258.630951 193.446321 
L 259.246945 180.870941 
L 259.862939 178.941568 
L 260.478933 175.323993 
L 262.326915 174.221494 
L 262.942909 175.73743 
L 263.558903 173.876963 
L 264.174897 187.210311 
L 264.790891 184.970859 
L 266.638874 186.796873 
L 267.254868 180.905394 
L 267.870862 177.73571 
L 268.486856 180.52641 
L 269.10285 178.355865 
L 270.950832 174.634931 
L 271.566826 170.087123 
L 272.18282 172.705558 
L 272.798814 172.84337 
L 273.414809 172.740011 
L 275.262791 169.191342 
L 275.878785 165.504861 
L 276.494779 155.341199 
L 277.110773 150.586672 
L 279.574749 142.731366 
L 280.190743 141.835586 
L 280.806737 137.804574 
L 281.422732 139.078649 
L 282.038726 139.113791 
L 283.886708 139.7684 
L 284.502702 136.87434 
L 285.118696 135.8752 
L 285.73469 134.186999 
L 286.350684 133.566843 
L 288.198666 133.187859 
L 288.81466 131.534111 
L 289.430655 116.409202 
L 290.046649 116.547015 
L 290.662643 119.234356 
L 292.510625 116.27139 
L 293.126619 117.890685 
L 293.742613 116.822639 
L 294.358607 125.814897 
L 294.974601 128.122565 
L 296.822583 120.440214 
L 297.438578 121.95615 
L 298.054572 116.27139 
L 298.670566 117.890685 
L 299.28656 117.16717 
L 301.134542 116.684827 
L 301.750536 113.790767 
L 302.36653 109.415224 
L 302.982524 109.133398 
L 303.598518 113.928579 
L 305.446501 108.416084 
L 306.062495 109.311865 
L 306.678489 111.241238 
L 307.294483 117.511701 
L 307.910477 120.578027 
L 309.758459 115.651234 
L 310.374453 116.133578 
L 310.990447 115.420398 
L 311.606441 118.752013 
L 312.222435 119.854512 
L 314.070418 120.819198 
L 314.686412 122.093963 
L 315.302406 119.992324 
L 315.9184 124.263819 
L 316.534394 122.95529 
L 318.99837 119.16545 
L 319.614364 111.964753 
L 320.230358 112.92944 
L 320.846352 114.169751 
L 322.694335 112.343737 
L 323.310329 112.722721 
L 323.926323 112.860534 
L 324.542317 116.960452 
L 325.158311 115.961312 
L 327.006293 127.434192 
L 327.622287 128.984582 
L 328.238281 130.120845 
L 329.47027 130.707236 
L 331.318252 125.642631 
L 331.934246 121.439354 
L 332.55024 123.230915 
L 333.166234 121.025917 
L 333.782228 120.819198 
L 335.63021 113.342877 
L 336.246204 114.686548 
L 336.862199 112.860534 
L 337.478193 109.794208 
L 338.094187 105.763196 
L 339.942169 103.35148 
L 340.558163 105.039681 
L 341.174157 104.557338 
L 341.790151 109.449677 
L 342.406145 105.625384 
L 344.254127 107.062078 
L 344.870122 105.039681 
L 345.486116 107.899288 
L 346.10211 108.553897 
L 346.718104 114.962172 
L 348.566086 118.338576 
L 349.18208 119.027637 
L 349.798074 134.565983 
L 350.414068 139.576841 
L 351.030062 140.801993 
L 352.903711 131.913095 
L 353.519705 124.540132 
L 354.135699 120.853651 
L 354.751693 112.550456 
L 355.367687 107.072414 
L 357.21567 99.251561 
L 357.831664 101.318747 
L 358.447658 102.317887 
L 359.063652 103.868276 
L 359.679646 104.178354 
L 361.527628 99.12064 
L 362.143622 94.083597 
L 362.759616 91.947505 
L 363.37561 102.869136 
L 363.991604 108.174913 
L 365.839587 107.830382 
L 366.455581 106.762336 
L 367.071575 109.03624 
L 368.303563 108.347178 
L 370.151545 109.001787 
L 370.767539 106.69343 
L 371.383533 108.312725 
L 371.999527 104.419526 
L 372.615521 102.283434 
L 374.463504 102.662418 
L 375.079498 102.559058 
L 375.695492 103.179214 
L 376.311486 103.075855 
L 376.92748 105.69429 
L 378.775462 104.69515 
L 379.391456 101.525466 
L 380.00745 102.869136 
L 380.623444 97.941655 
L 381.239439 98.838124 
L 383.087421 100.870857 
L 383.703415 101.146482 
L 384.319409 96.633126 
L 384.935403 94.22141 
L 387.399379 90.224851 
L 388.631367 89.43243 
L 389.247362 89.496512 
L 391.711338 82.955248 
L 392.327332 78.372986 
L 392.943326 66.95592 
L 393.55932 62.100101 
L 394.175314 58.616204 
L 396.023296 62.524563 
L 396.63929 58.734723 
L 397.255285 56.047381 
L 397.871279 52.154182 
L 398.487273 66.521122 
L 398.487273 66.521122 
" style="fill:none;stroke:#1f77b4;stroke-linecap:square;stroke-width:1.5;"/>
   </g>
   <g id="line2d_36">
    <path clip-path="url(#pb5f6937ae0)" d="M 73.832727 228.532663 
L 74.448721 227.044633 
L 75.064715 226.847217 
L 76.912698 224.664097 
L 77.528692 222.954569 
L 78.144686 222.667138 
L 78.76068 222.804294 
L 79.376674 222.536791 
L 81.224656 222.00717 
L 81.84065 221.71095 
L 82.456644 221.27753 
L 83.072638 220.983243 
L 83.688633 220.834145 
L 86.768603 220.815514 
L 87.384597 220.520859 
L 88.000591 220.080936 
L 90.464567 219.872279 
L 91.080561 219.598355 
L 92.31255 218.536379 
L 94.160532 217.912871 
L 96.624508 214.724603 
L 98.47249 214.042183 
L 99.704479 212.852876 
L 100.936467 211.836995 
L 102.784449 211.530269 
L 103.400443 211.30644 
L 107.712402 210.664246 
L 108.328396 210.847063 
L 109.560384 211.487634 
L 111.408366 211.783571 
L 113.256348 212.73138 
L 113.872342 212.885504 
L 117.568307 213.111214 
L 120.032283 212.934694 
L 120.648277 212.799657 
L 121.880265 212.049404 
L 122.496259 211.5822 
L 124.344242 211.096653 
L 126.192224 209.812421 
L 126.808218 209.40286 
L 128.681867 208.912238 
L 131.145843 207.005701 
L 132.993825 206.548913 
L 135.457801 204.663942 
L 137.305784 204.207277 
L 139.153766 203.017372 
L 139.76976 202.63982 
L 141.617742 202.257161 
L 142.84973 201.477027 
L 144.081719 201.131181 
L 145.929701 200.799619 
L 147.161689 200.112256 
L 148.393677 199.311439 
L 150.241659 198.897909 
L 152.089642 197.547081 
L 152.705636 197.004909 
L 154.553618 196.456173 
L 157.017594 194.284033 
L 158.865576 193.768191 
L 159.481571 193.274125 
L 160.713559 192.778209 
L 161.329553 192.270161 
L 163.177535 191.781042 
L 163.793529 191.311647 
L 165.025517 190.80989 
L 165.641511 190.341302 
L 167.489494 189.869499 
L 169.95347 188.087505 
L 171.801452 187.698981 
L 174.265428 186.215765 
L 176.729405 185.866999 
L 178.577387 184.849164 
L 180.425369 184.58209 
L 182.889345 183.543493 
L 184.737328 183.294939 
L 185.969316 182.551541 
L 187.201304 181.821685 
L 189.049286 181.496759 
L 191.513263 180.165787 
L 193.977239 179.87897 
L 195.825221 179.024024 
L 198.289197 178.7818 
L 199.521186 178.599339 
L 202.601156 178.53828 
L 203.833144 178.499676 
L 206.271454 178.739799 
L 207.503442 179.132039 
L 208.73543 179.940535 
L 210.583413 180.444498 
L 213.047389 182.396366 
L 214.895371 182.924224 
L 216.127359 183.643175 
L 217.359347 184.099451 
L 219.20733 184.426932 
L 221.055312 185.447109 
L 221.671306 185.817259 
L 223.519288 186.102611 
L 225.36727 186.823598 
L 227.831247 187.071224 
L 229.063235 187.554374 
L 230.295223 188.107587 
L 232.143205 188.355757 
L 234.607182 189.455902 
L 237.071158 189.830282 
L 241.999111 190.829555 
L 243.231099 191.199503 
L 245.695075 191.52965 
L 247.543057 192.156703 
L 250.007034 192.413163 
L 251.855016 192.762422 
L 255.55098 192.935608 
L 256.166974 192.990199 
L 259.246945 192.9716 
L 264.174897 192.539274 
L 272.18282 191.973647 
L 273.414809 191.803141 
L 275.878785 191.587678 
L 277.110773 191.250353 
L 279.574749 191.039401 
L 282.038726 190.15767 
L 283.886708 189.943247 
L 286.350684 189.025801 
L 288.198666 188.793143 
L 290.046649 187.962324 
L 290.662643 187.680652 
L 292.510625 187.389185 
L 294.974601 186.34137 
L 296.822583 186.077766 
L 299.28656 185.010736 
L 301.134542 184.742791 
L 303.598518 183.612663 
L 305.446501 183.323445 
L 307.910477 182.283101 
L 309.758459 182.03166 
L 312.222435 181.072678 
L 314.070418 180.849517 
L 316.534394 179.995164 
L 318.99837 179.773965 
L 320.846352 179.053612 
L 322.694335 178.814509 
L 325.158311 177.907254 
L 327.006293 177.729532 
L 329.47027 177.067351 
L 331.318252 176.889411 
L 333.782228 176.135 
L 335.63021 175.921422 
L 338.094187 175.046988 
L 339.942169 174.807204 
L 342.406145 173.901076 
L 344.254127 173.681211 
L 346.718104 172.842672 
L 348.566086 172.666284 
L 349.798074 172.371303 
L 351.030062 172.165668 
L 353.519705 171.88669 
L 355.367687 171.335798 
L 357.21567 171.109829 
L 359.679646 170.265383 
L 361.527628 170.0458 
L 363.991604 169.182666 
L 365.839587 168.996185 
L 367.071575 168.627019 
L 371.383533 167.904175 
L 372.615521 167.521073 
L 374.463504 167.329183 
L 376.92748 166.58413 
L 378.775462 166.403695 
L 381.239439 165.641619 
L 383.087421 165.455496 
L 384.935403 164.873259 
L 387.399379 164.661189 
L 389.247362 164.026701 
L 391.711338 163.798973 
L 393.55932 163.007976 
L 394.175314 162.717998 
L 396.023296 162.440454 
L 398.487273 161.299894 
L 398.487273 161.299894 
" style="fill:none;stroke:#ff7f0e;stroke-linecap:square;stroke-width:1.5;"/>
   </g>
   <g id="patch_3">
    <path d="M 57.6 276.48 
L 57.6 41.472 
" style="fill:none;stroke:#000000;stroke-linecap:square;stroke-linejoin:miter;stroke-width:0.8;"/>
   </g>
   <g id="patch_4">
    <path d="M 414.72 276.48 
L 414.72 41.472 
" style="fill:none;stroke:#000000;stroke-linecap:square;stroke-linejoin:miter;stroke-width:0.8;"/>
   </g>
   <g id="patch_5">
    <path d="M 57.6 276.48 
L 414.72 276.48 
" style="fill:none;stroke:#000000;stroke-linecap:square;stroke-linejoin:miter;stroke-width:0.8;"/>
   </g>
   <g id="patch_6">
    <path d="M 57.6 41.472 
L 414.72 41.472 
" style="fill:none;stroke:#000000;stroke-linecap:square;stroke-linejoin:miter;stroke-width:0.8;"/>
   </g>
   <g id="text_20">
    <!-- Historical Data of ABB over last 365 days -->
    <g transform="translate(112.442813 35.472)scale(0.12 -0.12)">
     <defs>
      <path d="M 9.8125 72.90625 
L 19.671875 72.90625 
L 19.671875 43.015625 
L 55.515625 43.015625 
L 55.515625 72.90625 
L 65.375 72.90625 
L 65.375 0 
L 55.515625 0 
L 55.515625 34.71875 
L 19.671875 34.71875 
L 19.671875 0 
L 9.8125 0 
z
" id="DejaVuSans-72"/>
      <path d="M 44.28125 53.078125 
L 44.28125 44.578125 
Q 40.484375 46.53125 36.375 47.5 
Q 32.28125 48.484375 27.875 48.484375 
Q 21.1875 48.484375 17.84375 46.4375 
Q 14.5 44.390625 14.5 40.28125 
Q 14.5 37.15625 16.890625 35.375 
Q 19.28125 33.59375 26.515625 31.984375 
L 29.59375 31.296875 
Q 39.15625 29.25 43.1875 25.515625 
Q 47.21875 21.78125 47.21875 15.09375 
Q 47.21875 7.46875 41.1875 3.015625 
Q 35.15625 -1.421875 24.609375 -1.421875 
Q 20.21875 -1.421875 15.453125 -0.5625 
Q 10.6875 0.296875 5.421875 2 
L 5.421875 11.28125 
Q 10.40625 8.6875 15.234375 7.390625 
Q 20.0625 6.109375 24.8125 6.109375 
Q 31.15625 6.109375 34.5625 8.28125 
Q 37.984375 10.453125 37.984375 14.40625 
Q 37.984375 18.0625 35.515625 20.015625 
Q 33.0625 21.96875 24.703125 23.78125 
L 21.578125 24.515625 
Q 13.234375 26.265625 9.515625 29.90625 
Q 5.8125 33.546875 5.8125 39.890625 
Q 5.8125 47.609375 11.28125 51.796875 
Q 16.75 56 26.8125 56 
Q 31.78125 56 36.171875 55.265625 
Q 40.578125 54.546875 44.28125 53.078125 
z
" id="DejaVuSans-115"/>
      <path d="M 30.609375 48.390625 
Q 23.390625 48.390625 19.1875 42.75 
Q 14.984375 37.109375 14.984375 27.296875 
Q 14.984375 17.484375 19.15625 11.84375 
Q 23.34375 6.203125 30.609375 6.203125 
Q 37.796875 6.203125 41.984375 11.859375 
Q 46.1875 17.53125 46.1875 27.296875 
Q 46.1875 37.015625 41.984375 42.703125 
Q 37.796875 48.390625 30.609375 48.390625 
z
M 30.609375 56 
Q 42.328125 56 49.015625 48.375 
Q 55.71875 40.765625 55.71875 27.296875 
Q 55.71875 13.875 49.015625 6.21875 
Q 42.328125 -1.421875 30.609375 -1.421875 
Q 18.84375 -1.421875 12.171875 6.21875 
Q 5.515625 13.875 5.515625 27.296875 
Q 5.515625 40.765625 12.171875 48.375 
Q 18.84375 56 30.609375 56 
z
" id="DejaVuSans-111"/>
      <path d="M 9.421875 75.984375 
L 18.40625 75.984375 
L 18.40625 0 
L 9.421875 0 
z
" id="DejaVuSans-108"/>
      <path d="M 37.109375 75.984375 
L 37.109375 68.5 
L 28.515625 68.5 
Q 23.6875 68.5 21.796875 66.546875 
Q 19.921875 64.59375 19.921875 59.515625 
L 19.921875 54.6875 
L 34.71875 54.6875 
L 34.71875 47.703125 
L 19.921875 47.703125 
L 19.921875 0 
L 10.890625 0 
L 10.890625 47.703125 
L 2.296875 47.703125 
L 2.296875 54.6875 
L 10.890625 54.6875 
L 10.890625 58.5 
Q 10.890625 67.625 15.140625 71.796875 
Q 19.390625 75.984375 28.609375 75.984375 
z
" id="DejaVuSans-102"/>
      <path d="M 34.1875 63.1875 
L 20.796875 26.90625 
L 47.609375 26.90625 
z
M 28.609375 72.90625 
L 39.796875 72.90625 
L 67.578125 0 
L 57.328125 0 
L 50.6875 18.703125 
L 17.828125 18.703125 
L 11.1875 0 
L 0.78125 0 
z
" id="DejaVuSans-65"/>
      <path d="M 19.671875 34.8125 
L 19.671875 8.109375 
L 35.5 8.109375 
Q 43.453125 8.109375 47.28125 11.40625 
Q 51.125 14.703125 51.125 21.484375 
Q 51.125 28.328125 47.28125 31.5625 
Q 43.453125 34.8125 35.5 34.8125 
z
M 19.671875 64.796875 
L 19.671875 42.828125 
L 34.28125 42.828125 
Q 41.5 42.828125 45.03125 45.53125 
Q 48.578125 48.25 48.578125 53.8125 
Q 48.578125 59.328125 45.03125 62.0625 
Q 41.5 64.796875 34.28125 64.796875 
z
M 9.8125 72.90625 
L 35.015625 72.90625 
Q 46.296875 72.90625 52.390625 68.21875 
Q 58.5 63.53125 58.5 54.890625 
Q 58.5 48.1875 55.375 44.234375 
Q 52.25 40.28125 46.1875 39.3125 
Q 53.46875 37.75 57.5 32.78125 
Q 61.53125 27.828125 61.53125 20.40625 
Q 61.53125 10.640625 54.890625 5.3125 
Q 48.25 0 35.984375 0 
L 9.8125 0 
z
" id="DejaVuSans-66"/>
      <path d="M 2.984375 54.6875 
L 12.5 54.6875 
L 29.59375 8.796875 
L 46.6875 54.6875 
L 56.203125 54.6875 
L 35.6875 0 
L 23.484375 0 
z
" id="DejaVuSans-118"/>
      <path d="M 45.40625 46.390625 
L 45.40625 75.984375 
L 54.390625 75.984375 
L 54.390625 0 
L 45.40625 0 
L 45.40625 8.203125 
Q 42.578125 3.328125 38.25 0.953125 
Q 33.9375 -1.421875 27.875 -1.421875 
Q 17.96875 -1.421875 11.734375 6.484375 
Q 5.515625 14.40625 5.515625 27.296875 
Q 5.515625 40.1875 11.734375 48.09375 
Q 17.96875 56 27.875 56 
Q 33.9375 56 38.25 53.625 
Q 42.578125 51.265625 45.40625 46.390625 
z
M 14.796875 27.296875 
Q 14.796875 17.390625 18.875 11.75 
Q 22.953125 6.109375 30.078125 6.109375 
Q 37.203125 6.109375 41.296875 11.75 
Q 45.40625 17.390625 45.40625 27.296875 
Q 45.40625 37.203125 41.296875 42.84375 
Q 37.203125 48.484375 30.078125 48.484375 
Q 22.953125 48.484375 18.875 42.84375 
Q 14.796875 37.203125 14.796875 27.296875 
z
" id="DejaVuSans-100"/>
      <path d="M 32.171875 -5.078125 
Q 28.375 -14.84375 24.75 -17.8125 
Q 21.140625 -20.796875 15.09375 -20.796875 
L 7.90625 -20.796875 
L 7.90625 -13.28125 
L 13.1875 -13.28125 
Q 16.890625 -13.28125 18.9375 -11.515625 
Q 21 -9.765625 23.484375 -3.21875 
L 25.09375 0.875 
L 2.984375 54.6875 
L 12.5 54.6875 
L 29.59375 11.921875 
L 46.6875 54.6875 
L 56.203125 54.6875 
z
" id="DejaVuSans-121"/>
     </defs>
     <use xlink:href="#DejaVuSans-72"/>
     <use x="75.195312" xlink:href="#DejaVuSans-105"/>
     <use x="102.978516" xlink:href="#DejaVuSans-115"/>
     <use x="155.078125" xlink:href="#DejaVuSans-116"/>
     <use x="194.287109" xlink:href="#DejaVuSans-111"/>
     <use x="255.46875" xlink:href="#DejaVuSans-114"/>
     <use x="296.582031" xlink:href="#DejaVuSans-105"/>
     <use x="324.365234" xlink:href="#DejaVuSans-99"/>
     <use x="379.345703" xlink:href="#DejaVuSans-97"/>
     <use x="440.625" xlink:href="#DejaVuSans-108"/>
     <use x="468.408203" xlink:href="#DejaVuSans-32"/>
     <use x="500.195312" xlink:href="#DejaVuSans-68"/>
     <use x="577.197266" xlink:href="#DejaVuSans-97"/>
     <use x="638.476562" xlink:href="#DejaVuSans-116"/>
     <use x="677.685547" xlink:href="#DejaVuSans-97"/>
     <use x="738.964844" xlink:href="#DejaVuSans-32"/>
     <use x="770.751953" xlink:href="#DejaVuSans-111"/>
     <use x="831.933594" xlink:href="#DejaVuSans-102"/>
     <use x="867.138672" xlink:href="#DejaVuSans-32"/>
     <use x="898.925781" xlink:href="#DejaVuSans-65"/>
     <use x="967.333984" xlink:href="#DejaVuSans-66"/>
     <use x="1035.9375" xlink:href="#DejaVuSans-66"/>
     <use x="1104.541016" xlink:href="#DejaVuSans-32"/>
     <use x="1136.328125" xlink:href="#DejaVuSans-111"/>
     <use x="1197.509766" xlink:href="#DejaVuSans-118"/>
     <use x="1256.689453" xlink:href="#DejaVuSans-101"/>
     <use x="1318.212891" xlink:href="#DejaVuSans-114"/>
     <use x="1359.326172" xlink:href="#DejaVuSans-32"/>
     <use x="1391.113281" xlink:href="#DejaVuSans-108"/>
     <use x="1418.896484" xlink:href="#DejaVuSans-97"/>
     <use x="1480.175781" xlink:href="#DejaVuSans-115"/>
     <use x="1532.275391" xlink:href="#DejaVuSans-116"/>
     <use x="1571.484375" xlink:href="#DejaVuSans-32"/>
     <use x="1603.271484" xlink:href="#DejaVuSans-51"/>
     <use x="1666.894531" xlink:href="#DejaVuSans-54"/>
     <use x="1730.517578" xlink:href="#DejaVuSans-53"/>
     <use x="1794.140625" xlink:href="#DejaVuSans-32"/>
     <use x="1825.927734" xlink:href="#DejaVuSans-100"/>
     <use x="1889.404297" xlink:href="#DejaVuSans-97"/>
     <use x="1950.683594" xlink:href="#DejaVuSans-121"/>
     <use x="2009.863281" xlink:href="#DejaVuSans-115"/>
    </g>
   </g>
   <g id="legend_1">
    <g id="patch_7">
     <path d="M 64.6 108.1845 
L 185.089062 108.1845 
Q 187.089062 108.1845 187.089062 106.1845 
L 187.089062 48.472 
Q 187.089062 46.472 185.089062 46.472 
L 64.6 46.472 
Q 62.6 46.472 62.6 48.472 
L 62.6 106.1845 
Q 62.6 108.1845 64.6 108.1845 
z
" style="fill:#ffffff;opacity:0.8;stroke:#cccccc;stroke-linejoin:miter;"/>
    </g>
    <g id="line2d_37">
     <path d="M 66.6 54.570437 
L 86.6 54.570437 
" style="fill:none;stroke:#1f77b4;stroke-linecap:square;stroke-width:1.5;"/>
    </g>
    <g id="line2d_38"/>
    <g id="text_21">
     <!-- Mean Stock Price -->
     <g transform="translate(94.6 58.070437)scale(0.1 -0.1)">
      <defs>
       <path d="M 9.8125 72.90625 
L 24.515625 72.90625 
L 43.109375 23.296875 
L 61.8125 72.90625 
L 76.515625 72.90625 
L 76.515625 0 
L 66.890625 0 
L 66.890625 64.015625 
L 48.09375 14.015625 
L 38.1875 14.015625 
L 19.390625 64.015625 
L 19.390625 0 
L 9.8125 0 
z
" id="DejaVuSans-77"/>
       <path d="M 54.890625 33.015625 
L 54.890625 0 
L 45.90625 0 
L 45.90625 32.71875 
Q 45.90625 40.484375 42.875 44.328125 
Q 39.84375 48.1875 33.796875 48.1875 
Q 26.515625 48.1875 22.3125 43.546875 
Q 18.109375 38.921875 18.109375 30.90625 
L 18.109375 0 
L 9.078125 0 
L 9.078125 54.6875 
L 18.109375 54.6875 
L 18.109375 46.1875 
Q 21.34375 51.125 25.703125 53.5625 
Q 30.078125 56 35.796875 56 
Q 45.21875 56 50.046875 50.171875 
Q 54.890625 44.34375 54.890625 33.015625 
z
" id="DejaVuSans-110"/>
       <path d="M 9.078125 75.984375 
L 18.109375 75.984375 
L 18.109375 31.109375 
L 44.921875 54.6875 
L 56.390625 54.6875 
L 27.390625 29.109375 
L 57.625 0 
L 45.90625 0 
L 18.109375 26.703125 
L 18.109375 0 
L 9.078125 0 
z
" id="DejaVuSans-107"/>
      </defs>
      <use xlink:href="#DejaVuSans-77"/>
      <use x="86.279297" xlink:href="#DejaVuSans-101"/>
      <use x="147.802734" xlink:href="#DejaVuSans-97"/>
      <use x="209.082031" xlink:href="#DejaVuSans-110"/>
      <use x="272.460938" xlink:href="#DejaVuSans-32"/>
      <use x="304.248047" xlink:href="#DejaVuSans-83"/>
      <use x="367.724609" xlink:href="#DejaVuSans-116"/>
      <use x="406.933594" xlink:href="#DejaVuSans-111"/>
      <use x="468.115234" xlink:href="#DejaVuSans-99"/>
      <use x="523.095703" xlink:href="#DejaVuSans-107"/>
      <use x="581.005859" xlink:href="#DejaVuSans-32"/>
      <use x="612.792969" xlink:href="#DejaVuSans-80"/>
      <use x="671.345703" xlink:href="#DejaVuSans-114"/>
      <use x="712.458984" xlink:href="#DejaVuSans-105"/>
      <use x="740.242188" xlink:href="#DejaVuSans-99"/>
      <use x="795.222656" xlink:href="#DejaVuSans-101"/>
     </g>
    </g>
    <g id="line2d_39">
     <path d="M 66.6 69.248562 
L 86.6 69.248562 
" style="fill:none;stroke:#ff7f0e;stroke-linecap:square;stroke-width:1.5;"/>
    </g>
    <g id="line2d_40"/>
    <g id="text_22">
     <!-- SMA -->
     <g transform="translate(94.6 72.748562)scale(0.1 -0.1)">
      <use xlink:href="#DejaVuSans-83"/>
      <use x="63.476562" xlink:href="#DejaVuSans-77"/>
      <use x="149.755859" xlink:href="#DejaVuSans-65"/>
     </g>
    </g>
    <g id="PathCollection_3">
     <g>
      <use style="fill:#008000;stroke:#008000;" x="76.6" xlink:href="#m22b3cf0c4d" y="84.801687"/>
     </g>
    </g>
    <g id="text_23">
     <!-- Momentum Up -->
     <g transform="translate(94.6 87.426687)scale(0.1 -0.1)">
      <defs>
       <path d="M 52 44.1875 
Q 55.375 50.25 60.0625 53.125 
Q 64.75 56 71.09375 56 
Q 79.640625 56 84.28125 50.015625 
Q 88.921875 44.046875 88.921875 33.015625 
L 88.921875 0 
L 79.890625 0 
L 79.890625 32.71875 
Q 79.890625 40.578125 77.09375 44.375 
Q 74.3125 48.1875 68.609375 48.1875 
Q 61.625 48.1875 57.5625 43.546875 
Q 53.515625 38.921875 53.515625 30.90625 
L 53.515625 0 
L 44.484375 0 
L 44.484375 32.71875 
Q 44.484375 40.625 41.703125 44.40625 
Q 38.921875 48.1875 33.109375 48.1875 
Q 26.21875 48.1875 22.15625 43.53125 
Q 18.109375 38.875 18.109375 30.90625 
L 18.109375 0 
L 9.078125 0 
L 9.078125 54.6875 
L 18.109375 54.6875 
L 18.109375 46.1875 
Q 21.1875 51.21875 25.484375 53.609375 
Q 29.78125 56 35.6875 56 
Q 41.65625 56 45.828125 52.96875 
Q 50 49.953125 52 44.1875 
z
" id="DejaVuSans-109"/>
       <path d="M 8.5 21.578125 
L 8.5 54.6875 
L 17.484375 54.6875 
L 17.484375 21.921875 
Q 17.484375 14.15625 20.5 10.265625 
Q 23.53125 6.390625 29.59375 6.390625 
Q 36.859375 6.390625 41.078125 11.03125 
Q 45.3125 15.671875 45.3125 23.6875 
L 45.3125 54.6875 
L 54.296875 54.6875 
L 54.296875 0 
L 45.3125 0 
L 45.3125 8.40625 
Q 42.046875 3.421875 37.71875 1 
Q 33.40625 -1.421875 27.6875 -1.421875 
Q 18.265625 -1.421875 13.375 4.4375 
Q 8.5 10.296875 8.5 21.578125 
z
M 31.109375 56 
z
" id="DejaVuSans-117"/>
       <path d="M 18.109375 8.203125 
L 18.109375 -20.796875 
L 9.078125 -20.796875 
L 9.078125 54.6875 
L 18.109375 54.6875 
L 18.109375 46.390625 
Q 20.953125 51.265625 25.265625 53.625 
Q 29.59375 56 35.59375 56 
Q 45.5625 56 51.78125 48.09375 
Q 58.015625 40.1875 58.015625 27.296875 
Q 58.015625 14.40625 51.78125 6.484375 
Q 45.5625 -1.421875 35.59375 -1.421875 
Q 29.59375 -1.421875 25.265625 0.953125 
Q 20.953125 3.328125 18.109375 8.203125 
z
M 48.6875 27.296875 
Q 48.6875 37.203125 44.609375 42.84375 
Q 40.53125 48.484375 33.40625 48.484375 
Q 26.265625 48.484375 22.1875 42.84375 
Q 18.109375 37.203125 18.109375 27.296875 
Q 18.109375 17.390625 22.1875 11.75 
Q 26.265625 6.109375 33.40625 6.109375 
Q 40.53125 6.109375 44.609375 11.75 
Q 48.6875 17.390625 48.6875 27.296875 
z
" id="DejaVuSans-112"/>
      </defs>
      <use xlink:href="#DejaVuSans-77"/>
      <use x="86.279297" xlink:href="#DejaVuSans-111"/>
      <use x="147.460938" xlink:href="#DejaVuSans-109"/>
      <use x="244.873047" xlink:href="#DejaVuSans-101"/>
      <use x="306.396484" xlink:href="#DejaVuSans-110"/>
      <use x="369.775391" xlink:href="#DejaVuSans-116"/>
      <use x="408.984375" xlink:href="#DejaVuSans-117"/>
      <use x="472.363281" xlink:href="#DejaVuSans-109"/>
      <use x="569.775391" xlink:href="#DejaVuSans-32"/>
      <use x="601.5625" xlink:href="#DejaVuSans-85"/>
      <use x="674.755859" xlink:href="#DejaVuSans-112"/>
     </g>
    </g>
    <g id="PathCollection_4">
     <g>
      <use style="fill:#ff0000;stroke:#ff0000;" x="76.6" xlink:href="#m268cd702d5" y="99.479812"/>
     </g>
    </g>
    <g id="text_24">
     <!-- Momentum Down -->
     <g transform="translate(94.6 102.104812)scale(0.1 -0.1)">
      <defs>
       <path d="M 4.203125 54.6875 
L 13.1875 54.6875 
L 24.421875 12.015625 
L 35.59375 54.6875 
L 46.1875 54.6875 
L 57.421875 12.015625 
L 68.609375 54.6875 
L 77.59375 54.6875 
L 63.28125 0 
L 52.6875 0 
L 40.921875 44.828125 
L 29.109375 0 
L 18.5 0 
z
" id="DejaVuSans-119"/>
      </defs>
      <use xlink:href="#DejaVuSans-77"/>
      <use x="86.279297" xlink:href="#DejaVuSans-111"/>
      <use x="147.460938" xlink:href="#DejaVuSans-109"/>
      <use x="244.873047" xlink:href="#DejaVuSans-101"/>
      <use x="306.396484" xlink:href="#DejaVuSans-110"/>
      <use x="369.775391" xlink:href="#DejaVuSans-116"/>
      <use x="408.984375" xlink:href="#DejaVuSans-117"/>
      <use x="472.363281" xlink:href="#DejaVuSans-109"/>
      <use x="569.775391" xlink:href="#DejaVuSans-32"/>
      <use x="601.5625" xlink:href="#DejaVuSans-68"/>
      <use x="678.564453" xlink:href="#DejaVuSans-111"/>
      <use x="739.746094" xlink:href="#DejaVuSans-119"/>
      <use x="821.533203" xlink:href="#DejaVuSans-110"/>
     </g>
    </g>
   </g>
  </g>
 </g>
 <defs>
  <clipPath id="pb5f6937ae0">
   <rect height="235.008" width="357.12" x="57.6" y="41.472"/>
  </clipPath>
 </defs>
</svg>
