<?xml version="1.0" encoding="utf-8" standalone="no"?>
<!DOCTYPE svg PUBLIC "-//W3C//DTD SVG 1.1//EN"
  "http://www.w3.org/Graphics/SVG/1.1/DTD/svg11.dtd">
<!-- Created with matplotlib (https://matplotlib.org/) -->
<svg height="345.6pt" version="1.1" viewBox="0 0 460.8 345.6" width="460.8pt" xmlns="http://www.w3.org/2000/svg" xmlns:xlink="http://www.w3.org/1999/xlink">
 <metadata>
  <rdf:RDF xmlns:cc="http://creativecommons.org/ns#" xmlns:dc="http://purl.org/dc/elements/1.1/" xmlns:rdf="http://www.w3.org/1999/02/22-rdf-syntax-ns#">
   <cc:Work>
    <dc:type rdf:resource="http://purl.org/dc/dcmitype/StillImage"/>
    <dc:date>2021-01-16T19:10:16.620945</dc:date>
    <dc:format>image/svg+xml</dc:format>
    <dc:creator>
     <cc:Agent>
      <dc:title>Matplotlib v3.3.3, https://matplotlib.org/</dc:title>
     </cc:Agent>
    </dc:creator>
   </cc:Work>
  </rdf:RDF>
 </metadata>
 <defs>
  <style type="text/css">*{stroke-linecap:butt;stroke-linejoin:round;}</style>
 </defs>
 <g id="figure_1">
  <g id="patch_1">
   <path d="M 0 345.6 
L 460.8 345.6 
L 460.8 0 
L 0 0 
z
" style="fill:#ffffff;"/>
  </g>
  <g id="axes_1">
   <g id="patch_2">
    <path d="M 57.6 276.48 
L 414.72 276.48 
L 414.72 41.472 
L 57.6 41.472 
z
" style="fill:#ffffff;"/>
   </g>
   <g id="PathCollection_1">
    <defs>
     <path d="M 0 -3 
L -3 3 
L 3 3 
z
" id="m04ae686fb0" style="stroke:#008000;"/>
    </defs>
    <g clip-path="url(#p4b1b484365)">
     <use style="fill:#008000;stroke:#008000;" x="76.912698" xlink:href="#m04ae686fb0" y="118.200075"/>
     <use style="fill:#008000;stroke:#008000;" x="91.696556" xlink:href="#m04ae686fb0" y="126.199372"/>
     <use style="fill:#008000;stroke:#008000;" x="92.31255" xlink:href="#m04ae686fb0" y="125.502537"/>
     <use style="fill:#008000;stroke:#008000;" x="94.160532" xlink:href="#m04ae686fb0" y="124.852039"/>
     <use style="fill:#008000;stroke:#008000;" x="94.776526" xlink:href="#m04ae686fb0" y="123.955173"/>
     <use style="fill:#008000;stroke:#008000;" x="112.02436" xlink:href="#m04ae686fb0" y="115.05482"/>
     <use style="fill:#008000;stroke:#008000;" x="156.4016" xlink:href="#m04ae686fb0" y="126.120877"/>
     <use style="fill:#008000;stroke:#008000;" x="157.017594" xlink:href="#m04ae686fb0" y="125.716077"/>
     <use style="fill:#008000;stroke:#008000;" x="158.865576" xlink:href="#m04ae686fb0" y="125.330947"/>
     <use style="fill:#008000;stroke:#008000;" x="398.487273" xlink:href="#m04ae686fb0" y="211.824933"/>
    </g>
   </g>
   <g id="PathCollection_2">
    <defs>
     <path d="M -0 3 
L 3 -3 
L -3 -3 
z
" id="m6aefcc389e" style="stroke:#ff0000;"/>
    </defs>
    <g clip-path="url(#p4b1b484365)">
     <use style="fill:#ff0000;stroke:#ff0000;" x="77.528692" xlink:href="#m6aefcc389e" y="108.438659"/>
     <use style="fill:#ff0000;stroke:#ff0000;" x="78.144686" xlink:href="#m6aefcc389e" y="108.649543"/>
     <use style="fill:#ff0000;stroke:#ff0000;" x="78.76068" xlink:href="#m6aefcc389e" y="108.819076"/>
     <use style="fill:#ff0000;stroke:#ff0000;" x="81.84065" xlink:href="#m6aefcc389e" y="109.936899"/>
     <use style="fill:#ff0000;stroke:#ff0000;" x="83.072638" xlink:href="#m6aefcc389e" y="110.558467"/>
     <use style="fill:#ff0000;stroke:#ff0000;" x="108.94439" xlink:href="#m6aefcc389e" y="104.784873"/>
     <use style="fill:#ff0000;stroke:#ff0000;" x="113.256348" xlink:href="#m6aefcc389e" y="104.823014"/>
     <use style="fill:#ff0000;stroke:#ff0000;" x="113.872342" xlink:href="#m6aefcc389e" y="104.925975"/>
     <use style="fill:#ff0000;stroke:#ff0000;" x="115.720325" xlink:href="#m6aefcc389e" y="105.082677"/>
     <use style="fill:#ff0000;stroke:#ff0000;" x="165.641511" xlink:href="#m6aefcc389e" y="113.348088"/>
     <use style="fill:#ff0000;stroke:#ff0000;" x="167.489494" xlink:href="#m6aefcc389e" y="114.395674"/>
     <use style="fill:#ff0000;stroke:#ff0000;" x="168.105488" xlink:href="#m6aefcc389e" y="115.466196"/>
    </g>
   </g>
   <g id="matplotlib.axis_1">
    <g id="xtick_1">
     <g id="line2d_1">
      <path clip-path="url(#p4b1b484365)" d="M 89.232579 276.48 
L 89.232579 41.472 
" style="fill:none;stroke:#b0b0b0;stroke-linecap:square;stroke-width:0.8;"/>
     </g>
     <g id="line2d_2">
      <defs>
       <path d="M 0 0 
L 0 3.5 
" id="m0b0d57983b" style="stroke:#000000;stroke-width:0.8;"/>
      </defs>
      <g>
       <use style="stroke:#000000;stroke-width:0.8;" x="89.232579" xlink:href="#m0b0d57983b" y="276.48"/>
      </g>
     </g>
     <g id="text_1">
      <!-- 2019-09 -->
      <g transform="translate(52.007758 310.951846)rotate(-30)scale(0.1 -0.1)">
       <defs>
        <path d="M 19.1875 8.296875 
L 53.609375 8.296875 
L 53.609375 0 
L 7.328125 0 
L 7.328125 8.296875 
Q 12.9375 14.109375 22.625 23.890625 
Q 32.328125 33.6875 34.8125 36.53125 
Q 39.546875 41.84375 41.421875 45.53125 
Q 43.3125 49.21875 43.3125 52.78125 
Q 43.3125 58.59375 39.234375 62.25 
Q 35.15625 65.921875 28.609375 65.921875 
Q 23.96875 65.921875 18.8125 64.3125 
Q 13.671875 62.703125 7.8125 59.421875 
L 7.8125 69.390625 
Q 13.765625 71.78125 18.9375 73 
Q 24.125 74.21875 28.421875 74.21875 
Q 39.75 74.21875 46.484375 68.546875 
Q 53.21875 62.890625 53.21875 53.421875 
Q 53.21875 48.921875 51.53125 44.890625 
Q 49.859375 40.875 45.40625 35.40625 
Q 44.1875 33.984375 37.640625 27.21875 
Q 31.109375 20.453125 19.1875 8.296875 
z
" id="DejaVuSans-50"/>
        <path d="M 31.78125 66.40625 
Q 24.171875 66.40625 20.328125 58.90625 
Q 16.5 51.421875 16.5 36.375 
Q 16.5 21.390625 20.328125 13.890625 
Q 24.171875 6.390625 31.78125 6.390625 
Q 39.453125 6.390625 43.28125 13.890625 
Q 47.125 21.390625 47.125 36.375 
Q 47.125 51.421875 43.28125 58.90625 
Q 39.453125 66.40625 31.78125 66.40625 
z
M 31.78125 74.21875 
Q 44.046875 74.21875 50.515625 64.515625 
Q 56.984375 54.828125 56.984375 36.375 
Q 56.984375 17.96875 50.515625 8.265625 
Q 44.046875 -1.421875 31.78125 -1.421875 
Q 19.53125 -1.421875 13.0625 8.265625 
Q 6.59375 17.96875 6.59375 36.375 
Q 6.59375 54.828125 13.0625 64.515625 
Q 19.53125 74.21875 31.78125 74.21875 
z
" id="DejaVuSans-48"/>
        <path d="M 12.40625 8.296875 
L 28.515625 8.296875 
L 28.515625 63.921875 
L 10.984375 60.40625 
L 10.984375 69.390625 
L 28.421875 72.90625 
L 38.28125 72.90625 
L 38.28125 8.296875 
L 54.390625 8.296875 
L 54.390625 0 
L 12.40625 0 
z
" id="DejaVuSans-49"/>
        <path d="M 10.984375 1.515625 
L 10.984375 10.5 
Q 14.703125 8.734375 18.5 7.8125 
Q 22.3125 6.890625 25.984375 6.890625 
Q 35.75 6.890625 40.890625 13.453125 
Q 46.046875 20.015625 46.78125 33.40625 
Q 43.953125 29.203125 39.59375 26.953125 
Q 35.25 24.703125 29.984375 24.703125 
Q 19.046875 24.703125 12.671875 31.3125 
Q 6.296875 37.9375 6.296875 49.421875 
Q 6.296875 60.640625 12.9375 67.421875 
Q 19.578125 74.21875 30.609375 74.21875 
Q 43.265625 74.21875 49.921875 64.515625 
Q 56.59375 54.828125 56.59375 36.375 
Q 56.59375 19.140625 48.40625 8.859375 
Q 40.234375 -1.421875 26.421875 -1.421875 
Q 22.703125 -1.421875 18.890625 -0.6875 
Q 15.09375 0.046875 10.984375 1.515625 
z
M 30.609375 32.421875 
Q 37.25 32.421875 41.125 36.953125 
Q 45.015625 41.5 45.015625 49.421875 
Q 45.015625 57.28125 41.125 61.84375 
Q 37.25 66.40625 30.609375 66.40625 
Q 23.96875 66.40625 20.09375 61.84375 
Q 16.21875 57.28125 16.21875 49.421875 
Q 16.21875 41.5 20.09375 36.953125 
Q 23.96875 32.421875 30.609375 32.421875 
z
" id="DejaVuSans-57"/>
        <path d="M 4.890625 31.390625 
L 31.203125 31.390625 
L 31.203125 23.390625 
L 4.890625 23.390625 
z
" id="DejaVuSans-45"/>
       </defs>
       <use xlink:href="#DejaVuSans-50"/>
       <use x="63.623047" xlink:href="#DejaVuSans-48"/>
       <use x="127.246094" xlink:href="#DejaVuSans-49"/>
       <use x="190.869141" xlink:href="#DejaVuSans-57"/>
       <use x="254.492188" xlink:href="#DejaVuSans-45"/>
       <use x="290.576172" xlink:href="#DejaVuSans-48"/>
       <use x="354.199219" xlink:href="#DejaVuSans-57"/>
      </g>
     </g>
    </g>
    <g id="xtick_2">
     <g id="line2d_3">
      <path clip-path="url(#p4b1b484365)" d="M 126.808218 276.48 
L 126.808218 41.472 
" style="fill:none;stroke:#b0b0b0;stroke-linecap:square;stroke-width:0.8;"/>
     </g>
     <g id="line2d_4">
      <g>
       <use style="stroke:#000000;stroke-width:0.8;" x="126.808218" xlink:href="#m0b0d57983b" y="276.48"/>
      </g>
     </g>
     <g id="text_2">
      <!-- 2019-11 -->
      <g transform="translate(89.583397 310.951846)rotate(-30)scale(0.1 -0.1)">
       <use xlink:href="#DejaVuSans-50"/>
       <use x="63.623047" xlink:href="#DejaVuSans-48"/>
       <use x="127.246094" xlink:href="#DejaVuSans-49"/>
       <use x="190.869141" xlink:href="#DejaVuSans-57"/>
       <use x="254.492188" xlink:href="#DejaVuSans-45"/>
       <use x="290.576172" xlink:href="#DejaVuSans-49"/>
       <use x="354.199219" xlink:href="#DejaVuSans-49"/>
      </g>
     </g>
    </g>
    <g id="xtick_3">
     <g id="line2d_5">
      <path clip-path="url(#p4b1b484365)" d="M 164.409523 276.48 
L 164.409523 41.472 
" style="fill:none;stroke:#b0b0b0;stroke-linecap:square;stroke-width:0.8;"/>
     </g>
     <g id="line2d_6">
      <g>
       <use style="stroke:#000000;stroke-width:0.8;" x="164.409523" xlink:href="#m0b0d57983b" y="276.48"/>
      </g>
     </g>
     <g id="text_3">
      <!-- 2020-01 -->
      <g transform="translate(127.184702 310.951846)rotate(-30)scale(0.1 -0.1)">
       <use xlink:href="#DejaVuSans-50"/>
       <use x="63.623047" xlink:href="#DejaVuSans-48"/>
       <use x="127.246094" xlink:href="#DejaVuSans-50"/>
       <use x="190.869141" xlink:href="#DejaVuSans-48"/>
       <use x="254.492188" xlink:href="#DejaVuSans-45"/>
       <use x="290.576172" xlink:href="#DejaVuSans-48"/>
       <use x="354.199219" xlink:href="#DejaVuSans-49"/>
      </g>
     </g>
    </g>
    <g id="xtick_4">
     <g id="line2d_7">
      <path clip-path="url(#p4b1b484365)" d="M 201.369168 276.48 
L 201.369168 41.472 
" style="fill:none;stroke:#b0b0b0;stroke-linecap:square;stroke-width:0.8;"/>
     </g>
     <g id="line2d_8">
      <g>
       <use style="stroke:#000000;stroke-width:0.8;" x="201.369168" xlink:href="#m0b0d57983b" y="276.48"/>
      </g>
     </g>
     <g id="text_4">
      <!-- 2020-03 -->
      <g transform="translate(164.144347 310.951846)rotate(-30)scale(0.1 -0.1)">
       <defs>
        <path d="M 40.578125 39.3125 
Q 47.65625 37.796875 51.625 33 
Q 55.609375 28.21875 55.609375 21.1875 
Q 55.609375 10.40625 48.1875 4.484375 
Q 40.765625 -1.421875 27.09375 -1.421875 
Q 22.515625 -1.421875 17.65625 -0.515625 
Q 12.796875 0.390625 7.625 2.203125 
L 7.625 11.71875 
Q 11.71875 9.328125 16.59375 8.109375 
Q 21.484375 6.890625 26.8125 6.890625 
Q 36.078125 6.890625 40.9375 10.546875 
Q 45.796875 14.203125 45.796875 21.1875 
Q 45.796875 27.640625 41.28125 31.265625 
Q 36.765625 34.90625 28.71875 34.90625 
L 20.21875 34.90625 
L 20.21875 43.015625 
L 29.109375 43.015625 
Q 36.375 43.015625 40.234375 45.921875 
Q 44.09375 48.828125 44.09375 54.296875 
Q 44.09375 59.90625 40.109375 62.90625 
Q 36.140625 65.921875 28.71875 65.921875 
Q 24.65625 65.921875 20.015625 65.03125 
Q 15.375 64.15625 9.8125 62.3125 
L 9.8125 71.09375 
Q 15.4375 72.65625 20.34375 73.4375 
Q 25.25 74.21875 29.59375 74.21875 
Q 40.828125 74.21875 47.359375 69.109375 
Q 53.90625 64.015625 53.90625 55.328125 
Q 53.90625 49.265625 50.4375 45.09375 
Q 46.96875 40.921875 40.578125 39.3125 
z
" id="DejaVuSans-51"/>
       </defs>
       <use xlink:href="#DejaVuSans-50"/>
       <use x="63.623047" xlink:href="#DejaVuSans-48"/>
       <use x="127.246094" xlink:href="#DejaVuSans-50"/>
       <use x="190.869141" xlink:href="#DejaVuSans-48"/>
       <use x="254.492188" xlink:href="#DejaVuSans-45"/>
       <use x="290.576172" xlink:href="#DejaVuSans-48"/>
       <use x="354.199219" xlink:href="#DejaVuSans-51"/>
      </g>
     </g>
    </g>
    <g id="xtick_5">
     <g id="line2d_9">
      <path clip-path="url(#p4b1b484365)" d="M 238.91914 276.48 
L 238.91914 41.472 
" style="fill:none;stroke:#b0b0b0;stroke-linecap:square;stroke-width:0.8;"/>
     </g>
     <g id="line2d_10">
      <g>
       <use style="stroke:#000000;stroke-width:0.8;" x="238.91914" xlink:href="#m0b0d57983b" y="276.48"/>
      </g>
     </g>
     <g id="text_5">
      <!-- 2020-05 -->
      <g transform="translate(201.694319 310.951846)rotate(-30)scale(0.1 -0.1)">
       <defs>
        <path d="M 10.796875 72.90625 
L 49.515625 72.90625 
L 49.515625 64.59375 
L 19.828125 64.59375 
L 19.828125 46.734375 
Q 21.96875 47.46875 24.109375 47.828125 
Q 26.265625 48.1875 28.421875 48.1875 
Q 40.625 48.1875 47.75 41.5 
Q 54.890625 34.8125 54.890625 23.390625 
Q 54.890625 11.625 47.5625 5.09375 
Q 40.234375 -1.421875 26.90625 -1.421875 
Q 22.3125 -1.421875 17.546875 -0.640625 
Q 12.796875 0.140625 7.71875 1.703125 
L 7.71875 11.625 
Q 12.109375 9.234375 16.796875 8.0625 
Q 21.484375 6.890625 26.703125 6.890625 
Q 35.15625 6.890625 40.078125 11.328125 
Q 45.015625 15.765625 45.015625 23.390625 
Q 45.015625 31 40.078125 35.4375 
Q 35.15625 39.890625 26.703125 39.890625 
Q 22.75 39.890625 18.8125 39.015625 
Q 14.890625 38.140625 10.796875 36.28125 
z
" id="DejaVuSans-53"/>
       </defs>
       <use xlink:href="#DejaVuSans-50"/>
       <use x="63.623047" xlink:href="#DejaVuSans-48"/>
       <use x="127.246094" xlink:href="#DejaVuSans-50"/>
       <use x="190.869141" xlink:href="#DejaVuSans-48"/>
       <use x="254.492188" xlink:href="#DejaVuSans-45"/>
       <use x="290.576172" xlink:href="#DejaVuSans-48"/>
       <use x="354.199219" xlink:href="#DejaVuSans-53"/>
      </g>
     </g>
    </g>
    <g id="xtick_6">
     <g id="line2d_11">
      <path clip-path="url(#p4b1b484365)" d="M 276.494779 276.48 
L 276.494779 41.472 
" style="fill:none;stroke:#b0b0b0;stroke-linecap:square;stroke-width:0.8;"/>
     </g>
     <g id="line2d_12">
      <g>
       <use style="stroke:#000000;stroke-width:0.8;" x="276.494779" xlink:href="#m0b0d57983b" y="276.48"/>
      </g>
     </g>
     <g id="text_6">
      <!-- 2020-07 -->
      <g transform="translate(239.269958 310.951846)rotate(-30)scale(0.1 -0.1)">
       <defs>
        <path d="M 8.203125 72.90625 
L 55.078125 72.90625 
L 55.078125 68.703125 
L 28.609375 0 
L 18.3125 0 
L 43.21875 64.59375 
L 8.203125 64.59375 
z
" id="DejaVuSans-55"/>
       </defs>
       <use xlink:href="#DejaVuSans-50"/>
       <use x="63.623047" xlink:href="#DejaVuSans-48"/>
       <use x="127.246094" xlink:href="#DejaVuSans-50"/>
       <use x="190.869141" xlink:href="#DejaVuSans-48"/>
       <use x="254.492188" xlink:href="#DejaVuSans-45"/>
       <use x="290.576172" xlink:href="#DejaVuSans-48"/>
       <use x="354.199219" xlink:href="#DejaVuSans-55"/>
      </g>
     </g>
    </g>
    <g id="xtick_7">
     <g id="line2d_13">
      <path clip-path="url(#p4b1b484365)" d="M 314.686412 276.48 
L 314.686412 41.472 
" style="fill:none;stroke:#b0b0b0;stroke-linecap:square;stroke-width:0.8;"/>
     </g>
     <g id="line2d_14">
      <g>
       <use style="stroke:#000000;stroke-width:0.8;" x="314.686412" xlink:href="#m0b0d57983b" y="276.48"/>
      </g>
     </g>
     <g id="text_7">
      <!-- 2020-09 -->
      <g transform="translate(277.461591 310.951846)rotate(-30)scale(0.1 -0.1)">
       <use xlink:href="#DejaVuSans-50"/>
       <use x="63.623047" xlink:href="#DejaVuSans-48"/>
       <use x="127.246094" xlink:href="#DejaVuSans-50"/>
       <use x="190.869141" xlink:href="#DejaVuSans-48"/>
       <use x="254.492188" xlink:href="#DejaVuSans-45"/>
       <use x="290.576172" xlink:href="#DejaVuSans-48"/>
       <use x="354.199219" xlink:href="#DejaVuSans-57"/>
      </g>
     </g>
    </g>
    <g id="xtick_8">
     <g id="line2d_15">
      <path clip-path="url(#p4b1b484365)" d="M 352.26205 276.48 
L 352.26205 41.472 
" style="fill:none;stroke:#b0b0b0;stroke-linecap:square;stroke-width:0.8;"/>
     </g>
     <g id="line2d_16">
      <g>
       <use style="stroke:#000000;stroke-width:0.8;" x="352.26205" xlink:href="#m0b0d57983b" y="276.48"/>
      </g>
     </g>
     <g id="text_8">
      <!-- 2020-11 -->
      <g transform="translate(315.03723 310.951846)rotate(-30)scale(0.1 -0.1)">
       <use xlink:href="#DejaVuSans-50"/>
       <use x="63.623047" xlink:href="#DejaVuSans-48"/>
       <use x="127.246094" xlink:href="#DejaVuSans-50"/>
       <use x="190.869141" xlink:href="#DejaVuSans-48"/>
       <use x="254.492188" xlink:href="#DejaVuSans-45"/>
       <use x="290.576172" xlink:href="#DejaVuSans-49"/>
       <use x="354.199219" xlink:href="#DejaVuSans-49"/>
      </g>
     </g>
    </g>
    <g id="xtick_9">
     <g id="line2d_17">
      <path clip-path="url(#p4b1b484365)" d="M 389.863356 276.48 
L 389.863356 41.472 
" style="fill:none;stroke:#b0b0b0;stroke-linecap:square;stroke-width:0.8;"/>
     </g>
     <g id="line2d_18">
      <g>
       <use style="stroke:#000000;stroke-width:0.8;" x="389.863356" xlink:href="#m0b0d57983b" y="276.48"/>
      </g>
     </g>
     <g id="text_9">
      <!-- 2021-01 -->
      <g transform="translate(352.638535 310.951846)rotate(-30)scale(0.1 -0.1)">
       <use xlink:href="#DejaVuSans-50"/>
       <use x="63.623047" xlink:href="#DejaVuSans-48"/>
       <use x="127.246094" xlink:href="#DejaVuSans-50"/>
       <use x="190.869141" xlink:href="#DejaVuSans-49"/>
       <use x="254.492188" xlink:href="#DejaVuSans-45"/>
       <use x="290.576172" xlink:href="#DejaVuSans-48"/>
       <use x="354.199219" xlink:href="#DejaVuSans-49"/>
      </g>
     </g>
    </g>
    <g id="text_10">
     <!-- Date -->
     <g transform="translate(224.209219 324.351346)scale(0.1 -0.1)">
      <defs>
       <path d="M 19.671875 64.796875 
L 19.671875 8.109375 
L 31.59375 8.109375 
Q 46.6875 8.109375 53.6875 14.9375 
Q 60.6875 21.78125 60.6875 36.53125 
Q 60.6875 51.171875 53.6875 57.984375 
Q 46.6875 64.796875 31.59375 64.796875 
z
M 9.8125 72.90625 
L 30.078125 72.90625 
Q 51.265625 72.90625 61.171875 64.09375 
Q 71.09375 55.28125 71.09375 36.53125 
Q 71.09375 17.671875 61.125 8.828125 
Q 51.171875 0 30.078125 0 
L 9.8125 0 
z
" id="DejaVuSans-68"/>
       <path d="M 34.28125 27.484375 
Q 23.390625 27.484375 19.1875 25 
Q 14.984375 22.515625 14.984375 16.5 
Q 14.984375 11.71875 18.140625 8.90625 
Q 21.296875 6.109375 26.703125 6.109375 
Q 34.1875 6.109375 38.703125 11.40625 
Q 43.21875 16.703125 43.21875 25.484375 
L 43.21875 27.484375 
z
M 52.203125 31.203125 
L 52.203125 0 
L 43.21875 0 
L 43.21875 8.296875 
Q 40.140625 3.328125 35.546875 0.953125 
Q 30.953125 -1.421875 24.3125 -1.421875 
Q 15.921875 -1.421875 10.953125 3.296875 
Q 6 8.015625 6 15.921875 
Q 6 25.140625 12.171875 29.828125 
Q 18.359375 34.515625 30.609375 34.515625 
L 43.21875 34.515625 
L 43.21875 35.40625 
Q 43.21875 41.609375 39.140625 45 
Q 35.0625 48.390625 27.6875 48.390625 
Q 23 48.390625 18.546875 47.265625 
Q 14.109375 46.140625 10.015625 43.890625 
L 10.015625 52.203125 
Q 14.9375 54.109375 19.578125 55.046875 
Q 24.21875 56 28.609375 56 
Q 40.484375 56 46.34375 49.84375 
Q 52.203125 43.703125 52.203125 31.203125 
z
" id="DejaVuSans-97"/>
       <path d="M 18.3125 70.21875 
L 18.3125 54.6875 
L 36.8125 54.6875 
L 36.8125 47.703125 
L 18.3125 47.703125 
L 18.3125 18.015625 
Q 18.3125 11.328125 20.140625 9.421875 
Q 21.96875 7.515625 27.59375 7.515625 
L 36.8125 7.515625 
L 36.8125 0 
L 27.59375 0 
Q 17.1875 0 13.234375 3.875 
Q 9.28125 7.765625 9.28125 18.015625 
L 9.28125 47.703125 
L 2.6875 47.703125 
L 2.6875 54.6875 
L 9.28125 54.6875 
L 9.28125 70.21875 
z
" id="DejaVuSans-116"/>
       <path d="M 56.203125 29.59375 
L 56.203125 25.203125 
L 14.890625 25.203125 
Q 15.484375 15.921875 20.484375 11.0625 
Q 25.484375 6.203125 34.421875 6.203125 
Q 39.59375 6.203125 44.453125 7.46875 
Q 49.3125 8.734375 54.109375 11.28125 
L 54.109375 2.78125 
Q 49.265625 0.734375 44.1875 -0.34375 
Q 39.109375 -1.421875 33.890625 -1.421875 
Q 20.796875 -1.421875 13.15625 6.1875 
Q 5.515625 13.8125 5.515625 26.8125 
Q 5.515625 40.234375 12.765625 48.109375 
Q 20.015625 56 32.328125 56 
Q 43.359375 56 49.78125 48.890625 
Q 56.203125 41.796875 56.203125 29.59375 
z
M 47.21875 32.234375 
Q 47.125 39.59375 43.09375 43.984375 
Q 39.0625 48.390625 32.421875 48.390625 
Q 24.90625 48.390625 20.390625 44.140625 
Q 15.875 39.890625 15.1875 32.171875 
z
" id="DejaVuSans-101"/>
      </defs>
      <use xlink:href="#DejaVuSans-68"/>
      <use x="77.001953" xlink:href="#DejaVuSans-97"/>
      <use x="138.28125" xlink:href="#DejaVuSans-116"/>
      <use x="177.490234" xlink:href="#DejaVuSans-101"/>
     </g>
    </g>
   </g>
   <g id="matplotlib.axis_2">
    <g id="ytick_1">
     <g id="line2d_19">
      <path clip-path="url(#p4b1b484365)" d="M 57.6 248.557588 
L 414.72 248.557588 
" style="fill:none;stroke:#b0b0b0;stroke-linecap:square;stroke-width:0.8;"/>
     </g>
     <g id="line2d_20">
      <defs>
       <path d="M 0 0 
L -3.5 0 
" id="m65d7227f65" style="stroke:#000000;stroke-width:0.8;"/>
      </defs>
      <g>
       <use style="stroke:#000000;stroke-width:0.8;" x="57.6" xlink:href="#m65d7227f65" y="248.557588"/>
      </g>
     </g>
     <g id="text_11">
      <!-- 0.5 -->
      <g transform="translate(34.696875 252.356807)scale(0.1 -0.1)">
       <defs>
        <path d="M 10.6875 12.40625 
L 21 12.40625 
L 21 0 
L 10.6875 0 
z
" id="DejaVuSans-46"/>
       </defs>
       <use xlink:href="#DejaVuSans-48"/>
       <use x="63.623047" xlink:href="#DejaVuSans-46"/>
       <use x="95.410156" xlink:href="#DejaVuSans-53"/>
      </g>
     </g>
    </g>
    <g id="ytick_2">
     <g id="line2d_21">
      <path clip-path="url(#p4b1b484365)" d="M 57.6 214.753215 
L 414.72 214.753215 
" style="fill:none;stroke:#b0b0b0;stroke-linecap:square;stroke-width:0.8;"/>
     </g>
     <g id="line2d_22">
      <g>
       <use style="stroke:#000000;stroke-width:0.8;" x="57.6" xlink:href="#m65d7227f65" y="214.753215"/>
      </g>
     </g>
     <g id="text_12">
      <!-- 1.0 -->
      <g transform="translate(34.696875 218.552434)scale(0.1 -0.1)">
       <use xlink:href="#DejaVuSans-49"/>
       <use x="63.623047" xlink:href="#DejaVuSans-46"/>
       <use x="95.410156" xlink:href="#DejaVuSans-48"/>
      </g>
     </g>
    </g>
    <g id="ytick_3">
     <g id="line2d_23">
      <path clip-path="url(#p4b1b484365)" d="M 57.6 180.948842 
L 414.72 180.948842 
" style="fill:none;stroke:#b0b0b0;stroke-linecap:square;stroke-width:0.8;"/>
     </g>
     <g id="line2d_24">
      <g>
       <use style="stroke:#000000;stroke-width:0.8;" x="57.6" xlink:href="#m65d7227f65" y="180.948842"/>
      </g>
     </g>
     <g id="text_13">
      <!-- 1.5 -->
      <g transform="translate(34.696875 184.748061)scale(0.1 -0.1)">
       <use xlink:href="#DejaVuSans-49"/>
       <use x="63.623047" xlink:href="#DejaVuSans-46"/>
       <use x="95.410156" xlink:href="#DejaVuSans-53"/>
      </g>
     </g>
    </g>
    <g id="ytick_4">
     <g id="line2d_25">
      <path clip-path="url(#p4b1b484365)" d="M 57.6 147.14447 
L 414.72 147.14447 
" style="fill:none;stroke:#b0b0b0;stroke-linecap:square;stroke-width:0.8;"/>
     </g>
     <g id="line2d_26">
      <g>
       <use style="stroke:#000000;stroke-width:0.8;" x="57.6" xlink:href="#m65d7227f65" y="147.14447"/>
      </g>
     </g>
     <g id="text_14">
      <!-- 2.0 -->
      <g transform="translate(34.696875 150.943688)scale(0.1 -0.1)">
       <use xlink:href="#DejaVuSans-50"/>
       <use x="63.623047" xlink:href="#DejaVuSans-46"/>
       <use x="95.410156" xlink:href="#DejaVuSans-48"/>
      </g>
     </g>
    </g>
    <g id="ytick_5">
     <g id="line2d_27">
      <path clip-path="url(#p4b1b484365)" d="M 57.6 113.340097 
L 414.72 113.340097 
" style="fill:none;stroke:#b0b0b0;stroke-linecap:square;stroke-width:0.8;"/>
     </g>
     <g id="line2d_28">
      <g>
       <use style="stroke:#000000;stroke-width:0.8;" x="57.6" xlink:href="#m65d7227f65" y="113.340097"/>
      </g>
     </g>
     <g id="text_15">
      <!-- 2.5 -->
      <g transform="translate(34.696875 117.139315)scale(0.1 -0.1)">
       <use xlink:href="#DejaVuSans-50"/>
       <use x="63.623047" xlink:href="#DejaVuSans-46"/>
       <use x="95.410156" xlink:href="#DejaVuSans-53"/>
      </g>
     </g>
    </g>
    <g id="ytick_6">
     <g id="line2d_29">
      <path clip-path="url(#p4b1b484365)" d="M 57.6 79.535724 
L 414.72 79.535724 
" style="fill:none;stroke:#b0b0b0;stroke-linecap:square;stroke-width:0.8;"/>
     </g>
     <g id="line2d_30">
      <g>
       <use style="stroke:#000000;stroke-width:0.8;" x="57.6" xlink:href="#m65d7227f65" y="79.535724"/>
      </g>
     </g>
     <g id="text_16">
      <!-- 3.0 -->
      <g transform="translate(34.696875 83.334943)scale(0.1 -0.1)">
       <use xlink:href="#DejaVuSans-51"/>
       <use x="63.623047" xlink:href="#DejaVuSans-46"/>
       <use x="95.410156" xlink:href="#DejaVuSans-48"/>
      </g>
     </g>
    </g>
    <g id="ytick_7">
     <g id="line2d_31">
      <path clip-path="url(#p4b1b484365)" d="M 57.6 45.731351 
L 414.72 45.731351 
" style="fill:none;stroke:#b0b0b0;stroke-linecap:square;stroke-width:0.8;"/>
     </g>
     <g id="line2d_32">
      <g>
       <use style="stroke:#000000;stroke-width:0.8;" x="57.6" xlink:href="#m65d7227f65" y="45.731351"/>
      </g>
     </g>
     <g id="text_17">
      <!-- 3.5 -->
      <g transform="translate(34.696875 49.53057)scale(0.1 -0.1)">
       <use xlink:href="#DejaVuSans-51"/>
       <use x="63.623047" xlink:href="#DejaVuSans-46"/>
       <use x="95.410156" xlink:href="#DejaVuSans-53"/>
      </g>
     </g>
    </g>
    <g id="text_18">
     <!-- Price [USD] -->
     <g transform="translate(28.617187 187.347875)rotate(-90)scale(0.1 -0.1)">
      <defs>
       <path d="M 19.671875 64.796875 
L 19.671875 37.40625 
L 32.078125 37.40625 
Q 38.96875 37.40625 42.71875 40.96875 
Q 46.484375 44.53125 46.484375 51.125 
Q 46.484375 57.671875 42.71875 61.234375 
Q 38.96875 64.796875 32.078125 64.796875 
z
M 9.8125 72.90625 
L 32.078125 72.90625 
Q 44.34375 72.90625 50.609375 67.359375 
Q 56.890625 61.8125 56.890625 51.125 
Q 56.890625 40.328125 50.609375 34.8125 
Q 44.34375 29.296875 32.078125 29.296875 
L 19.671875 29.296875 
L 19.671875 0 
L 9.8125 0 
z
" id="DejaVuSans-80"/>
       <path d="M 41.109375 46.296875 
Q 39.59375 47.171875 37.8125 47.578125 
Q 36.03125 48 33.890625 48 
Q 26.265625 48 22.1875 43.046875 
Q 18.109375 38.09375 18.109375 28.8125 
L 18.109375 0 
L 9.078125 0 
L 9.078125 54.6875 
L 18.109375 54.6875 
L 18.109375 46.1875 
Q 20.953125 51.171875 25.484375 53.578125 
Q 30.03125 56 36.53125 56 
Q 37.453125 56 38.578125 55.875 
Q 39.703125 55.765625 41.0625 55.515625 
z
" id="DejaVuSans-114"/>
       <path d="M 9.421875 54.6875 
L 18.40625 54.6875 
L 18.40625 0 
L 9.421875 0 
z
M 9.421875 75.984375 
L 18.40625 75.984375 
L 18.40625 64.59375 
L 9.421875 64.59375 
z
" id="DejaVuSans-105"/>
       <path d="M 48.78125 52.59375 
L 48.78125 44.1875 
Q 44.96875 46.296875 41.140625 47.34375 
Q 37.3125 48.390625 33.40625 48.390625 
Q 24.65625 48.390625 19.8125 42.84375 
Q 14.984375 37.3125 14.984375 27.296875 
Q 14.984375 17.28125 19.8125 11.734375 
Q 24.65625 6.203125 33.40625 6.203125 
Q 37.3125 6.203125 41.140625 7.25 
Q 44.96875 8.296875 48.78125 10.40625 
L 48.78125 2.09375 
Q 45.015625 0.34375 40.984375 -0.53125 
Q 36.96875 -1.421875 32.421875 -1.421875 
Q 20.0625 -1.421875 12.78125 6.34375 
Q 5.515625 14.109375 5.515625 27.296875 
Q 5.515625 40.671875 12.859375 48.328125 
Q 20.21875 56 33.015625 56 
Q 37.15625 56 41.109375 55.140625 
Q 45.0625 54.296875 48.78125 52.59375 
z
" id="DejaVuSans-99"/>
       <path id="DejaVuSans-32"/>
       <path d="M 8.59375 75.984375 
L 29.296875 75.984375 
L 29.296875 69 
L 17.578125 69 
L 17.578125 -6.203125 
L 29.296875 -6.203125 
L 29.296875 -13.1875 
L 8.59375 -13.1875 
z
" id="DejaVuSans-91"/>
       <path d="M 8.6875 72.90625 
L 18.609375 72.90625 
L 18.609375 28.609375 
Q 18.609375 16.890625 22.84375 11.734375 
Q 27.09375 6.59375 36.625 6.59375 
Q 46.09375 6.59375 50.34375 11.734375 
Q 54.59375 16.890625 54.59375 28.609375 
L 54.59375 72.90625 
L 64.5 72.90625 
L 64.5 27.390625 
Q 64.5 13.140625 57.4375 5.859375 
Q 50.390625 -1.421875 36.625 -1.421875 
Q 22.796875 -1.421875 15.734375 5.859375 
Q 8.6875 13.140625 8.6875 27.390625 
z
" id="DejaVuSans-85"/>
       <path d="M 53.515625 70.515625 
L 53.515625 60.890625 
Q 47.90625 63.578125 42.921875 64.890625 
Q 37.9375 66.21875 33.296875 66.21875 
Q 25.25 66.21875 20.875 63.09375 
Q 16.5 59.96875 16.5 54.203125 
Q 16.5 49.359375 19.40625 46.890625 
Q 22.3125 44.4375 30.421875 42.921875 
L 36.375 41.703125 
Q 47.40625 39.59375 52.65625 34.296875 
Q 57.90625 29 57.90625 20.125 
Q 57.90625 9.515625 50.796875 4.046875 
Q 43.703125 -1.421875 29.984375 -1.421875 
Q 24.8125 -1.421875 18.96875 -0.25 
Q 13.140625 0.921875 6.890625 3.21875 
L 6.890625 13.375 
Q 12.890625 10.015625 18.65625 8.296875 
Q 24.421875 6.59375 29.984375 6.59375 
Q 38.421875 6.59375 43.015625 9.90625 
Q 47.609375 13.234375 47.609375 19.390625 
Q 47.609375 24.75 44.3125 27.78125 
Q 41.015625 30.8125 33.5 32.328125 
L 27.484375 33.5 
Q 16.453125 35.6875 11.515625 40.375 
Q 6.59375 45.0625 6.59375 53.421875 
Q 6.59375 63.09375 13.40625 68.65625 
Q 20.21875 74.21875 32.171875 74.21875 
Q 37.3125 74.21875 42.625 73.28125 
Q 47.953125 72.359375 53.515625 70.515625 
z
" id="DejaVuSans-83"/>
       <path d="M 30.421875 75.984375 
L 30.421875 -13.1875 
L 9.71875 -13.1875 
L 9.71875 -6.203125 
L 21.390625 -6.203125 
L 21.390625 69 
L 9.71875 69 
L 9.71875 75.984375 
z
" id="DejaVuSans-93"/>
      </defs>
      <use xlink:href="#DejaVuSans-80"/>
      <use x="58.552734" xlink:href="#DejaVuSans-114"/>
      <use x="99.666016" xlink:href="#DejaVuSans-105"/>
      <use x="127.449219" xlink:href="#DejaVuSans-99"/>
      <use x="182.429688" xlink:href="#DejaVuSans-101"/>
      <use x="243.953125" xlink:href="#DejaVuSans-32"/>
      <use x="275.740234" xlink:href="#DejaVuSans-91"/>
      <use x="314.753906" xlink:href="#DejaVuSans-85"/>
      <use x="387.947266" xlink:href="#DejaVuSans-83"/>
      <use x="451.423828" xlink:href="#DejaVuSans-68"/>
      <use x="528.425781" xlink:href="#DejaVuSans-93"/>
     </g>
    </g>
   </g>
   <g id="line2d_33">
    <path clip-path="url(#p4b1b484365)" d="M 73.832727 122.129234 
L 74.448721 111.987922 
L 75.064715 109.428931 
L 76.912698 108.945528 
L 77.528692 115.030315 
L 78.144686 114.732837 
L 78.76068 114.861293 
L 79.376674 118.072709 
L 81.224656 114.976228 
L 81.84065 119.424884 
L 82.456644 117.396621 
L 83.072638 119.762928 
L 83.688633 118.748796 
L 85.536615 121.115102 
L 86.152609 124.914714 
L 86.768603 127.429759 
L 87.384597 138.017289 
L 88.000591 132.270545 
L 90.464567 139.707507 
L 91.080561 139.03142 
L 92.31255 105.565091 
L 94.160532 105.227047 
L 95.39252 89.338992 
L 96.008514 92.381386 
L 96.624508 91.367254 
L 98.47249 89.000948 
L 99.088484 94.071604 
L 99.704479 93.057473 
L 100.320473 94.747692 
L 100.936467 93.395517 
L 102.784449 94.747692 
L 103.400443 97.577118 
L 104.016437 96.43791 
L 104.632431 100.494435 
L 105.248425 101.84661 
L 107.096407 103.198785 
L 107.712402 104.770688 
L 108.328396 104.500253 
L 108.94439 109.959659 
L 109.560384 109.621616 
L 111.408366 109.283572 
L 112.02436 107.593353 
L 112.640354 108.945528 
L 113.256348 116.044446 
L 113.872342 114.692272 
L 115.720325 117.396621 
L 116.336319 119.877862 
L 116.952313 120.777059 
L 117.568307 121.115102 
L 118.184301 124.157496 
L 120.032283 124.722029 
L 120.648277 127.000444 
L 121.264271 128.214021 
L 121.880265 126.0404 
L 122.496259 125.509671 
L 124.344242 121.79119 
L 124.960236 122.129234 
L 125.57623 122.129234 
L 126.192224 129.316043 
L 126.808218 127.720477 
L 128.681867 123.822833 
L 129.297861 124.157496 
L 129.913855 129.228152 
L 130.529849 133.284677 
L 131.145843 126.73677 
L 132.993825 132.101524 
L 133.609819 135.650983 
L 134.225813 135.992407 
L 134.841807 140.721639 
L 135.457801 144.44012 
L 137.305784 152.147517 
L 137.921778 152.25231 
L 138.537772 147.820557 
L 139.153766 147.888166 
L 139.76976 149.848819 
L 141.617742 148.834688 
L 142.233736 145.457631 
L 142.84973 145.116207 
L 144.081719 142.753281 
L 146.545695 140.045551 
L 147.161689 134.974895 
L 147.777683 135.989026 
L 148.393677 136.32707 
L 150.241659 125.171627 
L 150.857653 127.537933 
L 152.089642 134.298808 
L 152.705636 136.296646 
L 154.553618 131.932502 
L 155.169612 136.029592 
L 155.785606 126.861846 
L 156.4016 94.747692 
L 157.017594 81.225942 
L 158.865576 82.358389 
L 159.481571 82.240074 
L 160.713559 55.196575 
L 161.329553 52.154182 
L 163.177535 61.619406 
L 163.793529 67.98477 
L 165.025517 70.743206 
L 165.641511 224.21844 
L 167.489494 225.063549 
L 168.105488 229.458117 
L 168.721482 229.975324 
L 169.337476 233.024479 
L 169.95347 232.838555 
L 171.801452 236.137861 
L 172.417446 238.761081 
L 173.03344 237.233123 
L 174.265428 238.957146 
L 176.729405 237.293971 
L 177.345399 233.632957 
L 177.961393 236.719297 
L 178.577387 237.064101 
L 180.425369 238.341907 
L 181.041363 238.406135 
L 181.657357 238.108656 
L 182.273351 241.712203 
L 182.889345 248.895632 
L 184.737328 248.118131 
L 185.353322 248.388566 
L 185.969316 247.35182 
L 186.58531 247.475848 
L 187.201304 248.659001 
L 189.049286 251.66759 
L 189.66528 252.137471 
L 190.281274 251.853514 
L 190.897268 250.754872 
L 191.513263 250.078785 
L 193.977239 249.26748 
L 194.593233 250.205585 
L 195.825221 246.06891 
L 197.673203 246.570533 
L 198.289197 248.489979 
L 198.905191 251.224753 
L 199.521186 255.906659 
L 200.13718 265.797818 
L 201.985162 256.724725 
L 202.601156 255.99455 
L 203.21715 258.871302 
L 203.833144 259.229629 
L 204.449138 254.257005 
L 206.271454 247.712479 
L 206.887448 233.007577 
L 208.119436 252.343678 
L 208.73543 255.774822 
L 210.583413 259.374987 
L 211.199407 261.065206 
L 212.431395 259.594716 
L 213.047389 241.15443 
L 214.895371 238.416276 
L 215.511365 250.450633 
L 216.127359 252.614113 
L 216.743353 252.627635 
L 217.359347 252.079835 
L 219.20733 249.114988 
L 219.823324 251.863656 
L 220.439318 250.58247 
L 221.671306 253.763461 
L 223.519288 258.090421 
L 224.751276 257.363627 
L 225.36727 256.484713 
L 227.831247 256.836279 
L 228.447241 254.344897 
L 229.063235 252.59383 
L 229.679229 256.298789 
L 230.295223 256.298789 
L 232.143205 255.14606 
L 232.759199 256.636833 
L 233.375193 257.786182 
L 234.607182 258.191834 
L 236.455164 257.00192 
L 237.687152 257.61378 
L 238.303146 257.008681 
L 238.91914 258.526498 
L 240.767122 259.790781 
L 241.383116 258.93553 
L 241.999111 259.182302 
L 242.615105 258.681998 
L 243.231099 257.579975 
L 245.695075 254.530821 
L 246.311069 255.791724 
L 246.927063 258.08366 
L 247.543057 258.293247 
L 250.007034 257.529269 
L 250.623028 253.560635 
L 251.239022 253.499787 
L 251.855016 255.149441 
L 254.318992 254.307712 
L 254.934986 253.966288 
L 255.55098 254.29081 
L 256.166974 255.081832 
L 258.014957 255.490865 
L 258.630951 253.229352 
L 259.246945 252.725667 
L 259.862939 250.247807 
L 260.478933 251.261938 
L 262.942909 248.388566 
L 263.558903 246.799761 
L 264.174897 253.607961 
L 264.790891 253.587679 
L 266.638874 244.24077 
L 267.254868 233.278012 
L 267.870862 246.671304 
L 268.486856 248.016718 
L 269.10285 249.940187 
L 270.950832 249.659611 
L 271.566826 246.02226 
L 272.18282 245.177151 
L 272.798814 246.377206 
L 273.414809 250.961079 
L 275.262791 248.814501 
L 275.878785 250.078785 
L 276.494779 248.422371 
L 277.110773 248.88549 
L 279.574749 246.052684 
L 280.190743 247.516413 
L 280.806737 248.533925 
L 281.422732 248.72661 
L 282.038726 247.374435 
L 283.886708 247.269303 
L 284.502702 248.760414 
L 285.118696 246.383967 
L 285.73469 242.371388 
L 286.350684 240.275517 
L 288.198666 235.644318 
L 288.81466 212.724953 
L 289.430655 218.096468 
L 290.046649 226.395441 
L 290.662643 224.211679 
L 292.510625 215.429303 
L 293.742613 233.34224 
L 294.358607 236.053351 
L 294.974601 236.489427 
L 296.822583 239.599429 
L 297.438578 241.30317 
L 298.054572 238.595439 
L 299.28656 238.078232 
L 301.134542 238.074852 
L 301.750536 238.514309 
L 302.36653 242.638442 
L 303.598518 245.505053 
L 305.446501 244.440215 
L 306.062495 245.660553 
L 307.294483 249.294523 
L 307.910477 248.500121 
L 309.758459 251.769003 
L 310.374453 252.238884 
L 310.990447 251.018546 
L 311.606441 250.284991 
L 312.222435 249.233675 
L 314.070418 249.571719 
L 314.686412 251.032068 
L 315.9184 252.955537 
L 316.534394 258.404802 
L 318.99837 256.636833 
L 319.614364 255.288039 
L 320.230358 248.642099 
L 320.846352 249.561578 
L 322.694335 246.191282 
L 323.310329 247.621207 
L 323.926323 249.639294 
L 324.542317 247.394718 
L 325.158311 246.154097 
L 327.006293 247.377815 
L 327.622287 246.360304 
L 328.238281 246.522565 
L 328.854276 249.260381 
L 329.47027 248.868588 
L 331.318252 248.719815 
L 331.934246 248.899012 
L 332.55024 249.389176 
L 333.166234 250.521622 
L 333.782228 251.116579 
L 335.63021 250.609513 
L 336.862199 252.063101 
L 337.478193 251.992112 
L 338.094187 252.380863 
L 339.942169 251.566177 
L 340.558163 250.58247 
L 341.174157 238.145841 
L 341.790151 243.993998 
L 342.406145 242.303779 
L 344.254127 244.568672 
L 344.870122 247.202033 
L 346.10211 247.239217 
L 346.718104 247.33725 
L 348.566086 247.350772 
L 349.18208 248.219544 
L 349.798074 249.571719 
L 350.414068 250.460774 
L 351.030062 250.58585 
L 352.903711 251.769003 
L 353.519705 247.64149 
L 354.135699 248.290533 
L 354.751693 249.619045 
L 355.367687 250.58585 
L 357.21567 249.669752 
L 358.447658 248.283773 
L 359.063652 249.568339 
L 359.679646 248.452761 
L 361.527628 248.452794 
L 362.143622 249.771165 
L 362.759616 249.291143 
L 363.37561 249.196491 
L 363.991604 249.65623 
L 365.839587 249.740741 
L 366.455581 250.518242 
L 367.071575 250.575709 
L 368.303563 249.395936 
L 370.151545 248.503501 
L 370.767539 247.032977 
L 371.383533 247.320348 
L 371.999527 245.379977 
L 372.615521 240.059169 
L 374.463504 240.481723 
L 375.079498 242.77704 
L 375.695492 242.658725 
L 376.311486 243.655954 
L 376.92748 242.084051 
L 378.775462 242.063768 
L 379.391456 242.46942 
L 380.00745 242.103319 
L 380.623444 240.353267 
L 381.239439 236.313644 
L 383.087421 235.880948 
L 383.703415 237.665819 
L 384.319409 235.799818 
L 384.935403 234.528773 
L 388.015373 234.288762 
L 388.631367 219.97261 
L 389.247362 223.711374 
L 391.711338 214.749835 
L 392.327332 212.048865 
L 392.943326 216.443434 
L 394.175314 213.025812 
L 396.023296 211.710822 
L 396.63929 215.429303 
L 397.255285 215.726781 
L 397.871279 215.091259 
L 398.487273 196.498854 
L 398.487273 196.498854 
" style="fill:none;stroke:#1f77b4;stroke-linecap:square;stroke-width:1.5;"/>
   </g>
   <g id="line2d_34">
    <path clip-path="url(#p4b1b484365)" d="M 73.832727 122.129234 
L 74.448721 117.058578 
L 75.064715 114.515362 
L 76.912698 113.122904 
L 77.528692 113.504386 
L 78.76068 113.873723 
L 79.376674 114.398596 
L 81.224656 114.462777 
L 81.84065 114.958988 
L 82.456644 115.180591 
L 83.072638 115.562452 
L 83.688633 115.807556 
L 85.536615 116.186666 
L 86.768603 117.434863 
L 87.384597 118.645594 
L 88.000591 119.402535 
L 90.464567 120.471218 
L 91.080561 121.399228 
L 91.696556 121.369601 
L 92.31255 120.651214 
L 94.160532 119.980598 
L 94.776526 119.055994 
L 96.008514 116.887085 
L 96.624508 115.941907 
L 98.47249 114.979729 
L 100.320473 112.945458 
L 100.936467 112.334522 
L 102.784449 111.801588 
L 104.632431 110.665607 
L 105.248425 110.427256 
L 107.712402 110.09687 
L 108.328396 109.956955 
L 113.256348 109.994052 
L 113.872342 110.094014 
L 115.720325 110.246151 
L 118.184301 111.110438 
L 120.032283 111.367261 
L 122.496259 112.44262 
L 124.960236 112.76525 
L 126.192224 113.190083 
L 126.808218 113.424444 
L 129.297861 113.754623 
L 131.145843 114.470828 
L 132.993825 114.730103 
L 134.841807 115.69031 
L 135.457801 116.089613 
L 137.305784 116.583557 
L 138.537772 117.475633 
L 139.76976 118.291032 
L 141.617742 118.682618 
L 142.84973 119.347725 
L 144.081719 119.636683 
L 145.929701 119.893816 
L 147.161689 120.313255 
L 148.393677 120.681738 
L 150.857653 120.810671 
L 152.705636 121.240141 
L 154.553618 121.356363 
L 155.785606 121.57103 
L 156.4016 121.288679 
L 157.017594 120.871359 
L 158.865576 120.474318 
L 160.713559 119.428742 
L 161.329553 118.755997 
L 163.177535 118.190288 
L 163.793529 117.698077 
L 165.025517 117.242204 
L 165.641511 118.270822 
L 167.489494 119.287896 
L 169.95347 123.399317 
L 171.801452 124.424212 
L 174.265428 128.418389 
L 176.729405 129.365133 
L 178.577387 132.071243 
L 180.425369 132.964274 
L 182.889345 136.503018 
L 184.737328 137.40314 
L 187.201304 140.858317 
L 189.049286 141.717303 
L 191.513263 145.010201 
L 193.977239 145.788241 
L 195.825221 148.030036 
L 197.673203 148.744098 
L 200.13718 151.747216 
L 201.985162 152.481324 
L 204.449138 155.327768 
L 206.271454 155.951989 
L 207.503442 157.044887 
L 208.73543 158.321392 
L 210.583413 158.981873 
L 212.431395 160.931254 
L 213.047389 161.442229 
L 214.895371 161.929407 
L 217.359347 164.151966 
L 219.20733 164.673212 
L 221.671306 166.767375 
L 223.519288 167.310964 
L 225.36727 168.887929 
L 227.831247 169.399257 
L 230.295223 171.342094 
L 232.143205 171.815563 
L 234.607182 173.712758 
L 236.455164 174.17039 
L 238.91914 175.964727 
L 240.767122 176.412994 
L 243.231099 178.134082 
L 245.079081 178.535556 
L 247.543057 180.130236 
L 249.391039 180.524411 
L 251.855016 182.005215 
L 254.318992 182.363148 
L 256.166974 183.418023 
L 258.014957 183.767892 
L 260.478933 185.065002 
L 262.326915 185.368334 
L 264.790891 186.581872 
L 266.638874 186.848811 
L 267.870862 187.336204 
L 269.10285 187.896588 
L 270.950832 188.176059 
L 273.414809 189.224208 
L 275.262791 189.487882 
L 277.110773 190.269205 
L 279.574749 190.511742 
L 282.038726 191.495094 
L 283.886708 191.732431 
L 286.350684 192.614697 
L 289.430655 192.980902 
L 290.662643 193.245842 
L 293.126619 193.464589 
L 294.974601 193.96857 
L 296.822583 194.151094 
L 299.28656 194.858391 
L 301.134542 195.027867 
L 303.598518 195.76421 
L 305.446501 195.951425 
L 307.910477 196.73585 
L 309.758459 196.943522 
L 312.222435 197.742786 
L 314.070418 197.934745 
L 316.534394 198.747061 
L 318.99837 198.957569 
L 320.846352 199.520947 
L 322.694335 199.688224 
L 325.158311 200.366869 
L 327.622287 200.6932 
L 329.47027 201.188242 
L 331.934246 201.516663 
L 333.782228 202.016586 
L 336.246204 202.348367 
L 338.094187 202.849679 
L 340.558163 203.171177 
L 342.406145 203.550484 
L 344.870122 203.82809 
L 346.718104 204.251057 
L 349.18208 204.531923 
L 351.030062 204.969694 
L 353.519705 205.25373 
L 355.367687 205.671133 
L 357.831664 205.943832 
L 359.679646 206.341582 
L 362.143622 206.604785 
L 363.991604 206.996033 
L 366.455581 207.257448 
L 367.071575 207.388319 
L 371.999527 207.985614 
L 372.615521 208.080788 
L 375.079498 208.278715 
L 376.92748 208.581529 
L 379.391456 208.777373 
L 381.239439 209.043765 
L 384.319409 209.278666 
L 384.935403 209.350603 
L 398.487273 209.643375 
L 398.487273 209.643375 
" style="fill:none;stroke:#ff7f0e;stroke-linecap:square;stroke-width:1.5;"/>
   </g>
   <g id="patch_3">
    <path d="M 57.6 276.48 
L 57.6 41.472 
" style="fill:none;stroke:#000000;stroke-linecap:square;stroke-linejoin:miter;stroke-width:0.8;"/>
   </g>
   <g id="patch_4">
    <path d="M 414.72 276.48 
L 414.72 41.472 
" style="fill:none;stroke:#000000;stroke-linecap:square;stroke-linejoin:miter;stroke-width:0.8;"/>
   </g>
   <g id="patch_5">
    <path d="M 57.6 276.48 
L 414.72 276.48 
" style="fill:none;stroke:#000000;stroke-linecap:square;stroke-linejoin:miter;stroke-width:0.8;"/>
   </g>
   <g id="patch_6">
    <path d="M 57.6 41.472 
L 414.72 41.472 
" style="fill:none;stroke:#000000;stroke-linecap:square;stroke-linejoin:miter;stroke-width:0.8;"/>
   </g>
   <g id="text_19">
    <!-- Historical Data of NOVN over last 365 days -->
    <g transform="translate(107.080312 35.472)scale(0.12 -0.12)">
     <defs>
      <path d="M 9.8125 72.90625 
L 19.671875 72.90625 
L 19.671875 43.015625 
L 55.515625 43.015625 
L 55.515625 72.90625 
L 65.375 72.90625 
L 65.375 0 
L 55.515625 0 
L 55.515625 34.71875 
L 19.671875 34.71875 
L 19.671875 0 
L 9.8125 0 
z
" id="DejaVuSans-72"/>
      <path d="M 44.28125 53.078125 
L 44.28125 44.578125 
Q 40.484375 46.53125 36.375 47.5 
Q 32.28125 48.484375 27.875 48.484375 
Q 21.1875 48.484375 17.84375 46.4375 
Q 14.5 44.390625 14.5 40.28125 
Q 14.5 37.15625 16.890625 35.375 
Q 19.28125 33.59375 26.515625 31.984375 
L 29.59375 31.296875 
Q 39.15625 29.25 43.1875 25.515625 
Q 47.21875 21.78125 47.21875 15.09375 
Q 47.21875 7.46875 41.1875 3.015625 
Q 35.15625 -1.421875 24.609375 -1.421875 
Q 20.21875 -1.421875 15.453125 -0.5625 
Q 10.6875 0.296875 5.421875 2 
L 5.421875 11.28125 
Q 10.40625 8.6875 15.234375 7.390625 
Q 20.0625 6.109375 24.8125 6.109375 
Q 31.15625 6.109375 34.5625 8.28125 
Q 37.984375 10.453125 37.984375 14.40625 
Q 37.984375 18.0625 35.515625 20.015625 
Q 33.0625 21.96875 24.703125 23.78125 
L 21.578125 24.515625 
Q 13.234375 26.265625 9.515625 29.90625 
Q 5.8125 33.546875 5.8125 39.890625 
Q 5.8125 47.609375 11.28125 51.796875 
Q 16.75 56 26.8125 56 
Q 31.78125 56 36.171875 55.265625 
Q 40.578125 54.546875 44.28125 53.078125 
z
" id="DejaVuSans-115"/>
      <path d="M 30.609375 48.390625 
Q 23.390625 48.390625 19.1875 42.75 
Q 14.984375 37.109375 14.984375 27.296875 
Q 14.984375 17.484375 19.15625 11.84375 
Q 23.34375 6.203125 30.609375 6.203125 
Q 37.796875 6.203125 41.984375 11.859375 
Q 46.1875 17.53125 46.1875 27.296875 
Q 46.1875 37.015625 41.984375 42.703125 
Q 37.796875 48.390625 30.609375 48.390625 
z
M 30.609375 56 
Q 42.328125 56 49.015625 48.375 
Q 55.71875 40.765625 55.71875 27.296875 
Q 55.71875 13.875 49.015625 6.21875 
Q 42.328125 -1.421875 30.609375 -1.421875 
Q 18.84375 -1.421875 12.171875 6.21875 
Q 5.515625 13.875 5.515625 27.296875 
Q 5.515625 40.765625 12.171875 48.375 
Q 18.84375 56 30.609375 56 
z
" id="DejaVuSans-111"/>
      <path d="M 9.421875 75.984375 
L 18.40625 75.984375 
L 18.40625 0 
L 9.421875 0 
z
" id="DejaVuSans-108"/>
      <path d="M 37.109375 75.984375 
L 37.109375 68.5 
L 28.515625 68.5 
Q 23.6875 68.5 21.796875 66.546875 
Q 19.921875 64.59375 19.921875 59.515625 
L 19.921875 54.6875 
L 34.71875 54.6875 
L 34.71875 47.703125 
L 19.921875 47.703125 
L 19.921875 0 
L 10.890625 0 
L 10.890625 47.703125 
L 2.296875 47.703125 
L 2.296875 54.6875 
L 10.890625 54.6875 
L 10.890625 58.5 
Q 10.890625 67.625 15.140625 71.796875 
Q 19.390625 75.984375 28.609375 75.984375 
z
" id="DejaVuSans-102"/>
      <path d="M 9.8125 72.90625 
L 23.09375 72.90625 
L 55.421875 11.921875 
L 55.421875 72.90625 
L 64.984375 72.90625 
L 64.984375 0 
L 51.703125 0 
L 19.390625 60.984375 
L 19.390625 0 
L 9.8125 0 
z
" id="DejaVuSans-78"/>
      <path d="M 39.40625 66.21875 
Q 28.65625 66.21875 22.328125 58.203125 
Q 16.015625 50.203125 16.015625 36.375 
Q 16.015625 22.609375 22.328125 14.59375 
Q 28.65625 6.59375 39.40625 6.59375 
Q 50.140625 6.59375 56.421875 14.59375 
Q 62.703125 22.609375 62.703125 36.375 
Q 62.703125 50.203125 56.421875 58.203125 
Q 50.140625 66.21875 39.40625 66.21875 
z
M 39.40625 74.21875 
Q 54.734375 74.21875 63.90625 63.9375 
Q 73.09375 53.65625 73.09375 36.375 
Q 73.09375 19.140625 63.90625 8.859375 
Q 54.734375 -1.421875 39.40625 -1.421875 
Q 24.03125 -1.421875 14.8125 8.828125 
Q 5.609375 19.09375 5.609375 36.375 
Q 5.609375 53.65625 14.8125 63.9375 
Q 24.03125 74.21875 39.40625 74.21875 
z
" id="DejaVuSans-79"/>
      <path d="M 28.609375 0 
L 0.78125 72.90625 
L 11.078125 72.90625 
L 34.1875 11.53125 
L 57.328125 72.90625 
L 67.578125 72.90625 
L 39.796875 0 
z
" id="DejaVuSans-86"/>
      <path d="M 2.984375 54.6875 
L 12.5 54.6875 
L 29.59375 8.796875 
L 46.6875 54.6875 
L 56.203125 54.6875 
L 35.6875 0 
L 23.484375 0 
z
" id="DejaVuSans-118"/>
      <path d="M 33.015625 40.375 
Q 26.375 40.375 22.484375 35.828125 
Q 18.609375 31.296875 18.609375 23.390625 
Q 18.609375 15.53125 22.484375 10.953125 
Q 26.375 6.390625 33.015625 6.390625 
Q 39.65625 6.390625 43.53125 10.953125 
Q 47.40625 15.53125 47.40625 23.390625 
Q 47.40625 31.296875 43.53125 35.828125 
Q 39.65625 40.375 33.015625 40.375 
z
M 52.59375 71.296875 
L 52.59375 62.3125 
Q 48.875 64.0625 45.09375 64.984375 
Q 41.3125 65.921875 37.59375 65.921875 
Q 27.828125 65.921875 22.671875 59.328125 
Q 17.53125 52.734375 16.796875 39.40625 
Q 19.671875 43.65625 24.015625 45.921875 
Q 28.375 48.1875 33.59375 48.1875 
Q 44.578125 48.1875 50.953125 41.515625 
Q 57.328125 34.859375 57.328125 23.390625 
Q 57.328125 12.15625 50.6875 5.359375 
Q 44.046875 -1.421875 33.015625 -1.421875 
Q 20.359375 -1.421875 13.671875 8.265625 
Q 6.984375 17.96875 6.984375 36.375 
Q 6.984375 53.65625 15.1875 63.9375 
Q 23.390625 74.21875 37.203125 74.21875 
Q 40.921875 74.21875 44.703125 73.484375 
Q 48.484375 72.75 52.59375 71.296875 
z
" id="DejaVuSans-54"/>
      <path d="M 45.40625 46.390625 
L 45.40625 75.984375 
L 54.390625 75.984375 
L 54.390625 0 
L 45.40625 0 
L 45.40625 8.203125 
Q 42.578125 3.328125 38.25 0.953125 
Q 33.9375 -1.421875 27.875 -1.421875 
Q 17.96875 -1.421875 11.734375 6.484375 
Q 5.515625 14.40625 5.515625 27.296875 
Q 5.515625 40.1875 11.734375 48.09375 
Q 17.96875 56 27.875 56 
Q 33.9375 56 38.25 53.625 
Q 42.578125 51.265625 45.40625 46.390625 
z
M 14.796875 27.296875 
Q 14.796875 17.390625 18.875 11.75 
Q 22.953125 6.109375 30.078125 6.109375 
Q 37.203125 6.109375 41.296875 11.75 
Q 45.40625 17.390625 45.40625 27.296875 
Q 45.40625 37.203125 41.296875 42.84375 
Q 37.203125 48.484375 30.078125 48.484375 
Q 22.953125 48.484375 18.875 42.84375 
Q 14.796875 37.203125 14.796875 27.296875 
z
" id="DejaVuSans-100"/>
      <path d="M 32.171875 -5.078125 
Q 28.375 -14.84375 24.75 -17.8125 
Q 21.140625 -20.796875 15.09375 -20.796875 
L 7.90625 -20.796875 
L 7.90625 -13.28125 
L 13.1875 -13.28125 
Q 16.890625 -13.28125 18.9375 -11.515625 
Q 21 -9.765625 23.484375 -3.21875 
L 25.09375 0.875 
L 2.984375 54.6875 
L 12.5 54.6875 
L 29.59375 11.921875 
L 46.6875 54.6875 
L 56.203125 54.6875 
z
" id="DejaVuSans-121"/>
     </defs>
     <use xlink:href="#DejaVuSans-72"/>
     <use x="75.195312" xlink:href="#DejaVuSans-105"/>
     <use x="102.978516" xlink:href="#DejaVuSans-115"/>
     <use x="155.078125" xlink:href="#DejaVuSans-116"/>
     <use x="194.287109" xlink:href="#DejaVuSans-111"/>
     <use x="255.46875" xlink:href="#DejaVuSans-114"/>
     <use x="296.582031" xlink:href="#DejaVuSans-105"/>
     <use x="324.365234" xlink:href="#DejaVuSans-99"/>
     <use x="379.345703" xlink:href="#DejaVuSans-97"/>
     <use x="440.625" xlink:href="#DejaVuSans-108"/>
     <use x="468.408203" xlink:href="#DejaVuSans-32"/>
     <use x="500.195312" xlink:href="#DejaVuSans-68"/>
     <use x="577.197266" xlink:href="#DejaVuSans-97"/>
     <use x="638.476562" xlink:href="#DejaVuSans-116"/>
     <use x="677.685547" xlink:href="#DejaVuSans-97"/>
     <use x="738.964844" xlink:href="#DejaVuSans-32"/>
     <use x="770.751953" xlink:href="#DejaVuSans-111"/>
     <use x="831.933594" xlink:href="#DejaVuSans-102"/>
     <use x="867.138672" xlink:href="#DejaVuSans-32"/>
     <use x="898.925781" xlink:href="#DejaVuSans-78"/>
     <use x="973.730469" xlink:href="#DejaVuSans-79"/>
     <use x="1050.691406" xlink:href="#DejaVuSans-86"/>
     <use x="1119.099609" xlink:href="#DejaVuSans-78"/>
     <use x="1193.904297" xlink:href="#DejaVuSans-32"/>
     <use x="1225.691406" xlink:href="#DejaVuSans-111"/>
     <use x="1286.873047" xlink:href="#DejaVuSans-118"/>
     <use x="1346.052734" xlink:href="#DejaVuSans-101"/>
     <use x="1407.576172" xlink:href="#DejaVuSans-114"/>
     <use x="1448.689453" xlink:href="#DejaVuSans-32"/>
     <use x="1480.476562" xlink:href="#DejaVuSans-108"/>
     <use x="1508.259766" xlink:href="#DejaVuSans-97"/>
     <use x="1569.539062" xlink:href="#DejaVuSans-115"/>
     <use x="1621.638672" xlink:href="#DejaVuSans-116"/>
     <use x="1660.847656" xlink:href="#DejaVuSans-32"/>
     <use x="1692.634766" xlink:href="#DejaVuSans-51"/>
     <use x="1756.257812" xlink:href="#DejaVuSans-54"/>
     <use x="1819.880859" xlink:href="#DejaVuSans-53"/>
     <use x="1883.503906" xlink:href="#DejaVuSans-32"/>
     <use x="1915.291016" xlink:href="#DejaVuSans-100"/>
     <use x="1978.767578" xlink:href="#DejaVuSans-97"/>
     <use x="2040.046875" xlink:href="#DejaVuSans-121"/>
     <use x="2099.226562" xlink:href="#DejaVuSans-115"/>
    </g>
   </g>
   <g id="legend_1">
    <g id="patch_7">
     <path d="M 287.230938 108.1845 
L 407.72 108.1845 
Q 409.72 108.1845 409.72 106.1845 
L 409.72 48.472 
Q 409.72 46.472 407.72 46.472 
L 287.230938 46.472 
Q 285.230938 46.472 285.230938 48.472 
L 285.230938 106.1845 
Q 285.230938 108.1845 287.230938 108.1845 
z
" style="fill:#ffffff;opacity:0.8;stroke:#cccccc;stroke-linejoin:miter;"/>
    </g>
    <g id="line2d_35">
     <path d="M 289.230938 54.570437 
L 309.230938 54.570437 
" style="fill:none;stroke:#1f77b4;stroke-linecap:square;stroke-width:1.5;"/>
    </g>
    <g id="line2d_36"/>
    <g id="text_20">
     <!-- Mean Stock Price -->
     <g transform="translate(317.230938 58.070437)scale(0.1 -0.1)">
      <defs>
       <path d="M 9.8125 72.90625 
L 24.515625 72.90625 
L 43.109375 23.296875 
L 61.8125 72.90625 
L 76.515625 72.90625 
L 76.515625 0 
L 66.890625 0 
L 66.890625 64.015625 
L 48.09375 14.015625 
L 38.1875 14.015625 
L 19.390625 64.015625 
L 19.390625 0 
L 9.8125 0 
z
" id="DejaVuSans-77"/>
       <path d="M 54.890625 33.015625 
L 54.890625 0 
L 45.90625 0 
L 45.90625 32.71875 
Q 45.90625 40.484375 42.875 44.328125 
Q 39.84375 48.1875 33.796875 48.1875 
Q 26.515625 48.1875 22.3125 43.546875 
Q 18.109375 38.921875 18.109375 30.90625 
L 18.109375 0 
L 9.078125 0 
L 9.078125 54.6875 
L 18.109375 54.6875 
L 18.109375 46.1875 
Q 21.34375 51.125 25.703125 53.5625 
Q 30.078125 56 35.796875 56 
Q 45.21875 56 50.046875 50.171875 
Q 54.890625 44.34375 54.890625 33.015625 
z
" id="DejaVuSans-110"/>
       <path d="M 9.078125 75.984375 
L 18.109375 75.984375 
L 18.109375 31.109375 
L 44.921875 54.6875 
L 56.390625 54.6875 
L 27.390625 29.109375 
L 57.625 0 
L 45.90625 0 
L 18.109375 26.703125 
L 18.109375 0 
L 9.078125 0 
z
" id="DejaVuSans-107"/>
      </defs>
      <use xlink:href="#DejaVuSans-77"/>
      <use x="86.279297" xlink:href="#DejaVuSans-101"/>
      <use x="147.802734" xlink:href="#DejaVuSans-97"/>
      <use x="209.082031" xlink:href="#DejaVuSans-110"/>
      <use x="272.460938" xlink:href="#DejaVuSans-32"/>
      <use x="304.248047" xlink:href="#DejaVuSans-83"/>
      <use x="367.724609" xlink:href="#DejaVuSans-116"/>
      <use x="406.933594" xlink:href="#DejaVuSans-111"/>
      <use x="468.115234" xlink:href="#DejaVuSans-99"/>
      <use x="523.095703" xlink:href="#DejaVuSans-107"/>
      <use x="581.005859" xlink:href="#DejaVuSans-32"/>
      <use x="612.792969" xlink:href="#DejaVuSans-80"/>
      <use x="671.345703" xlink:href="#DejaVuSans-114"/>
      <use x="712.458984" xlink:href="#DejaVuSans-105"/>
      <use x="740.242188" xlink:href="#DejaVuSans-99"/>
      <use x="795.222656" xlink:href="#DejaVuSans-101"/>
     </g>
    </g>
    <g id="line2d_37">
     <path d="M 289.230938 69.248562 
L 309.230938 69.248562 
" style="fill:none;stroke:#ff7f0e;stroke-linecap:square;stroke-width:1.5;"/>
    </g>
    <g id="line2d_38"/>
    <g id="text_21">
     <!-- SMA -->
     <g transform="translate(317.230938 72.748562)scale(0.1 -0.1)">
      <defs>
       <path d="M 34.1875 63.1875 
L 20.796875 26.90625 
L 47.609375 26.90625 
z
M 28.609375 72.90625 
L 39.796875 72.90625 
L 67.578125 0 
L 57.328125 0 
L 50.6875 18.703125 
L 17.828125 18.703125 
L 11.1875 0 
L 0.78125 0 
z
" id="DejaVuSans-65"/>
      </defs>
      <use xlink:href="#DejaVuSans-83"/>
      <use x="63.476562" xlink:href="#DejaVuSans-77"/>
      <use x="149.755859" xlink:href="#DejaVuSans-65"/>
     </g>
    </g>
    <g id="PathCollection_3">
     <g>
      <use style="fill:#008000;stroke:#008000;" x="299.230938" xlink:href="#m04ae686fb0" y="84.801687"/>
     </g>
    </g>
    <g id="text_22">
     <!-- Momentum Up -->
     <g transform="translate(317.230938 87.426687)scale(0.1 -0.1)">
      <defs>
       <path d="M 52 44.1875 
Q 55.375 50.25 60.0625 53.125 
Q 64.75 56 71.09375 56 
Q 79.640625 56 84.28125 50.015625 
Q 88.921875 44.046875 88.921875 33.015625 
L 88.921875 0 
L 79.890625 0 
L 79.890625 32.71875 
Q 79.890625 40.578125 77.09375 44.375 
Q 74.3125 48.1875 68.609375 48.1875 
Q 61.625 48.1875 57.5625 43.546875 
Q 53.515625 38.921875 53.515625 30.90625 
L 53.515625 0 
L 44.484375 0 
L 44.484375 32.71875 
Q 44.484375 40.625 41.703125 44.40625 
Q 38.921875 48.1875 33.109375 48.1875 
Q 26.21875 48.1875 22.15625 43.53125 
Q 18.109375 38.875 18.109375 30.90625 
L 18.109375 0 
L 9.078125 0 
L 9.078125 54.6875 
L 18.109375 54.6875 
L 18.109375 46.1875 
Q 21.1875 51.21875 25.484375 53.609375 
Q 29.78125 56 35.6875 56 
Q 41.65625 56 45.828125 52.96875 
Q 50 49.953125 52 44.1875 
z
" id="DejaVuSans-109"/>
       <path d="M 8.5 21.578125 
L 8.5 54.6875 
L 17.484375 54.6875 
L 17.484375 21.921875 
Q 17.484375 14.15625 20.5 10.265625 
Q 23.53125 6.390625 29.59375 6.390625 
Q 36.859375 6.390625 41.078125 11.03125 
Q 45.3125 15.671875 45.3125 23.6875 
L 45.3125 54.6875 
L 54.296875 54.6875 
L 54.296875 0 
L 45.3125 0 
L 45.3125 8.40625 
Q 42.046875 3.421875 37.71875 1 
Q 33.40625 -1.421875 27.6875 -1.421875 
Q 18.265625 -1.421875 13.375 4.4375 
Q 8.5 10.296875 8.5 21.578125 
z
M 31.109375 56 
z
" id="DejaVuSans-117"/>
       <path d="M 18.109375 8.203125 
L 18.109375 -20.796875 
L 9.078125 -20.796875 
L 9.078125 54.6875 
L 18.109375 54.6875 
L 18.109375 46.390625 
Q 20.953125 51.265625 25.265625 53.625 
Q 29.59375 56 35.59375 56 
Q 45.5625 56 51.78125 48.09375 
Q 58.015625 40.1875 58.015625 27.296875 
Q 58.015625 14.40625 51.78125 6.484375 
Q 45.5625 -1.421875 35.59375 -1.421875 
Q 29.59375 -1.421875 25.265625 0.953125 
Q 20.953125 3.328125 18.109375 8.203125 
z
M 48.6875 27.296875 
Q 48.6875 37.203125 44.609375 42.84375 
Q 40.53125 48.484375 33.40625 48.484375 
Q 26.265625 48.484375 22.1875 42.84375 
Q 18.109375 37.203125 18.109375 27.296875 
Q 18.109375 17.390625 22.1875 11.75 
Q 26.265625 6.109375 33.40625 6.109375 
Q 40.53125 6.109375 44.609375 11.75 
Q 48.6875 17.390625 48.6875 27.296875 
z
" id="DejaVuSans-112"/>
      </defs>
      <use xlink:href="#DejaVuSans-77"/>
      <use x="86.279297" xlink:href="#DejaVuSans-111"/>
      <use x="147.460938" xlink:href="#DejaVuSans-109"/>
      <use x="244.873047" xlink:href="#DejaVuSans-101"/>
      <use x="306.396484" xlink:href="#DejaVuSans-110"/>
      <use x="369.775391" xlink:href="#DejaVuSans-116"/>
      <use x="408.984375" xlink:href="#DejaVuSans-117"/>
      <use x="472.363281" xlink:href="#DejaVuSans-109"/>
      <use x="569.775391" xlink:href="#DejaVuSans-32"/>
      <use x="601.5625" xlink:href="#DejaVuSans-85"/>
      <use x="674.755859" xlink:href="#DejaVuSans-112"/>
     </g>
    </g>
    <g id="PathCollection_4">
     <g>
      <use style="fill:#ff0000;stroke:#ff0000;" x="299.230938" xlink:href="#m6aefcc389e" y="99.479812"/>
     </g>
    </g>
    <g id="text_23">
     <!-- Momentum Down -->
     <g transform="translate(317.230938 102.104812)scale(0.1 -0.1)">
      <defs>
       <path d="M 4.203125 54.6875 
L 13.1875 54.6875 
L 24.421875 12.015625 
L 35.59375 54.6875 
L 46.1875 54.6875 
L 57.421875 12.015625 
L 68.609375 54.6875 
L 77.59375 54.6875 
L 63.28125 0 
L 52.6875 0 
L 40.921875 44.828125 
L 29.109375 0 
L 18.5 0 
z
" id="DejaVuSans-119"/>
      </defs>
      <use xlink:href="#DejaVuSans-77"/>
      <use x="86.279297" xlink:href="#DejaVuSans-111"/>
      <use x="147.460938" xlink:href="#DejaVuSans-109"/>
      <use x="244.873047" xlink:href="#DejaVuSans-101"/>
      <use x="306.396484" xlink:href="#DejaVuSans-110"/>
      <use x="369.775391" xlink:href="#DejaVuSans-116"/>
      <use x="408.984375" xlink:href="#DejaVuSans-117"/>
      <use x="472.363281" xlink:href="#DejaVuSans-109"/>
      <use x="569.775391" xlink:href="#DejaVuSans-32"/>
      <use x="601.5625" xlink:href="#DejaVuSans-68"/>
      <use x="678.564453" xlink:href="#DejaVuSans-111"/>
      <use x="739.746094" xlink:href="#DejaVuSans-119"/>
      <use x="821.533203" xlink:href="#DejaVuSans-110"/>
     </g>
    </g>
   </g>
  </g>
 </g>
 <defs>
  <clipPath id="p4b1b484365">
   <rect height="235.008" width="357.12" x="57.6" y="41.472"/>
  </clipPath>
 </defs>
</svg>
