<?xml version="1.0" encoding="utf-8" standalone="no"?>
<!DOCTYPE svg PUBLIC "-//W3C//DTD SVG 1.1//EN"
  "http://www.w3.org/Graphics/SVG/1.1/DTD/svg11.dtd">
<svg height="345.6pt" version="1.1" viewBox="0 0 460.8 345.6" width="460.8pt" xmlns="http://www.w3.org/2000/svg" xmlns:xlink="http://www.w3.org/1999/xlink">
 <metadata>
  <rdf:RDF xmlns:cc="http://creativecommons.org/ns#" xmlns:dc="http://purl.org/dc/elements/1.1/" xmlns:rdf="http://www.w3.org/1999/02/22-rdf-syntax-ns#">
   <cc:Work>
    <dc:type rdf:resource="http://purl.org/dc/dcmitype/StillImage"/>
    <dc:date>2021-05-29T11:19:53.629040</dc:date>
    <dc:format>image/svg+xml</dc:format>
    <dc:creator>
     <cc:Agent>
      <dc:title>Matplotlib v3.4.1, https://matplotlib.org/</dc:title>
     </cc:Agent>
    </dc:creator>
   </cc:Work>
  </rdf:RDF>
 </metadata>
 <defs>
  <style type="text/css">*{stroke-linecap:butt;stroke-linejoin:round;}</style>
 </defs>
 <g id="figure_1">
  <g id="patch_1">
   <path d="M 0 345.6 
L 460.8 345.6 
L 460.8 0 
L 0 0 
z
" style="fill:#ffffff;"/>
  </g>
  <g id="axes_1">
   <g id="patch_2">
    <path d="M 57.6 276.48 
L 414.72 276.48 
L 414.72 41.472 
L 57.6 41.472 
z
" style="fill:#ffffff;"/>
   </g>
   <g id="PathCollection_1">
    <defs>
     <path d="M 0 -3 
L -3 3 
L 3 3 
z
" id="m9d4b5a7db4" style="stroke:#008000;"/>
    </defs>
    <g clip-path="url(#pbb5c39ad11)">
     <use style="fill:#008000;stroke:#008000;" x="73.832727" xlink:href="#m9d4b5a7db4" y="245.626878"/>
     <use style="fill:#008000;stroke:#008000;" x="101.961641" xlink:href="#m9d4b5a7db4" y="249.414858"/>
     <use style="fill:#008000;stroke:#008000;" x="160.776642" xlink:href="#m9d4b5a7db4" y="176.359718"/>
     <use style="fill:#008000;stroke:#008000;" x="173.562512" xlink:href="#m9d4b5a7db4" y="181.284028"/>
     <use style="fill:#008000;stroke:#008000;" x="183.791208" xlink:href="#m9d4b5a7db4" y="181.459744"/>
     <use style="fill:#008000;stroke:#008000;" x="199.134252" xlink:href="#m9d4b5a7db4" y="181.504936"/>
     <use style="fill:#008000;stroke:#008000;" x="211.813573" xlink:href="#m9d4b5a7db4" y="180.32064"/>
     <use style="fill:#008000;stroke:#008000;" x="245.056834" xlink:href="#m9d4b5a7db4" y="187.521915"/>
     <use style="fill:#008000;stroke:#008000;" x="308.986184" xlink:href="#m9d4b5a7db4" y="107.570636"/>
     <use style="fill:#008000;stroke:#008000;" x="370.358359" xlink:href="#m9d4b5a7db4" y="92.69068"/>
     <use style="fill:#008000;stroke:#008000;" x="378.029881" xlink:href="#m9d4b5a7db4" y="91.487148"/>
    </g>
   </g>
   <g id="PathCollection_2">
    <defs>
     <path d="M -0 3 
L 3 -3 
L -3 -3 
z
" id="m6316957690" style="stroke:#ff0000;"/>
    </defs>
    <g clip-path="url(#pbb5c39ad11)">
     <use style="fill:#ff0000;stroke:#ff0000;" x="89.175771" xlink:href="#m6316957690" y="246.760745"/>
     <use style="fill:#ff0000;stroke:#ff0000;" x="155.662294" xlink:href="#m6316957690" y="176.607538"/>
     <use style="fill:#ff0000;stroke:#ff0000;" x="163.333816" xlink:href="#m6316957690" y="179.689216"/>
     <use style="fill:#ff0000;stroke:#ff0000;" x="178.67686" xlink:href="#m6316957690" y="183.678242"/>
     <use style="fill:#ff0000;stroke:#ff0000;" x="191.46273" xlink:href="#m6316957690" y="184.375025"/>
     <use style="fill:#ff0000;stroke:#ff0000;" x="201.691426" xlink:href="#m6316957690" y="181.953758"/>
     <use style="fill:#ff0000;stroke:#ff0000;" x="216.927921" xlink:href="#m6316957690" y="181.548234"/>
     <use style="fill:#ff0000;stroke:#ff0000;" x="306.42901" xlink:href="#m6316957690" y="110.598709"/>
     <use style="fill:#ff0000;stroke:#ff0000;" x="352.458141" xlink:href="#m6316957690" y="77.526566"/>
     <use style="fill:#ff0000;stroke:#ff0000;" x="372.915533" xlink:href="#m6316957690" y="93.684173"/>
    </g>
   </g>
   <g id="matplotlib.axis_1">
    <g id="xtick_1">
     <g id="line2d_1">
      <path clip-path="url(#pbb5c39ad11)" d="M 58.489683 276.48 
L 58.489683 41.472 
" style="fill:none;stroke:#b0b0b0;stroke-linecap:square;stroke-width:0.8;"/>
     </g>
     <g id="line2d_2">
      <defs>
       <path d="M 0 0 
L 0 3.5 
" id="mb93b712e77" style="stroke:#000000;stroke-width:0.8;"/>
      </defs>
      <g>
       <use style="stroke:#000000;stroke-width:0.8;" x="58.489683" xlink:href="#mb93b712e77" y="276.48"/>
      </g>
     </g>
     <g id="text_1">
      <!-- 2021-01-15 -->
      <g transform="translate(7.120232 319.118252)rotate(-30)scale(0.1 -0.1)">
       <defs>
        <path d="M 1228 531 
L 3431 531 
L 3431 0 
L 469 0 
L 469 531 
Q 828 903 1448 1529 
Q 2069 2156 2228 2338 
Q 2531 2678 2651 2914 
Q 2772 3150 2772 3378 
Q 2772 3750 2511 3984 
Q 2250 4219 1831 4219 
Q 1534 4219 1204 4116 
Q 875 4013 500 3803 
L 500 4441 
Q 881 4594 1212 4672 
Q 1544 4750 1819 4750 
Q 2544 4750 2975 4387 
Q 3406 4025 3406 3419 
Q 3406 3131 3298 2873 
Q 3191 2616 2906 2266 
Q 2828 2175 2409 1742 
Q 1991 1309 1228 531 
z
" id="DejaVuSans-32" transform="scale(0.015625)"/>
        <path d="M 2034 4250 
Q 1547 4250 1301 3770 
Q 1056 3291 1056 2328 
Q 1056 1369 1301 889 
Q 1547 409 2034 409 
Q 2525 409 2770 889 
Q 3016 1369 3016 2328 
Q 3016 3291 2770 3770 
Q 2525 4250 2034 4250 
z
M 2034 4750 
Q 2819 4750 3233 4129 
Q 3647 3509 3647 2328 
Q 3647 1150 3233 529 
Q 2819 -91 2034 -91 
Q 1250 -91 836 529 
Q 422 1150 422 2328 
Q 422 3509 836 4129 
Q 1250 4750 2034 4750 
z
" id="DejaVuSans-30" transform="scale(0.015625)"/>
        <path d="M 794 531 
L 1825 531 
L 1825 4091 
L 703 3866 
L 703 4441 
L 1819 4666 
L 2450 4666 
L 2450 531 
L 3481 531 
L 3481 0 
L 794 0 
L 794 531 
z
" id="DejaVuSans-31" transform="scale(0.015625)"/>
        <path d="M 313 2009 
L 1997 2009 
L 1997 1497 
L 313 1497 
L 313 2009 
z
" id="DejaVuSans-2d" transform="scale(0.015625)"/>
        <path d="M 691 4666 
L 3169 4666 
L 3169 4134 
L 1269 4134 
L 1269 2991 
Q 1406 3038 1543 3061 
Q 1681 3084 1819 3084 
Q 2600 3084 3056 2656 
Q 3513 2228 3513 1497 
Q 3513 744 3044 326 
Q 2575 -91 1722 -91 
Q 1428 -91 1123 -41 
Q 819 9 494 109 
L 494 744 
Q 775 591 1075 516 
Q 1375 441 1709 441 
Q 2250 441 2565 725 
Q 2881 1009 2881 1497 
Q 2881 1984 2565 2268 
Q 2250 2553 1709 2553 
Q 1456 2553 1204 2497 
Q 953 2441 691 2322 
L 691 4666 
z
" id="DejaVuSans-35" transform="scale(0.015625)"/>
       </defs>
       <use xlink:href="#DejaVuSans-32"/>
       <use x="63.623047" xlink:href="#DejaVuSans-30"/>
       <use x="127.246094" xlink:href="#DejaVuSans-32"/>
       <use x="190.869141" xlink:href="#DejaVuSans-31"/>
       <use x="254.492188" xlink:href="#DejaVuSans-2d"/>
       <use x="290.576172" xlink:href="#DejaVuSans-30"/>
       <use x="354.199219" xlink:href="#DejaVuSans-31"/>
       <use x="417.822266" xlink:href="#DejaVuSans-2d"/>
       <use x="453.90625" xlink:href="#DejaVuSans-31"/>
       <use x="517.529297" xlink:href="#DejaVuSans-35"/>
      </g>
     </g>
    </g>
    <g id="xtick_2">
     <g id="line2d_3">
      <path clip-path="url(#pbb5c39ad11)" d="M 101.961641 276.48 
L 101.961641 41.472 
" style="fill:none;stroke:#b0b0b0;stroke-linecap:square;stroke-width:0.8;"/>
     </g>
     <g id="line2d_4">
      <g>
       <use style="stroke:#000000;stroke-width:0.8;" x="101.961641" xlink:href="#mb93b712e77" y="276.48"/>
      </g>
     </g>
     <g id="text_2">
      <!-- 2021-02-01 -->
      <g transform="translate(50.59219 319.118252)rotate(-30)scale(0.1 -0.1)">
       <use xlink:href="#DejaVuSans-32"/>
       <use x="63.623047" xlink:href="#DejaVuSans-30"/>
       <use x="127.246094" xlink:href="#DejaVuSans-32"/>
       <use x="190.869141" xlink:href="#DejaVuSans-31"/>
       <use x="254.492188" xlink:href="#DejaVuSans-2d"/>
       <use x="290.576172" xlink:href="#DejaVuSans-30"/>
       <use x="354.199219" xlink:href="#DejaVuSans-32"/>
       <use x="417.822266" xlink:href="#DejaVuSans-2d"/>
       <use x="453.90625" xlink:href="#DejaVuSans-30"/>
       <use x="517.529297" xlink:href="#DejaVuSans-31"/>
      </g>
     </g>
    </g>
    <g id="xtick_3">
     <g id="line2d_5">
      <path clip-path="url(#pbb5c39ad11)" d="M 137.762077 276.48 
L 137.762077 41.472 
" style="fill:none;stroke:#b0b0b0;stroke-linecap:square;stroke-width:0.8;"/>
     </g>
     <g id="line2d_6">
      <g>
       <use style="stroke:#000000;stroke-width:0.8;" x="137.762077" xlink:href="#mb93b712e77" y="276.48"/>
      </g>
     </g>
     <g id="text_3">
      <!-- 2021-02-15 -->
      <g transform="translate(86.392625 319.118252)rotate(-30)scale(0.1 -0.1)">
       <use xlink:href="#DejaVuSans-32"/>
       <use x="63.623047" xlink:href="#DejaVuSans-30"/>
       <use x="127.246094" xlink:href="#DejaVuSans-32"/>
       <use x="190.869141" xlink:href="#DejaVuSans-31"/>
       <use x="254.492188" xlink:href="#DejaVuSans-2d"/>
       <use x="290.576172" xlink:href="#DejaVuSans-30"/>
       <use x="354.199219" xlink:href="#DejaVuSans-32"/>
       <use x="417.822266" xlink:href="#DejaVuSans-2d"/>
       <use x="453.90625" xlink:href="#DejaVuSans-31"/>
       <use x="517.529297" xlink:href="#DejaVuSans-35"/>
      </g>
     </g>
    </g>
    <g id="xtick_4">
     <g id="line2d_7">
      <path clip-path="url(#pbb5c39ad11)" d="M 173.562512 276.48 
L 173.562512 41.472 
" style="fill:none;stroke:#b0b0b0;stroke-linecap:square;stroke-width:0.8;"/>
     </g>
     <g id="line2d_8">
      <g>
       <use style="stroke:#000000;stroke-width:0.8;" x="173.562512" xlink:href="#mb93b712e77" y="276.48"/>
      </g>
     </g>
     <g id="text_4">
      <!-- 2021-03-01 -->
      <g transform="translate(122.193061 319.118252)rotate(-30)scale(0.1 -0.1)">
       <defs>
        <path d="M 2597 2516 
Q 3050 2419 3304 2112 
Q 3559 1806 3559 1356 
Q 3559 666 3084 287 
Q 2609 -91 1734 -91 
Q 1441 -91 1130 -33 
Q 819 25 488 141 
L 488 750 
Q 750 597 1062 519 
Q 1375 441 1716 441 
Q 2309 441 2620 675 
Q 2931 909 2931 1356 
Q 2931 1769 2642 2001 
Q 2353 2234 1838 2234 
L 1294 2234 
L 1294 2753 
L 1863 2753 
Q 2328 2753 2575 2939 
Q 2822 3125 2822 3475 
Q 2822 3834 2567 4026 
Q 2313 4219 1838 4219 
Q 1578 4219 1281 4162 
Q 984 4106 628 3988 
L 628 4550 
Q 988 4650 1302 4700 
Q 1616 4750 1894 4750 
Q 2613 4750 3031 4423 
Q 3450 4097 3450 3541 
Q 3450 3153 3228 2886 
Q 3006 2619 2597 2516 
z
" id="DejaVuSans-33" transform="scale(0.015625)"/>
       </defs>
       <use xlink:href="#DejaVuSans-32"/>
       <use x="63.623047" xlink:href="#DejaVuSans-30"/>
       <use x="127.246094" xlink:href="#DejaVuSans-32"/>
       <use x="190.869141" xlink:href="#DejaVuSans-31"/>
       <use x="254.492188" xlink:href="#DejaVuSans-2d"/>
       <use x="290.576172" xlink:href="#DejaVuSans-30"/>
       <use x="354.199219" xlink:href="#DejaVuSans-33"/>
       <use x="417.822266" xlink:href="#DejaVuSans-2d"/>
       <use x="453.90625" xlink:href="#DejaVuSans-30"/>
       <use x="517.529297" xlink:href="#DejaVuSans-31"/>
      </g>
     </g>
    </g>
    <g id="xtick_5">
     <g id="line2d_9">
      <path clip-path="url(#pbb5c39ad11)" d="M 209.256399 276.48 
L 209.256399 41.472 
" style="fill:none;stroke:#b0b0b0;stroke-linecap:square;stroke-width:0.8;"/>
     </g>
     <g id="line2d_10">
      <g>
       <use style="stroke:#000000;stroke-width:0.8;" x="209.256399" xlink:href="#mb93b712e77" y="276.48"/>
      </g>
     </g>
     <g id="text_5">
      <!-- 2021-03-15 -->
      <g transform="translate(157.886947 319.118252)rotate(-30)scale(0.1 -0.1)">
       <use xlink:href="#DejaVuSans-32"/>
       <use x="63.623047" xlink:href="#DejaVuSans-30"/>
       <use x="127.246094" xlink:href="#DejaVuSans-32"/>
       <use x="190.869141" xlink:href="#DejaVuSans-31"/>
       <use x="254.492188" xlink:href="#DejaVuSans-2d"/>
       <use x="290.576172" xlink:href="#DejaVuSans-30"/>
       <use x="354.199219" xlink:href="#DejaVuSans-33"/>
       <use x="417.822266" xlink:href="#DejaVuSans-2d"/>
       <use x="453.90625" xlink:href="#DejaVuSans-31"/>
       <use x="517.529297" xlink:href="#DejaVuSans-35"/>
      </g>
     </g>
    </g>
    <g id="xtick_6">
     <g id="line2d_11">
      <path clip-path="url(#pbb5c39ad11)" d="M 252.728356 276.48 
L 252.728356 41.472 
" style="fill:none;stroke:#b0b0b0;stroke-linecap:square;stroke-width:0.8;"/>
     </g>
     <g id="line2d_12">
      <g>
       <use style="stroke:#000000;stroke-width:0.8;" x="252.728356" xlink:href="#mb93b712e77" y="276.48"/>
      </g>
     </g>
     <g id="text_6">
      <!-- 2021-04-01 -->
      <g transform="translate(201.358905 319.118252)rotate(-30)scale(0.1 -0.1)">
       <defs>
        <path d="M 2419 4116 
L 825 1625 
L 2419 1625 
L 2419 4116 
z
M 2253 4666 
L 3047 4666 
L 3047 1625 
L 3713 1625 
L 3713 1100 
L 3047 1100 
L 3047 0 
L 2419 0 
L 2419 1100 
L 313 1100 
L 313 1709 
L 2253 4666 
z
" id="DejaVuSans-34" transform="scale(0.015625)"/>
       </defs>
       <use xlink:href="#DejaVuSans-32"/>
       <use x="63.623047" xlink:href="#DejaVuSans-30"/>
       <use x="127.246094" xlink:href="#DejaVuSans-32"/>
       <use x="190.869141" xlink:href="#DejaVuSans-31"/>
       <use x="254.492188" xlink:href="#DejaVuSans-2d"/>
       <use x="290.576172" xlink:href="#DejaVuSans-30"/>
       <use x="354.199219" xlink:href="#DejaVuSans-34"/>
       <use x="417.822266" xlink:href="#DejaVuSans-2d"/>
       <use x="453.90625" xlink:href="#DejaVuSans-30"/>
       <use x="517.529297" xlink:href="#DejaVuSans-31"/>
      </g>
     </g>
    </g>
    <g id="xtick_7">
     <g id="line2d_13">
      <path clip-path="url(#pbb5c39ad11)" d="M 288.528792 276.48 
L 288.528792 41.472 
" style="fill:none;stroke:#b0b0b0;stroke-linecap:square;stroke-width:0.8;"/>
     </g>
     <g id="line2d_14">
      <g>
       <use style="stroke:#000000;stroke-width:0.8;" x="288.528792" xlink:href="#mb93b712e77" y="276.48"/>
      </g>
     </g>
     <g id="text_7">
      <!-- 2021-04-15 -->
      <g transform="translate(237.159341 319.118252)rotate(-30)scale(0.1 -0.1)">
       <use xlink:href="#DejaVuSans-32"/>
       <use x="63.623047" xlink:href="#DejaVuSans-30"/>
       <use x="127.246094" xlink:href="#DejaVuSans-32"/>
       <use x="190.869141" xlink:href="#DejaVuSans-31"/>
       <use x="254.492188" xlink:href="#DejaVuSans-2d"/>
       <use x="290.576172" xlink:href="#DejaVuSans-30"/>
       <use x="354.199219" xlink:href="#DejaVuSans-34"/>
       <use x="417.822266" xlink:href="#DejaVuSans-2d"/>
       <use x="453.90625" xlink:href="#DejaVuSans-31"/>
       <use x="517.529297" xlink:href="#DejaVuSans-35"/>
      </g>
     </g>
    </g>
    <g id="xtick_8">
     <g id="line2d_15">
      <path clip-path="url(#pbb5c39ad11)" d="M 329.443575 276.48 
L 329.443575 41.472 
" style="fill:none;stroke:#b0b0b0;stroke-linecap:square;stroke-width:0.8;"/>
     </g>
     <g id="line2d_16">
      <g>
       <use style="stroke:#000000;stroke-width:0.8;" x="329.443575" xlink:href="#mb93b712e77" y="276.48"/>
      </g>
     </g>
     <g id="text_8">
      <!-- 2021-05-01 -->
      <g transform="translate(278.074124 319.118252)rotate(-30)scale(0.1 -0.1)">
       <use xlink:href="#DejaVuSans-32"/>
       <use x="63.623047" xlink:href="#DejaVuSans-30"/>
       <use x="127.246094" xlink:href="#DejaVuSans-32"/>
       <use x="190.869141" xlink:href="#DejaVuSans-31"/>
       <use x="254.492188" xlink:href="#DejaVuSans-2d"/>
       <use x="290.576172" xlink:href="#DejaVuSans-30"/>
       <use x="354.199219" xlink:href="#DejaVuSans-35"/>
       <use x="417.822266" xlink:href="#DejaVuSans-2d"/>
       <use x="453.90625" xlink:href="#DejaVuSans-30"/>
       <use x="517.529297" xlink:href="#DejaVuSans-31"/>
      </g>
     </g>
    </g>
    <g id="xtick_9">
     <g id="line2d_17">
      <path clip-path="url(#pbb5c39ad11)" d="M 365.244011 276.48 
L 365.244011 41.472 
" style="fill:none;stroke:#b0b0b0;stroke-linecap:square;stroke-width:0.8;"/>
     </g>
     <g id="line2d_18">
      <g>
       <use style="stroke:#000000;stroke-width:0.8;" x="365.244011" xlink:href="#mb93b712e77" y="276.48"/>
      </g>
     </g>
     <g id="text_9">
      <!-- 2021-05-15 -->
      <g transform="translate(313.87456 319.118252)rotate(-30)scale(0.1 -0.1)">
       <use xlink:href="#DejaVuSans-32"/>
       <use x="63.623047" xlink:href="#DejaVuSans-30"/>
       <use x="127.246094" xlink:href="#DejaVuSans-32"/>
       <use x="190.869141" xlink:href="#DejaVuSans-31"/>
       <use x="254.492188" xlink:href="#DejaVuSans-2d"/>
       <use x="290.576172" xlink:href="#DejaVuSans-30"/>
       <use x="354.199219" xlink:href="#DejaVuSans-35"/>
       <use x="417.822266" xlink:href="#DejaVuSans-2d"/>
       <use x="453.90625" xlink:href="#DejaVuSans-31"/>
       <use x="517.529297" xlink:href="#DejaVuSans-35"/>
      </g>
     </g>
    </g>
    <g id="xtick_10">
     <g id="line2d_19">
      <path clip-path="url(#pbb5c39ad11)" d="M 408.715969 276.48 
L 408.715969 41.472 
" style="fill:none;stroke:#b0b0b0;stroke-linecap:square;stroke-width:0.8;"/>
     </g>
     <g id="line2d_20">
      <g>
       <use style="stroke:#000000;stroke-width:0.8;" x="408.715969" xlink:href="#mb93b712e77" y="276.48"/>
      </g>
     </g>
     <g id="text_10">
      <!-- 2021-06-01 -->
      <g transform="translate(357.346517 319.118252)rotate(-30)scale(0.1 -0.1)">
       <defs>
        <path d="M 2113 2584 
Q 1688 2584 1439 2293 
Q 1191 2003 1191 1497 
Q 1191 994 1439 701 
Q 1688 409 2113 409 
Q 2538 409 2786 701 
Q 3034 994 3034 1497 
Q 3034 2003 2786 2293 
Q 2538 2584 2113 2584 
z
M 3366 4563 
L 3366 3988 
Q 3128 4100 2886 4159 
Q 2644 4219 2406 4219 
Q 1781 4219 1451 3797 
Q 1122 3375 1075 2522 
Q 1259 2794 1537 2939 
Q 1816 3084 2150 3084 
Q 2853 3084 3261 2657 
Q 3669 2231 3669 1497 
Q 3669 778 3244 343 
Q 2819 -91 2113 -91 
Q 1303 -91 875 529 
Q 447 1150 447 2328 
Q 447 3434 972 4092 
Q 1497 4750 2381 4750 
Q 2619 4750 2861 4703 
Q 3103 4656 3366 4563 
z
" id="DejaVuSans-36" transform="scale(0.015625)"/>
       </defs>
       <use xlink:href="#DejaVuSans-32"/>
       <use x="63.623047" xlink:href="#DejaVuSans-30"/>
       <use x="127.246094" xlink:href="#DejaVuSans-32"/>
       <use x="190.869141" xlink:href="#DejaVuSans-31"/>
       <use x="254.492188" xlink:href="#DejaVuSans-2d"/>
       <use x="290.576172" xlink:href="#DejaVuSans-30"/>
       <use x="354.199219" xlink:href="#DejaVuSans-36"/>
       <use x="417.822266" xlink:href="#DejaVuSans-2d"/>
       <use x="453.90625" xlink:href="#DejaVuSans-30"/>
       <use x="517.529297" xlink:href="#DejaVuSans-31"/>
      </g>
     </g>
    </g>
    <g id="text_11">
     <!-- Date -->
     <g transform="translate(224.209219 332.517752)scale(0.1 -0.1)">
      <defs>
       <path d="M 1259 4147 
L 1259 519 
L 2022 519 
Q 2988 519 3436 956 
Q 3884 1394 3884 2338 
Q 3884 3275 3436 3711 
Q 2988 4147 2022 4147 
L 1259 4147 
z
M 628 4666 
L 1925 4666 
Q 3281 4666 3915 4102 
Q 4550 3538 4550 2338 
Q 4550 1131 3912 565 
Q 3275 0 1925 0 
L 628 0 
L 628 4666 
z
" id="DejaVuSans-44" transform="scale(0.015625)"/>
       <path d="M 2194 1759 
Q 1497 1759 1228 1600 
Q 959 1441 959 1056 
Q 959 750 1161 570 
Q 1363 391 1709 391 
Q 2188 391 2477 730 
Q 2766 1069 2766 1631 
L 2766 1759 
L 2194 1759 
z
M 3341 1997 
L 3341 0 
L 2766 0 
L 2766 531 
Q 2569 213 2275 61 
Q 1981 -91 1556 -91 
Q 1019 -91 701 211 
Q 384 513 384 1019 
Q 384 1609 779 1909 
Q 1175 2209 1959 2209 
L 2766 2209 
L 2766 2266 
Q 2766 2663 2505 2880 
Q 2244 3097 1772 3097 
Q 1472 3097 1187 3025 
Q 903 2953 641 2809 
L 641 3341 
Q 956 3463 1253 3523 
Q 1550 3584 1831 3584 
Q 2591 3584 2966 3190 
Q 3341 2797 3341 1997 
z
" id="DejaVuSans-61" transform="scale(0.015625)"/>
       <path d="M 1172 4494 
L 1172 3500 
L 2356 3500 
L 2356 3053 
L 1172 3053 
L 1172 1153 
Q 1172 725 1289 603 
Q 1406 481 1766 481 
L 2356 481 
L 2356 0 
L 1766 0 
Q 1100 0 847 248 
Q 594 497 594 1153 
L 594 3053 
L 172 3053 
L 172 3500 
L 594 3500 
L 594 4494 
L 1172 4494 
z
" id="DejaVuSans-74" transform="scale(0.015625)"/>
       <path d="M 3597 1894 
L 3597 1613 
L 953 1613 
Q 991 1019 1311 708 
Q 1631 397 2203 397 
Q 2534 397 2845 478 
Q 3156 559 3463 722 
L 3463 178 
Q 3153 47 2828 -22 
Q 2503 -91 2169 -91 
Q 1331 -91 842 396 
Q 353 884 353 1716 
Q 353 2575 817 3079 
Q 1281 3584 2069 3584 
Q 2775 3584 3186 3129 
Q 3597 2675 3597 1894 
z
M 3022 2063 
Q 3016 2534 2758 2815 
Q 2500 3097 2075 3097 
Q 1594 3097 1305 2825 
Q 1016 2553 972 2059 
L 3022 2063 
z
" id="DejaVuSans-65" transform="scale(0.015625)"/>
      </defs>
      <use xlink:href="#DejaVuSans-44"/>
      <use x="77.001953" xlink:href="#DejaVuSans-61"/>
      <use x="138.28125" xlink:href="#DejaVuSans-74"/>
      <use x="177.490234" xlink:href="#DejaVuSans-65"/>
     </g>
    </g>
   </g>
   <g id="matplotlib.axis_2">
    <g id="ytick_1">
     <g id="line2d_21">
      <path clip-path="url(#pbb5c39ad11)" d="M 57.6 241.261506 
L 414.72 241.261506 
" style="fill:none;stroke:#b0b0b0;stroke-linecap:square;stroke-width:0.8;"/>
     </g>
     <g id="line2d_22">
      <defs>
       <path d="M 0 0 
L -3.5 0 
" id="mea81c6c9ee" style="stroke:#000000;stroke-width:0.8;"/>
      </defs>
      <g>
       <use style="stroke:#000000;stroke-width:0.8;" x="57.6" xlink:href="#mea81c6c9ee" y="241.261506"/>
      </g>
     </g>
     <g id="text_12">
      <!-- 1900 -->
      <g transform="translate(25.15 245.060724)scale(0.1 -0.1)">
       <defs>
        <path d="M 703 97 
L 703 672 
Q 941 559 1184 500 
Q 1428 441 1663 441 
Q 2288 441 2617 861 
Q 2947 1281 2994 2138 
Q 2813 1869 2534 1725 
Q 2256 1581 1919 1581 
Q 1219 1581 811 2004 
Q 403 2428 403 3163 
Q 403 3881 828 4315 
Q 1253 4750 1959 4750 
Q 2769 4750 3195 4129 
Q 3622 3509 3622 2328 
Q 3622 1225 3098 567 
Q 2575 -91 1691 -91 
Q 1453 -91 1209 -44 
Q 966 3 703 97 
z
M 1959 2075 
Q 2384 2075 2632 2365 
Q 2881 2656 2881 3163 
Q 2881 3666 2632 3958 
Q 2384 4250 1959 4250 
Q 1534 4250 1286 3958 
Q 1038 3666 1038 3163 
Q 1038 2656 1286 2365 
Q 1534 2075 1959 2075 
z
" id="DejaVuSans-39" transform="scale(0.015625)"/>
       </defs>
       <use xlink:href="#DejaVuSans-31"/>
       <use x="63.623047" xlink:href="#DejaVuSans-39"/>
       <use x="127.246094" xlink:href="#DejaVuSans-30"/>
       <use x="190.869141" xlink:href="#DejaVuSans-30"/>
      </g>
     </g>
    </g>
    <g id="ytick_2">
     <g id="line2d_23">
      <path clip-path="url(#pbb5c39ad11)" d="M 57.6 205.789028 
L 414.72 205.789028 
" style="fill:none;stroke:#b0b0b0;stroke-linecap:square;stroke-width:0.8;"/>
     </g>
     <g id="line2d_24">
      <g>
       <use style="stroke:#000000;stroke-width:0.8;" x="57.6" xlink:href="#mea81c6c9ee" y="205.789028"/>
      </g>
     </g>
     <g id="text_13">
      <!-- 2000 -->
      <g transform="translate(25.15 209.588247)scale(0.1 -0.1)">
       <use xlink:href="#DejaVuSans-32"/>
       <use x="63.623047" xlink:href="#DejaVuSans-30"/>
       <use x="127.246094" xlink:href="#DejaVuSans-30"/>
       <use x="190.869141" xlink:href="#DejaVuSans-30"/>
      </g>
     </g>
    </g>
    <g id="ytick_3">
     <g id="line2d_25">
      <path clip-path="url(#pbb5c39ad11)" d="M 57.6 170.316551 
L 414.72 170.316551 
" style="fill:none;stroke:#b0b0b0;stroke-linecap:square;stroke-width:0.8;"/>
     </g>
     <g id="line2d_26">
      <g>
       <use style="stroke:#000000;stroke-width:0.8;" x="57.6" xlink:href="#mea81c6c9ee" y="170.316551"/>
      </g>
     </g>
     <g id="text_14">
      <!-- 2100 -->
      <g transform="translate(25.15 174.11577)scale(0.1 -0.1)">
       <use xlink:href="#DejaVuSans-32"/>
       <use x="63.623047" xlink:href="#DejaVuSans-31"/>
       <use x="127.246094" xlink:href="#DejaVuSans-30"/>
       <use x="190.869141" xlink:href="#DejaVuSans-30"/>
      </g>
     </g>
    </g>
    <g id="ytick_4">
     <g id="line2d_27">
      <path clip-path="url(#pbb5c39ad11)" d="M 57.6 134.844074 
L 414.72 134.844074 
" style="fill:none;stroke:#b0b0b0;stroke-linecap:square;stroke-width:0.8;"/>
     </g>
     <g id="line2d_28">
      <g>
       <use style="stroke:#000000;stroke-width:0.8;" x="57.6" xlink:href="#mea81c6c9ee" y="134.844074"/>
      </g>
     </g>
     <g id="text_15">
      <!-- 2200 -->
      <g transform="translate(25.15 138.643292)scale(0.1 -0.1)">
       <use xlink:href="#DejaVuSans-32"/>
       <use x="63.623047" xlink:href="#DejaVuSans-32"/>
       <use x="127.246094" xlink:href="#DejaVuSans-30"/>
       <use x="190.869141" xlink:href="#DejaVuSans-30"/>
      </g>
     </g>
    </g>
    <g id="ytick_5">
     <g id="line2d_29">
      <path clip-path="url(#pbb5c39ad11)" d="M 57.6 99.371596 
L 414.72 99.371596 
" style="fill:none;stroke:#b0b0b0;stroke-linecap:square;stroke-width:0.8;"/>
     </g>
     <g id="line2d_30">
      <g>
       <use style="stroke:#000000;stroke-width:0.8;" x="57.6" xlink:href="#mea81c6c9ee" y="99.371596"/>
      </g>
     </g>
     <g id="text_16">
      <!-- 2300 -->
      <g transform="translate(25.15 103.170815)scale(0.1 -0.1)">
       <use xlink:href="#DejaVuSans-32"/>
       <use x="63.623047" xlink:href="#DejaVuSans-33"/>
       <use x="127.246094" xlink:href="#DejaVuSans-30"/>
       <use x="190.869141" xlink:href="#DejaVuSans-30"/>
      </g>
     </g>
    </g>
    <g id="ytick_6">
     <g id="line2d_31">
      <path clip-path="url(#pbb5c39ad11)" d="M 57.6 63.899119 
L 414.72 63.899119 
" style="fill:none;stroke:#b0b0b0;stroke-linecap:square;stroke-width:0.8;"/>
     </g>
     <g id="line2d_32">
      <g>
       <use style="stroke:#000000;stroke-width:0.8;" x="57.6" xlink:href="#mea81c6c9ee" y="63.899119"/>
      </g>
     </g>
     <g id="text_17">
      <!-- 2400 -->
      <g transform="translate(25.15 67.698338)scale(0.1 -0.1)">
       <use xlink:href="#DejaVuSans-32"/>
       <use x="63.623047" xlink:href="#DejaVuSans-34"/>
       <use x="127.246094" xlink:href="#DejaVuSans-30"/>
       <use x="190.869141" xlink:href="#DejaVuSans-30"/>
      </g>
     </g>
    </g>
    <g id="text_18">
     <!-- Price [USD] -->
     <g transform="translate(19.070312 187.347875)rotate(-90)scale(0.1 -0.1)">
      <defs>
       <path d="M 1259 4147 
L 1259 2394 
L 2053 2394 
Q 2494 2394 2734 2622 
Q 2975 2850 2975 3272 
Q 2975 3691 2734 3919 
Q 2494 4147 2053 4147 
L 1259 4147 
z
M 628 4666 
L 2053 4666 
Q 2838 4666 3239 4311 
Q 3641 3956 3641 3272 
Q 3641 2581 3239 2228 
Q 2838 1875 2053 1875 
L 1259 1875 
L 1259 0 
L 628 0 
L 628 4666 
z
" id="DejaVuSans-50" transform="scale(0.015625)"/>
       <path d="M 2631 2963 
Q 2534 3019 2420 3045 
Q 2306 3072 2169 3072 
Q 1681 3072 1420 2755 
Q 1159 2438 1159 1844 
L 1159 0 
L 581 0 
L 581 3500 
L 1159 3500 
L 1159 2956 
Q 1341 3275 1631 3429 
Q 1922 3584 2338 3584 
Q 2397 3584 2469 3576 
Q 2541 3569 2628 3553 
L 2631 2963 
z
" id="DejaVuSans-72" transform="scale(0.015625)"/>
       <path d="M 603 3500 
L 1178 3500 
L 1178 0 
L 603 0 
L 603 3500 
z
M 603 4863 
L 1178 4863 
L 1178 4134 
L 603 4134 
L 603 4863 
z
" id="DejaVuSans-69" transform="scale(0.015625)"/>
       <path d="M 3122 3366 
L 3122 2828 
Q 2878 2963 2633 3030 
Q 2388 3097 2138 3097 
Q 1578 3097 1268 2742 
Q 959 2388 959 1747 
Q 959 1106 1268 751 
Q 1578 397 2138 397 
Q 2388 397 2633 464 
Q 2878 531 3122 666 
L 3122 134 
Q 2881 22 2623 -34 
Q 2366 -91 2075 -91 
Q 1284 -91 818 406 
Q 353 903 353 1747 
Q 353 2603 823 3093 
Q 1294 3584 2113 3584 
Q 2378 3584 2631 3529 
Q 2884 3475 3122 3366 
z
" id="DejaVuSans-63" transform="scale(0.015625)"/>
       <path id="DejaVuSans-20" transform="scale(0.015625)"/>
       <path d="M 550 4863 
L 1875 4863 
L 1875 4416 
L 1125 4416 
L 1125 -397 
L 1875 -397 
L 1875 -844 
L 550 -844 
L 550 4863 
z
" id="DejaVuSans-5b" transform="scale(0.015625)"/>
       <path d="M 556 4666 
L 1191 4666 
L 1191 1831 
Q 1191 1081 1462 751 
Q 1734 422 2344 422 
Q 2950 422 3222 751 
Q 3494 1081 3494 1831 
L 3494 4666 
L 4128 4666 
L 4128 1753 
Q 4128 841 3676 375 
Q 3225 -91 2344 -91 
Q 1459 -91 1007 375 
Q 556 841 556 1753 
L 556 4666 
z
" id="DejaVuSans-55" transform="scale(0.015625)"/>
       <path d="M 3425 4513 
L 3425 3897 
Q 3066 4069 2747 4153 
Q 2428 4238 2131 4238 
Q 1616 4238 1336 4038 
Q 1056 3838 1056 3469 
Q 1056 3159 1242 3001 
Q 1428 2844 1947 2747 
L 2328 2669 
Q 3034 2534 3370 2195 
Q 3706 1856 3706 1288 
Q 3706 609 3251 259 
Q 2797 -91 1919 -91 
Q 1588 -91 1214 -16 
Q 841 59 441 206 
L 441 856 
Q 825 641 1194 531 
Q 1563 422 1919 422 
Q 2459 422 2753 634 
Q 3047 847 3047 1241 
Q 3047 1584 2836 1778 
Q 2625 1972 2144 2069 
L 1759 2144 
Q 1053 2284 737 2584 
Q 422 2884 422 3419 
Q 422 4038 858 4394 
Q 1294 4750 2059 4750 
Q 2388 4750 2728 4690 
Q 3069 4631 3425 4513 
z
" id="DejaVuSans-53" transform="scale(0.015625)"/>
       <path d="M 1947 4863 
L 1947 -844 
L 622 -844 
L 622 -397 
L 1369 -397 
L 1369 4416 
L 622 4416 
L 622 4863 
L 1947 4863 
z
" id="DejaVuSans-5d" transform="scale(0.015625)"/>
      </defs>
      <use xlink:href="#DejaVuSans-50"/>
      <use x="58.552734" xlink:href="#DejaVuSans-72"/>
      <use x="99.666016" xlink:href="#DejaVuSans-69"/>
      <use x="127.449219" xlink:href="#DejaVuSans-63"/>
      <use x="182.429688" xlink:href="#DejaVuSans-65"/>
      <use x="243.953125" xlink:href="#DejaVuSans-20"/>
      <use x="275.740234" xlink:href="#DejaVuSans-5b"/>
      <use x="314.753906" xlink:href="#DejaVuSans-55"/>
      <use x="387.947266" xlink:href="#DejaVuSans-53"/>
      <use x="451.423828" xlink:href="#DejaVuSans-44"/>
      <use x="528.425781" xlink:href="#DejaVuSans-5d"/>
     </g>
    </g>
   </g>
   <g id="line2d_33">
    <path clip-path="url(#pbb5c39ad11)" d="M 73.832727 243.897111 
L 76.389901 241.201202 
L 84.061423 241.506266 
L 86.618597 234.929668 
L 89.175771 265.797818 
L 91.732945 254.670102 
L 94.290119 265.116747 
L 101.961641 241.045124 
L 104.518815 231.435629 
L 107.075989 181.614535 
L 109.633163 183.086643 
L 112.190337 170.852185 
L 119.861859 172.749963 
L 122.419033 176.162415 
L 124.976207 171.955379 
L 127.533381 171.884434 
L 130.090555 168.741573 
L 140.319251 162.5197 
L 142.876425 160.228178 
L 145.433598 164.555821 
L 147.990772 169.858956 
L 155.662294 183.097285 
L 158.219468 180.475868 
L 160.776642 172.079533 
L 163.333816 194.671954 
L 165.89099 193.848992 
L 173.562512 176.875412 
L 176.119686 178.613563 
L 178.67686 196.637129 
L 181.234034 188.208869 
L 183.791208 167.769627 
L 191.46273 197.493789 
L 194.019904 187.095033 
L 196.577078 186.442339 
L 199.134252 165.077266 
L 201.691426 183.973455 
L 209.256399 182.185642 
L 211.813573 172.781888 
L 214.370747 173.143707 
L 216.927921 192.944444 
L 219.485095 191.195651 
L 227.156617 192.100199 
L 229.713791 186.836084 
L 232.270965 189.886717 
L 234.828139 190.053437 
L 237.385313 192.987011 
L 245.056834 185.651303 
L 247.614008 185.704512 
L 250.171182 180.954747 
L 252.728356 157.188187 
L 262.957052 125.365828 
L 265.514226 126.107203 
L 268.0714 117.185874 
L 270.628574 111.435786 
L 273.185748 104.383857 
L 280.85727 115.369684 
L 283.414444 111.070419 
L 285.971618 115.52931 
L 288.528792 100.943027 
L 291.085966 100.183916 
L 298.757488 97.995264 
L 301.314662 101.91852 
L 303.871836 101.620551 
L 306.42901 110.751167 
L 308.986184 93.944307 
L 316.657706 89.013633 
L 319.21488 96.6278 
L 321.772054 70.897839 
L 324.329228 53.296396 
L 326.886402 60.738521 
L 334.557923 64.991671 
L 337.115097 80.127777 
L 339.672271 79.14519 
L 342.229445 70.794969 
L 344.786619 64.597927 
L 352.458141 84.611499 
L 355.015315 96.161337 
L 357.572489 120.655083 
L 360.129663 112.929177 
L 362.686837 94.072008 
L 370.358359 91.720183 
L 372.915533 98.15489 
L 375.472707 96.281944 
L 378.029881 79.475084 
L 380.587055 83.373509 
L 388.258577 61.50118 
L 390.815751 60.319946 
L 393.372925 52.154182 
L 395.930099 59.997147 
L 398.487273 59.706272 
" style="fill:none;stroke:#1f77b4;stroke-linecap:square;stroke-width:1.5;"/>
   </g>
   <g id="line2d_34">
    <path clip-path="url(#pbb5c39ad11)" d="M 73.832727 245.905562 
L 76.389901 245.670344 
L 84.061423 245.46214 
L 86.618597 244.935517 
L 89.175771 245.978632 
L 91.732945 246.413205 
L 94.290119 247.348382 
L 101.961641 247.03322 
L 104.518815 246.25334 
L 107.075989 243.0214 
L 109.633163 240.024662 
L 112.190337 236.566038 
L 119.861859 233.375234 
L 122.419033 230.514593 
L 124.976207 227.586633 
L 127.533381 224.801523 
L 130.090555 221.998525 
L 140.319251 219.024584 
L 142.876425 216.084764 
L 145.433598 213.508317 
L 147.990772 211.325849 
L 155.662294 209.91442 
L 158.219468 208.442493 
L 160.776642 206.624345 
L 163.333816 206.026725 
L 165.89099 205.417839 
L 173.562512 203.990717 
L 176.119686 202.72186 
L 178.67686 202.417623 
L 181.234034 201.707185 
L 183.791208 200.010307 
L 191.46273 199.884482 
L 194.019904 199.245009 
L 196.577078 198.604876 
L 199.134252 196.928495 
L 201.691426 196.280743 
L 209.256399 195.575988 
L 211.813573 194.436283 
L 214.370747 193.371654 
L 216.927921 193.350294 
L 219.485095 193.242562 
L 227.156617 193.185444 
L 229.713791 192.867976 
L 232.270965 192.718913 
L 234.828139 192.585639 
L 237.385313 192.605707 
L 245.056834 192.257987 
L 247.614008 191.930313 
L 250.171182 191.381535 
L 252.728356 189.671868 
L 262.957052 186.456566 
L 265.514226 183.439098 
L 268.0714 180.126436 
L 270.628574 176.691904 
L 273.185748 173.076502 
L 280.85727 170.191161 
L 283.414444 167.235124 
L 285.971618 164.649833 
L 288.528792 161.464493 
L 291.085966 158.400464 
L 298.757488 155.380204 
L 301.314662 152.70712 
L 303.871836 150.152791 
L 306.42901 148.18271 
L 308.986184 145.47079 
L 316.657706 142.647932 
L 319.21488 140.346925 
L 321.772054 136.874471 
L 324.329228 132.695567 
L 326.886402 129.097715 
L 334.557923 125.892413 
L 337.115097 123.604181 
L 339.672271 121.381232 
L 342.229445 118.851918 
L 344.786619 116.139219 
L 352.458141 114.562833 
L 355.015315 113.642758 
L 357.572489 113.993374 
L 360.129663 113.940164 
L 362.686837 112.946757 
L 370.358359 111.885428 
L 372.915533 111.198901 
L 375.472707 110.453053 
L 378.029881 108.904155 
L 380.587055 107.627622 
L 388.258577 105.3213 
L 390.815751 103.071233 
L 393.372925 100.52538 
L 395.930099 98.498968 
L 398.487273 96.559334 
" style="fill:none;stroke:#ff7f0e;stroke-linecap:square;stroke-width:1.5;"/>
   </g>
   <g id="line2d_35">
    <path clip-path="url(#pbb5c39ad11)" d="M 73.832727 245.626878 
L 76.389901 244.822209 
L 84.061423 244.219311 
L 86.618597 242.530285 
L 89.175771 246.760745 
L 91.732945 248.19881 
L 94.290119 251.274799 
L 101.961641 249.414858 
L 104.518815 246.145907 
L 107.075989 234.41293 
L 109.633163 225.080878 
L 112.190337 215.221116 
L 119.861859 207.499088 
L 122.419033 201.801511 
L 124.976207 196.374942 
L 127.533381 191.922122 
L 130.090555 187.707477 
L 140.319251 183.127881 
L 142.876425 178.964299 
L 145.433598 176.344576 
L 147.990772 175.165372 
L 155.662294 176.607538 
L 158.219468 177.310871 
L 160.776642 176.359718 
L 163.333816 179.689216 
L 165.89099 182.263721 
L 173.562512 181.284028 
L 176.119686 180.798489 
L 178.67686 183.678242 
L 181.234034 184.501992 
L 183.791208 181.459744 
L 191.46273 184.375025 
L 194.019904 184.869572 
L 196.577078 185.15553 
L 199.134252 181.504936 
L 201.691426 181.953758 
L 209.256399 181.995919 
L 211.813573 180.32064 
L 214.370747 179.015743 
L 216.927921 181.548234 
L 219.485095 183.30231 
L 227.156617 184.901926 
L 229.713791 185.253591 
L 232.270965 186.095978 
L 234.828139 186.815516 
L 237.385313 187.937606 
L 245.056834 187.521915 
L 247.614008 187.191478 
L 250.171182 186.057527 
L 252.728356 180.808556 
L 262.957052 170.72806 
L 265.514226 162.615177 
L 268.0714 154.355304 
L 270.628574 146.551755 
L 273.185748 138.884864 
L 280.85727 134.609377 
L 283.414444 130.329567 
L 285.971618 127.638611 
L 288.528792 122.784868 
L 291.085966 118.675604 
L 298.757488 114.915542 
L 301.314662 112.552447 
L 303.871836 110.56483 
L 306.42901 110.598709 
L 308.986184 107.570636 
L 316.657706 104.196636 
L 319.21488 102.820484 
L 321.772054 97.016367 
L 324.329228 89.067281 
L 326.886402 83.916597 
L 334.557923 80.475702 
L 337.115097 80.412443 
L 339.672271 80.182033 
L 342.229445 78.475294 
L 344.786619 75.952136 
L 352.458141 77.526566 
L 355.015315 80.914706 
L 357.572489 88.140229 
L 360.129663 92.647311 
L 362.686837 92.906347 
L 370.358359 92.69068 
L 372.915533 93.684173 
L 375.472707 94.156495 
L 378.029881 91.487148 
L 380.587055 90.011941 
L 388.258577 84.828166 
L 390.815751 80.372126 
L 393.372925 75.241591 
L 395.930099 72.469874 
L 398.487273 70.149219 
" style="fill:none;stroke:#2ca02c;stroke-linecap:square;stroke-width:1.5;"/>
   </g>
   <g id="patch_3">
    <path d="M 57.6 276.48 
L 57.6 41.472 
" style="fill:none;stroke:#000000;stroke-linecap:square;stroke-linejoin:miter;stroke-width:0.8;"/>
   </g>
   <g id="patch_4">
    <path d="M 414.72 276.48 
L 414.72 41.472 
" style="fill:none;stroke:#000000;stroke-linecap:square;stroke-linejoin:miter;stroke-width:0.8;"/>
   </g>
   <g id="patch_5">
    <path d="M 57.6 276.48 
L 414.72 276.48 
" style="fill:none;stroke:#000000;stroke-linecap:square;stroke-linejoin:miter;stroke-width:0.8;"/>
   </g>
   <g id="patch_6">
    <path d="M 57.6 41.472 
L 414.72 41.472 
" style="fill:none;stroke:#000000;stroke-linecap:square;stroke-linejoin:miter;stroke-width:0.8;"/>
   </g>
   <g id="text_19">
    <!-- Historical Data of GOOG over last 90 days -->
    <g transform="translate(109.853437 35.472)scale(0.12 -0.12)">
     <defs>
      <path d="M 628 4666 
L 1259 4666 
L 1259 2753 
L 3553 2753 
L 3553 4666 
L 4184 4666 
L 4184 0 
L 3553 0 
L 3553 2222 
L 1259 2222 
L 1259 0 
L 628 0 
L 628 4666 
z
" id="DejaVuSans-48" transform="scale(0.015625)"/>
      <path d="M 2834 3397 
L 2834 2853 
Q 2591 2978 2328 3040 
Q 2066 3103 1784 3103 
Q 1356 3103 1142 2972 
Q 928 2841 928 2578 
Q 928 2378 1081 2264 
Q 1234 2150 1697 2047 
L 1894 2003 
Q 2506 1872 2764 1633 
Q 3022 1394 3022 966 
Q 3022 478 2636 193 
Q 2250 -91 1575 -91 
Q 1294 -91 989 -36 
Q 684 19 347 128 
L 347 722 
Q 666 556 975 473 
Q 1284 391 1588 391 
Q 1994 391 2212 530 
Q 2431 669 2431 922 
Q 2431 1156 2273 1281 
Q 2116 1406 1581 1522 
L 1381 1569 
Q 847 1681 609 1914 
Q 372 2147 372 2553 
Q 372 3047 722 3315 
Q 1072 3584 1716 3584 
Q 2034 3584 2315 3537 
Q 2597 3491 2834 3397 
z
" id="DejaVuSans-73" transform="scale(0.015625)"/>
      <path d="M 1959 3097 
Q 1497 3097 1228 2736 
Q 959 2375 959 1747 
Q 959 1119 1226 758 
Q 1494 397 1959 397 
Q 2419 397 2687 759 
Q 2956 1122 2956 1747 
Q 2956 2369 2687 2733 
Q 2419 3097 1959 3097 
z
M 1959 3584 
Q 2709 3584 3137 3096 
Q 3566 2609 3566 1747 
Q 3566 888 3137 398 
Q 2709 -91 1959 -91 
Q 1206 -91 779 398 
Q 353 888 353 1747 
Q 353 2609 779 3096 
Q 1206 3584 1959 3584 
z
" id="DejaVuSans-6f" transform="scale(0.015625)"/>
      <path d="M 603 4863 
L 1178 4863 
L 1178 0 
L 603 0 
L 603 4863 
z
" id="DejaVuSans-6c" transform="scale(0.015625)"/>
      <path d="M 2375 4863 
L 2375 4384 
L 1825 4384 
Q 1516 4384 1395 4259 
Q 1275 4134 1275 3809 
L 1275 3500 
L 2222 3500 
L 2222 3053 
L 1275 3053 
L 1275 0 
L 697 0 
L 697 3053 
L 147 3053 
L 147 3500 
L 697 3500 
L 697 3744 
Q 697 4328 969 4595 
Q 1241 4863 1831 4863 
L 2375 4863 
z
" id="DejaVuSans-66" transform="scale(0.015625)"/>
      <path d="M 3809 666 
L 3809 1919 
L 2778 1919 
L 2778 2438 
L 4434 2438 
L 4434 434 
Q 4069 175 3628 42 
Q 3188 -91 2688 -91 
Q 1594 -91 976 548 
Q 359 1188 359 2328 
Q 359 3472 976 4111 
Q 1594 4750 2688 4750 
Q 3144 4750 3555 4637 
Q 3966 4525 4313 4306 
L 4313 3634 
Q 3963 3931 3569 4081 
Q 3175 4231 2741 4231 
Q 1884 4231 1454 3753 
Q 1025 3275 1025 2328 
Q 1025 1384 1454 906 
Q 1884 428 2741 428 
Q 3075 428 3337 486 
Q 3600 544 3809 666 
z
" id="DejaVuSans-47" transform="scale(0.015625)"/>
      <path d="M 2522 4238 
Q 1834 4238 1429 3725 
Q 1025 3213 1025 2328 
Q 1025 1447 1429 934 
Q 1834 422 2522 422 
Q 3209 422 3611 934 
Q 4013 1447 4013 2328 
Q 4013 3213 3611 3725 
Q 3209 4238 2522 4238 
z
M 2522 4750 
Q 3503 4750 4090 4092 
Q 4678 3434 4678 2328 
Q 4678 1225 4090 567 
Q 3503 -91 2522 -91 
Q 1538 -91 948 565 
Q 359 1222 359 2328 
Q 359 3434 948 4092 
Q 1538 4750 2522 4750 
z
" id="DejaVuSans-4f" transform="scale(0.015625)"/>
      <path d="M 191 3500 
L 800 3500 
L 1894 563 
L 2988 3500 
L 3597 3500 
L 2284 0 
L 1503 0 
L 191 3500 
z
" id="DejaVuSans-76" transform="scale(0.015625)"/>
      <path d="M 2906 2969 
L 2906 4863 
L 3481 4863 
L 3481 0 
L 2906 0 
L 2906 525 
Q 2725 213 2448 61 
Q 2172 -91 1784 -91 
Q 1150 -91 751 415 
Q 353 922 353 1747 
Q 353 2572 751 3078 
Q 1150 3584 1784 3584 
Q 2172 3584 2448 3432 
Q 2725 3281 2906 2969 
z
M 947 1747 
Q 947 1113 1208 752 
Q 1469 391 1925 391 
Q 2381 391 2643 752 
Q 2906 1113 2906 1747 
Q 2906 2381 2643 2742 
Q 2381 3103 1925 3103 
Q 1469 3103 1208 2742 
Q 947 2381 947 1747 
z
" id="DejaVuSans-64" transform="scale(0.015625)"/>
      <path d="M 2059 -325 
Q 1816 -950 1584 -1140 
Q 1353 -1331 966 -1331 
L 506 -1331 
L 506 -850 
L 844 -850 
Q 1081 -850 1212 -737 
Q 1344 -625 1503 -206 
L 1606 56 
L 191 3500 
L 800 3500 
L 1894 763 
L 2988 3500 
L 3597 3500 
L 2059 -325 
z
" id="DejaVuSans-79" transform="scale(0.015625)"/>
     </defs>
     <use xlink:href="#DejaVuSans-48"/>
     <use x="75.195312" xlink:href="#DejaVuSans-69"/>
     <use x="102.978516" xlink:href="#DejaVuSans-73"/>
     <use x="155.078125" xlink:href="#DejaVuSans-74"/>
     <use x="194.287109" xlink:href="#DejaVuSans-6f"/>
     <use x="255.46875" xlink:href="#DejaVuSans-72"/>
     <use x="296.582031" xlink:href="#DejaVuSans-69"/>
     <use x="324.365234" xlink:href="#DejaVuSans-63"/>
     <use x="379.345703" xlink:href="#DejaVuSans-61"/>
     <use x="440.625" xlink:href="#DejaVuSans-6c"/>
     <use x="468.408203" xlink:href="#DejaVuSans-20"/>
     <use x="500.195312" xlink:href="#DejaVuSans-44"/>
     <use x="577.197266" xlink:href="#DejaVuSans-61"/>
     <use x="638.476562" xlink:href="#DejaVuSans-74"/>
     <use x="677.685547" xlink:href="#DejaVuSans-61"/>
     <use x="738.964844" xlink:href="#DejaVuSans-20"/>
     <use x="770.751953" xlink:href="#DejaVuSans-6f"/>
     <use x="831.933594" xlink:href="#DejaVuSans-66"/>
     <use x="867.138672" xlink:href="#DejaVuSans-20"/>
     <use x="898.925781" xlink:href="#DejaVuSans-47"/>
     <use x="976.416016" xlink:href="#DejaVuSans-4f"/>
     <use x="1055.126953" xlink:href="#DejaVuSans-4f"/>
     <use x="1133.837891" xlink:href="#DejaVuSans-47"/>
     <use x="1211.328125" xlink:href="#DejaVuSans-20"/>
     <use x="1243.115234" xlink:href="#DejaVuSans-6f"/>
     <use x="1304.296875" xlink:href="#DejaVuSans-76"/>
     <use x="1363.476562" xlink:href="#DejaVuSans-65"/>
     <use x="1425" xlink:href="#DejaVuSans-72"/>
     <use x="1466.113281" xlink:href="#DejaVuSans-20"/>
     <use x="1497.900391" xlink:href="#DejaVuSans-6c"/>
     <use x="1525.683594" xlink:href="#DejaVuSans-61"/>
     <use x="1586.962891" xlink:href="#DejaVuSans-73"/>
     <use x="1639.0625" xlink:href="#DejaVuSans-74"/>
     <use x="1678.271484" xlink:href="#DejaVuSans-20"/>
     <use x="1710.058594" xlink:href="#DejaVuSans-39"/>
     <use x="1773.681641" xlink:href="#DejaVuSans-30"/>
     <use x="1837.304688" xlink:href="#DejaVuSans-20"/>
     <use x="1869.091797" xlink:href="#DejaVuSans-64"/>
     <use x="1932.568359" xlink:href="#DejaVuSans-61"/>
     <use x="1993.847656" xlink:href="#DejaVuSans-79"/>
     <use x="2053.027344" xlink:href="#DejaVuSans-73"/>
    </g>
   </g>
   <g id="legend_1">
    <g id="patch_7">
     <path d="M 64.6 122.862625 
L 185.089062 122.862625 
Q 187.089062 122.862625 187.089062 120.862625 
L 187.089062 48.472 
Q 187.089062 46.472 185.089062 46.472 
L 64.6 46.472 
Q 62.6 46.472 62.6 48.472 
L 62.6 120.862625 
Q 62.6 122.862625 64.6 122.862625 
z
" style="fill:#ffffff;opacity:0.8;stroke:#cccccc;stroke-linejoin:miter;"/>
    </g>
    <g id="line2d_36">
     <path d="M 66.6 54.570437 
L 86.6 54.570437 
" style="fill:none;stroke:#1f77b4;stroke-linecap:square;stroke-width:1.5;"/>
    </g>
    <g id="line2d_37"/>
    <g id="text_20">
     <!-- Stock Price -->
     <g transform="translate(94.6 58.070437)scale(0.1 -0.1)">
      <defs>
       <path d="M 581 4863 
L 1159 4863 
L 1159 1991 
L 2875 3500 
L 3609 3500 
L 1753 1863 
L 3688 0 
L 2938 0 
L 1159 1709 
L 1159 0 
L 581 0 
L 581 4863 
z
" id="DejaVuSans-6b" transform="scale(0.015625)"/>
      </defs>
      <use xlink:href="#DejaVuSans-53"/>
      <use x="63.476562" xlink:href="#DejaVuSans-74"/>
      <use x="102.685547" xlink:href="#DejaVuSans-6f"/>
      <use x="163.867188" xlink:href="#DejaVuSans-63"/>
      <use x="218.847656" xlink:href="#DejaVuSans-6b"/>
      <use x="276.757812" xlink:href="#DejaVuSans-20"/>
      <use x="308.544922" xlink:href="#DejaVuSans-50"/>
      <use x="367.097656" xlink:href="#DejaVuSans-72"/>
      <use x="408.210938" xlink:href="#DejaVuSans-69"/>
      <use x="435.994141" xlink:href="#DejaVuSans-63"/>
      <use x="490.974609" xlink:href="#DejaVuSans-65"/>
     </g>
    </g>
    <g id="line2d_38">
     <path d="M 66.6 69.248562 
L 86.6 69.248562 
" style="fill:none;stroke:#ff7f0e;stroke-linecap:square;stroke-width:1.5;"/>
    </g>
    <g id="line2d_39"/>
    <g id="text_21">
     <!-- SMA -->
     <g transform="translate(94.6 72.748562)scale(0.1 -0.1)">
      <defs>
       <path d="M 628 4666 
L 1569 4666 
L 2759 1491 
L 3956 4666 
L 4897 4666 
L 4897 0 
L 4281 0 
L 4281 4097 
L 3078 897 
L 2444 897 
L 1241 4097 
L 1241 0 
L 628 0 
L 628 4666 
z
" id="DejaVuSans-4d" transform="scale(0.015625)"/>
       <path d="M 2188 4044 
L 1331 1722 
L 3047 1722 
L 2188 4044 
z
M 1831 4666 
L 2547 4666 
L 4325 0 
L 3669 0 
L 3244 1197 
L 1141 1197 
L 716 0 
L 50 0 
L 1831 4666 
z
" id="DejaVuSans-41" transform="scale(0.015625)"/>
      </defs>
      <use xlink:href="#DejaVuSans-53"/>
      <use x="63.476562" xlink:href="#DejaVuSans-4d"/>
      <use x="149.755859" xlink:href="#DejaVuSans-41"/>
     </g>
    </g>
    <g id="line2d_40">
     <path d="M 66.6 83.926687 
L 86.6 83.926687 
" style="fill:none;stroke:#2ca02c;stroke-linecap:square;stroke-width:1.5;"/>
    </g>
    <g id="line2d_41"/>
    <g id="text_22">
     <!-- EMA -->
     <g transform="translate(94.6 87.426687)scale(0.1 -0.1)">
      <defs>
       <path d="M 628 4666 
L 3578 4666 
L 3578 4134 
L 1259 4134 
L 1259 2753 
L 3481 2753 
L 3481 2222 
L 1259 2222 
L 1259 531 
L 3634 531 
L 3634 0 
L 628 0 
L 628 4666 
z
" id="DejaVuSans-45" transform="scale(0.015625)"/>
      </defs>
      <use xlink:href="#DejaVuSans-45"/>
      <use x="63.183594" xlink:href="#DejaVuSans-4d"/>
      <use x="149.462891" xlink:href="#DejaVuSans-41"/>
     </g>
    </g>
    <g id="PathCollection_3">
     <g>
      <use style="fill:#008000;stroke:#008000;" x="76.6" xlink:href="#m9d4b5a7db4" y="99.479812"/>
     </g>
    </g>
    <g id="text_23">
     <!-- Momentum Up -->
     <g transform="translate(94.6 102.104812)scale(0.1 -0.1)">
      <defs>
       <path d="M 3328 2828 
Q 3544 3216 3844 3400 
Q 4144 3584 4550 3584 
Q 5097 3584 5394 3201 
Q 5691 2819 5691 2113 
L 5691 0 
L 5113 0 
L 5113 2094 
Q 5113 2597 4934 2840 
Q 4756 3084 4391 3084 
Q 3944 3084 3684 2787 
Q 3425 2491 3425 1978 
L 3425 0 
L 2847 0 
L 2847 2094 
Q 2847 2600 2669 2842 
Q 2491 3084 2119 3084 
Q 1678 3084 1418 2786 
Q 1159 2488 1159 1978 
L 1159 0 
L 581 0 
L 581 3500 
L 1159 3500 
L 1159 2956 
Q 1356 3278 1631 3431 
Q 1906 3584 2284 3584 
Q 2666 3584 2933 3390 
Q 3200 3197 3328 2828 
z
" id="DejaVuSans-6d" transform="scale(0.015625)"/>
       <path d="M 3513 2113 
L 3513 0 
L 2938 0 
L 2938 2094 
Q 2938 2591 2744 2837 
Q 2550 3084 2163 3084 
Q 1697 3084 1428 2787 
Q 1159 2491 1159 1978 
L 1159 0 
L 581 0 
L 581 3500 
L 1159 3500 
L 1159 2956 
Q 1366 3272 1645 3428 
Q 1925 3584 2291 3584 
Q 2894 3584 3203 3211 
Q 3513 2838 3513 2113 
z
" id="DejaVuSans-6e" transform="scale(0.015625)"/>
       <path d="M 544 1381 
L 544 3500 
L 1119 3500 
L 1119 1403 
Q 1119 906 1312 657 
Q 1506 409 1894 409 
Q 2359 409 2629 706 
Q 2900 1003 2900 1516 
L 2900 3500 
L 3475 3500 
L 3475 0 
L 2900 0 
L 2900 538 
Q 2691 219 2414 64 
Q 2138 -91 1772 -91 
Q 1169 -91 856 284 
Q 544 659 544 1381 
z
M 1991 3584 
L 1991 3584 
z
" id="DejaVuSans-75" transform="scale(0.015625)"/>
       <path d="M 1159 525 
L 1159 -1331 
L 581 -1331 
L 581 3500 
L 1159 3500 
L 1159 2969 
Q 1341 3281 1617 3432 
Q 1894 3584 2278 3584 
Q 2916 3584 3314 3078 
Q 3713 2572 3713 1747 
Q 3713 922 3314 415 
Q 2916 -91 2278 -91 
Q 1894 -91 1617 61 
Q 1341 213 1159 525 
z
M 3116 1747 
Q 3116 2381 2855 2742 
Q 2594 3103 2138 3103 
Q 1681 3103 1420 2742 
Q 1159 2381 1159 1747 
Q 1159 1113 1420 752 
Q 1681 391 2138 391 
Q 2594 391 2855 752 
Q 3116 1113 3116 1747 
z
" id="DejaVuSans-70" transform="scale(0.015625)"/>
      </defs>
      <use xlink:href="#DejaVuSans-4d"/>
      <use x="86.279297" xlink:href="#DejaVuSans-6f"/>
      <use x="147.460938" xlink:href="#DejaVuSans-6d"/>
      <use x="244.873047" xlink:href="#DejaVuSans-65"/>
      <use x="306.396484" xlink:href="#DejaVuSans-6e"/>
      <use x="369.775391" xlink:href="#DejaVuSans-74"/>
      <use x="408.984375" xlink:href="#DejaVuSans-75"/>
      <use x="472.363281" xlink:href="#DejaVuSans-6d"/>
      <use x="569.775391" xlink:href="#DejaVuSans-20"/>
      <use x="601.5625" xlink:href="#DejaVuSans-55"/>
      <use x="674.755859" xlink:href="#DejaVuSans-70"/>
     </g>
    </g>
    <g id="PathCollection_4">
     <g>
      <use style="fill:#ff0000;stroke:#ff0000;" x="76.6" xlink:href="#m6316957690" y="114.157937"/>
     </g>
    </g>
    <g id="text_24">
     <!-- Momentum Down -->
     <g transform="translate(94.6 116.782937)scale(0.1 -0.1)">
      <defs>
       <path d="M 269 3500 
L 844 3500 
L 1563 769 
L 2278 3500 
L 2956 3500 
L 3675 769 
L 4391 3500 
L 4966 3500 
L 4050 0 
L 3372 0 
L 2619 2869 
L 1863 0 
L 1184 0 
L 269 3500 
z
" id="DejaVuSans-77" transform="scale(0.015625)"/>
      </defs>
      <use xlink:href="#DejaVuSans-4d"/>
      <use x="86.279297" xlink:href="#DejaVuSans-6f"/>
      <use x="147.460938" xlink:href="#DejaVuSans-6d"/>
      <use x="244.873047" xlink:href="#DejaVuSans-65"/>
      <use x="306.396484" xlink:href="#DejaVuSans-6e"/>
      <use x="369.775391" xlink:href="#DejaVuSans-74"/>
      <use x="408.984375" xlink:href="#DejaVuSans-75"/>
      <use x="472.363281" xlink:href="#DejaVuSans-6d"/>
      <use x="569.775391" xlink:href="#DejaVuSans-20"/>
      <use x="601.5625" xlink:href="#DejaVuSans-44"/>
      <use x="678.564453" xlink:href="#DejaVuSans-6f"/>
      <use x="739.746094" xlink:href="#DejaVuSans-77"/>
      <use x="821.533203" xlink:href="#DejaVuSans-6e"/>
     </g>
    </g>
   </g>
  </g>
 </g>
 <defs>
  <clipPath id="pbb5c39ad11">
   <rect height="235.008" width="357.12" x="57.6" y="41.472"/>
  </clipPath>
 </defs>
</svg>
