<?xml version="1.0" encoding="utf-8" standalone="no"?>
<!DOCTYPE svg PUBLIC "-//W3C//DTD SVG 1.1//EN"
  "http://www.w3.org/Graphics/SVG/1.1/DTD/svg11.dtd">
<svg height="345.6pt" version="1.1" viewBox="0 0 460.8 345.6" width="460.8pt" xmlns="http://www.w3.org/2000/svg" xmlns:xlink="http://www.w3.org/1999/xlink">
 <metadata>
  <rdf:RDF xmlns:cc="http://creativecommons.org/ns#" xmlns:dc="http://purl.org/dc/elements/1.1/" xmlns:rdf="http://www.w3.org/1999/02/22-rdf-syntax-ns#">
   <cc:Work>
    <dc:type rdf:resource="http://purl.org/dc/dcmitype/StillImage"/>
    <dc:date>2021-05-30T20:41:20.570662</dc:date>
    <dc:format>image/svg+xml</dc:format>
    <dc:creator>
     <cc:Agent>
      <dc:title>Matplotlib v3.4.1, https://matplotlib.org/</dc:title>
     </cc:Agent>
    </dc:creator>
   </cc:Work>
  </rdf:RDF>
 </metadata>
 <defs>
  <style type="text/css">*{stroke-linecap:butt;stroke-linejoin:round;}</style>
 </defs>
 <g id="figure_1">
  <g id="patch_1">
   <path d="M 0 345.6 
L 460.8 345.6 
L 460.8 0 
L 0 0 
z
" style="fill:#ffffff;"/>
  </g>
  <g id="axes_1">
   <g id="patch_2">
    <path d="M 57.6 276.48 
L 414.72 276.48 
L 414.72 41.472 
L 57.6 41.472 
z
" style="fill:#ffffff;"/>
   </g>
   <g id="matplotlib.axis_1">
    <g id="xtick_1">
     <g id="line2d_1">
      <path clip-path="url(#p08c35358f9)" d="M 58.489683 276.48 
L 58.489683 41.472 
" style="fill:none;stroke:#b0b0b0;stroke-linecap:square;stroke-width:0.8;"/>
     </g>
     <g id="line2d_2">
      <defs>
       <path d="M 0 0 
L 0 3.5 
" id="m75dda23f24" style="stroke:#000000;stroke-width:0.8;"/>
      </defs>
      <g>
       <use style="stroke:#000000;stroke-width:0.8;" x="58.489683" xlink:href="#m75dda23f24" y="276.48"/>
      </g>
     </g>
     <g id="text_1">
      <!-- 2021-01-15 -->
      <g transform="translate(7.120232 319.118252)rotate(-30)scale(0.1 -0.1)">
       <defs>
        <path d="M 1228 531 
L 3431 531 
L 3431 0 
L 469 0 
L 469 531 
Q 828 903 1448 1529 
Q 2069 2156 2228 2338 
Q 2531 2678 2651 2914 
Q 2772 3150 2772 3378 
Q 2772 3750 2511 3984 
Q 2250 4219 1831 4219 
Q 1534 4219 1204 4116 
Q 875 4013 500 3803 
L 500 4441 
Q 881 4594 1212 4672 
Q 1544 4750 1819 4750 
Q 2544 4750 2975 4387 
Q 3406 4025 3406 3419 
Q 3406 3131 3298 2873 
Q 3191 2616 2906 2266 
Q 2828 2175 2409 1742 
Q 1991 1309 1228 531 
z
" id="DejaVuSans-32" transform="scale(0.015625)"/>
        <path d="M 2034 4250 
Q 1547 4250 1301 3770 
Q 1056 3291 1056 2328 
Q 1056 1369 1301 889 
Q 1547 409 2034 409 
Q 2525 409 2770 889 
Q 3016 1369 3016 2328 
Q 3016 3291 2770 3770 
Q 2525 4250 2034 4250 
z
M 2034 4750 
Q 2819 4750 3233 4129 
Q 3647 3509 3647 2328 
Q 3647 1150 3233 529 
Q 2819 -91 2034 -91 
Q 1250 -91 836 529 
Q 422 1150 422 2328 
Q 422 3509 836 4129 
Q 1250 4750 2034 4750 
z
" id="DejaVuSans-30" transform="scale(0.015625)"/>
        <path d="M 794 531 
L 1825 531 
L 1825 4091 
L 703 3866 
L 703 4441 
L 1819 4666 
L 2450 4666 
L 2450 531 
L 3481 531 
L 3481 0 
L 794 0 
L 794 531 
z
" id="DejaVuSans-31" transform="scale(0.015625)"/>
        <path d="M 313 2009 
L 1997 2009 
L 1997 1497 
L 313 1497 
L 313 2009 
z
" id="DejaVuSans-2d" transform="scale(0.015625)"/>
        <path d="M 691 4666 
L 3169 4666 
L 3169 4134 
L 1269 4134 
L 1269 2991 
Q 1406 3038 1543 3061 
Q 1681 3084 1819 3084 
Q 2600 3084 3056 2656 
Q 3513 2228 3513 1497 
Q 3513 744 3044 326 
Q 2575 -91 1722 -91 
Q 1428 -91 1123 -41 
Q 819 9 494 109 
L 494 744 
Q 775 591 1075 516 
Q 1375 441 1709 441 
Q 2250 441 2565 725 
Q 2881 1009 2881 1497 
Q 2881 1984 2565 2268 
Q 2250 2553 1709 2553 
Q 1456 2553 1204 2497 
Q 953 2441 691 2322 
L 691 4666 
z
" id="DejaVuSans-35" transform="scale(0.015625)"/>
       </defs>
       <use xlink:href="#DejaVuSans-32"/>
       <use x="63.623047" xlink:href="#DejaVuSans-30"/>
       <use x="127.246094" xlink:href="#DejaVuSans-32"/>
       <use x="190.869141" xlink:href="#DejaVuSans-31"/>
       <use x="254.492188" xlink:href="#DejaVuSans-2d"/>
       <use x="290.576172" xlink:href="#DejaVuSans-30"/>
       <use x="354.199219" xlink:href="#DejaVuSans-31"/>
       <use x="417.822266" xlink:href="#DejaVuSans-2d"/>
       <use x="453.90625" xlink:href="#DejaVuSans-31"/>
       <use x="517.529297" xlink:href="#DejaVuSans-35"/>
      </g>
     </g>
    </g>
    <g id="xtick_2">
     <g id="line2d_3">
      <path clip-path="url(#p08c35358f9)" d="M 101.961641 276.48 
L 101.961641 41.472 
" style="fill:none;stroke:#b0b0b0;stroke-linecap:square;stroke-width:0.8;"/>
     </g>
     <g id="line2d_4">
      <g>
       <use style="stroke:#000000;stroke-width:0.8;" x="101.961641" xlink:href="#m75dda23f24" y="276.48"/>
      </g>
     </g>
     <g id="text_2">
      <!-- 2021-02-01 -->
      <g transform="translate(50.59219 319.118252)rotate(-30)scale(0.1 -0.1)">
       <use xlink:href="#DejaVuSans-32"/>
       <use x="63.623047" xlink:href="#DejaVuSans-30"/>
       <use x="127.246094" xlink:href="#DejaVuSans-32"/>
       <use x="190.869141" xlink:href="#DejaVuSans-31"/>
       <use x="254.492188" xlink:href="#DejaVuSans-2d"/>
       <use x="290.576172" xlink:href="#DejaVuSans-30"/>
       <use x="354.199219" xlink:href="#DejaVuSans-32"/>
       <use x="417.822266" xlink:href="#DejaVuSans-2d"/>
       <use x="453.90625" xlink:href="#DejaVuSans-30"/>
       <use x="517.529297" xlink:href="#DejaVuSans-31"/>
      </g>
     </g>
    </g>
    <g id="xtick_3">
     <g id="line2d_5">
      <path clip-path="url(#p08c35358f9)" d="M 137.762077 276.48 
L 137.762077 41.472 
" style="fill:none;stroke:#b0b0b0;stroke-linecap:square;stroke-width:0.8;"/>
     </g>
     <g id="line2d_6">
      <g>
       <use style="stroke:#000000;stroke-width:0.8;" x="137.762077" xlink:href="#m75dda23f24" y="276.48"/>
      </g>
     </g>
     <g id="text_3">
      <!-- 2021-02-15 -->
      <g transform="translate(86.392625 319.118252)rotate(-30)scale(0.1 -0.1)">
       <use xlink:href="#DejaVuSans-32"/>
       <use x="63.623047" xlink:href="#DejaVuSans-30"/>
       <use x="127.246094" xlink:href="#DejaVuSans-32"/>
       <use x="190.869141" xlink:href="#DejaVuSans-31"/>
       <use x="254.492188" xlink:href="#DejaVuSans-2d"/>
       <use x="290.576172" xlink:href="#DejaVuSans-30"/>
       <use x="354.199219" xlink:href="#DejaVuSans-32"/>
       <use x="417.822266" xlink:href="#DejaVuSans-2d"/>
       <use x="453.90625" xlink:href="#DejaVuSans-31"/>
       <use x="517.529297" xlink:href="#DejaVuSans-35"/>
      </g>
     </g>
    </g>
    <g id="xtick_4">
     <g id="line2d_7">
      <path clip-path="url(#p08c35358f9)" d="M 173.562512 276.48 
L 173.562512 41.472 
" style="fill:none;stroke:#b0b0b0;stroke-linecap:square;stroke-width:0.8;"/>
     </g>
     <g id="line2d_8">
      <g>
       <use style="stroke:#000000;stroke-width:0.8;" x="173.562512" xlink:href="#m75dda23f24" y="276.48"/>
      </g>
     </g>
     <g id="text_4">
      <!-- 2021-03-01 -->
      <g transform="translate(122.193061 319.118252)rotate(-30)scale(0.1 -0.1)">
       <defs>
        <path d="M 2597 2516 
Q 3050 2419 3304 2112 
Q 3559 1806 3559 1356 
Q 3559 666 3084 287 
Q 2609 -91 1734 -91 
Q 1441 -91 1130 -33 
Q 819 25 488 141 
L 488 750 
Q 750 597 1062 519 
Q 1375 441 1716 441 
Q 2309 441 2620 675 
Q 2931 909 2931 1356 
Q 2931 1769 2642 2001 
Q 2353 2234 1838 2234 
L 1294 2234 
L 1294 2753 
L 1863 2753 
Q 2328 2753 2575 2939 
Q 2822 3125 2822 3475 
Q 2822 3834 2567 4026 
Q 2313 4219 1838 4219 
Q 1578 4219 1281 4162 
Q 984 4106 628 3988 
L 628 4550 
Q 988 4650 1302 4700 
Q 1616 4750 1894 4750 
Q 2613 4750 3031 4423 
Q 3450 4097 3450 3541 
Q 3450 3153 3228 2886 
Q 3006 2619 2597 2516 
z
" id="DejaVuSans-33" transform="scale(0.015625)"/>
       </defs>
       <use xlink:href="#DejaVuSans-32"/>
       <use x="63.623047" xlink:href="#DejaVuSans-30"/>
       <use x="127.246094" xlink:href="#DejaVuSans-32"/>
       <use x="190.869141" xlink:href="#DejaVuSans-31"/>
       <use x="254.492188" xlink:href="#DejaVuSans-2d"/>
       <use x="290.576172" xlink:href="#DejaVuSans-30"/>
       <use x="354.199219" xlink:href="#DejaVuSans-33"/>
       <use x="417.822266" xlink:href="#DejaVuSans-2d"/>
       <use x="453.90625" xlink:href="#DejaVuSans-30"/>
       <use x="517.529297" xlink:href="#DejaVuSans-31"/>
      </g>
     </g>
    </g>
    <g id="xtick_5">
     <g id="line2d_9">
      <path clip-path="url(#p08c35358f9)" d="M 209.256399 276.48 
L 209.256399 41.472 
" style="fill:none;stroke:#b0b0b0;stroke-linecap:square;stroke-width:0.8;"/>
     </g>
     <g id="line2d_10">
      <g>
       <use style="stroke:#000000;stroke-width:0.8;" x="209.256399" xlink:href="#m75dda23f24" y="276.48"/>
      </g>
     </g>
     <g id="text_5">
      <!-- 2021-03-15 -->
      <g transform="translate(157.886947 319.118252)rotate(-30)scale(0.1 -0.1)">
       <use xlink:href="#DejaVuSans-32"/>
       <use x="63.623047" xlink:href="#DejaVuSans-30"/>
       <use x="127.246094" xlink:href="#DejaVuSans-32"/>
       <use x="190.869141" xlink:href="#DejaVuSans-31"/>
       <use x="254.492188" xlink:href="#DejaVuSans-2d"/>
       <use x="290.576172" xlink:href="#DejaVuSans-30"/>
       <use x="354.199219" xlink:href="#DejaVuSans-33"/>
       <use x="417.822266" xlink:href="#DejaVuSans-2d"/>
       <use x="453.90625" xlink:href="#DejaVuSans-31"/>
       <use x="517.529297" xlink:href="#DejaVuSans-35"/>
      </g>
     </g>
    </g>
    <g id="xtick_6">
     <g id="line2d_11">
      <path clip-path="url(#p08c35358f9)" d="M 252.728356 276.48 
L 252.728356 41.472 
" style="fill:none;stroke:#b0b0b0;stroke-linecap:square;stroke-width:0.8;"/>
     </g>
     <g id="line2d_12">
      <g>
       <use style="stroke:#000000;stroke-width:0.8;" x="252.728356" xlink:href="#m75dda23f24" y="276.48"/>
      </g>
     </g>
     <g id="text_6">
      <!-- 2021-04-01 -->
      <g transform="translate(201.358905 319.118252)rotate(-30)scale(0.1 -0.1)">
       <defs>
        <path d="M 2419 4116 
L 825 1625 
L 2419 1625 
L 2419 4116 
z
M 2253 4666 
L 3047 4666 
L 3047 1625 
L 3713 1625 
L 3713 1100 
L 3047 1100 
L 3047 0 
L 2419 0 
L 2419 1100 
L 313 1100 
L 313 1709 
L 2253 4666 
z
" id="DejaVuSans-34" transform="scale(0.015625)"/>
       </defs>
       <use xlink:href="#DejaVuSans-32"/>
       <use x="63.623047" xlink:href="#DejaVuSans-30"/>
       <use x="127.246094" xlink:href="#DejaVuSans-32"/>
       <use x="190.869141" xlink:href="#DejaVuSans-31"/>
       <use x="254.492188" xlink:href="#DejaVuSans-2d"/>
       <use x="290.576172" xlink:href="#DejaVuSans-30"/>
       <use x="354.199219" xlink:href="#DejaVuSans-34"/>
       <use x="417.822266" xlink:href="#DejaVuSans-2d"/>
       <use x="453.90625" xlink:href="#DejaVuSans-30"/>
       <use x="517.529297" xlink:href="#DejaVuSans-31"/>
      </g>
     </g>
    </g>
    <g id="xtick_7">
     <g id="line2d_13">
      <path clip-path="url(#p08c35358f9)" d="M 288.528792 276.48 
L 288.528792 41.472 
" style="fill:none;stroke:#b0b0b0;stroke-linecap:square;stroke-width:0.8;"/>
     </g>
     <g id="line2d_14">
      <g>
       <use style="stroke:#000000;stroke-width:0.8;" x="288.528792" xlink:href="#m75dda23f24" y="276.48"/>
      </g>
     </g>
     <g id="text_7">
      <!-- 2021-04-15 -->
      <g transform="translate(237.159341 319.118252)rotate(-30)scale(0.1 -0.1)">
       <use xlink:href="#DejaVuSans-32"/>
       <use x="63.623047" xlink:href="#DejaVuSans-30"/>
       <use x="127.246094" xlink:href="#DejaVuSans-32"/>
       <use x="190.869141" xlink:href="#DejaVuSans-31"/>
       <use x="254.492188" xlink:href="#DejaVuSans-2d"/>
       <use x="290.576172" xlink:href="#DejaVuSans-30"/>
       <use x="354.199219" xlink:href="#DejaVuSans-34"/>
       <use x="417.822266" xlink:href="#DejaVuSans-2d"/>
       <use x="453.90625" xlink:href="#DejaVuSans-31"/>
       <use x="517.529297" xlink:href="#DejaVuSans-35"/>
      </g>
     </g>
    </g>
    <g id="xtick_8">
     <g id="line2d_15">
      <path clip-path="url(#p08c35358f9)" d="M 329.443575 276.48 
L 329.443575 41.472 
" style="fill:none;stroke:#b0b0b0;stroke-linecap:square;stroke-width:0.8;"/>
     </g>
     <g id="line2d_16">
      <g>
       <use style="stroke:#000000;stroke-width:0.8;" x="329.443575" xlink:href="#m75dda23f24" y="276.48"/>
      </g>
     </g>
     <g id="text_8">
      <!-- 2021-05-01 -->
      <g transform="translate(278.074124 319.118252)rotate(-30)scale(0.1 -0.1)">
       <use xlink:href="#DejaVuSans-32"/>
       <use x="63.623047" xlink:href="#DejaVuSans-30"/>
       <use x="127.246094" xlink:href="#DejaVuSans-32"/>
       <use x="190.869141" xlink:href="#DejaVuSans-31"/>
       <use x="254.492188" xlink:href="#DejaVuSans-2d"/>
       <use x="290.576172" xlink:href="#DejaVuSans-30"/>
       <use x="354.199219" xlink:href="#DejaVuSans-35"/>
       <use x="417.822266" xlink:href="#DejaVuSans-2d"/>
       <use x="453.90625" xlink:href="#DejaVuSans-30"/>
       <use x="517.529297" xlink:href="#DejaVuSans-31"/>
      </g>
     </g>
    </g>
    <g id="xtick_9">
     <g id="line2d_17">
      <path clip-path="url(#p08c35358f9)" d="M 365.244011 276.48 
L 365.244011 41.472 
" style="fill:none;stroke:#b0b0b0;stroke-linecap:square;stroke-width:0.8;"/>
     </g>
     <g id="line2d_18">
      <g>
       <use style="stroke:#000000;stroke-width:0.8;" x="365.244011" xlink:href="#m75dda23f24" y="276.48"/>
      </g>
     </g>
     <g id="text_9">
      <!-- 2021-05-15 -->
      <g transform="translate(313.87456 319.118252)rotate(-30)scale(0.1 -0.1)">
       <use xlink:href="#DejaVuSans-32"/>
       <use x="63.623047" xlink:href="#DejaVuSans-30"/>
       <use x="127.246094" xlink:href="#DejaVuSans-32"/>
       <use x="190.869141" xlink:href="#DejaVuSans-31"/>
       <use x="254.492188" xlink:href="#DejaVuSans-2d"/>
       <use x="290.576172" xlink:href="#DejaVuSans-30"/>
       <use x="354.199219" xlink:href="#DejaVuSans-35"/>
       <use x="417.822266" xlink:href="#DejaVuSans-2d"/>
       <use x="453.90625" xlink:href="#DejaVuSans-31"/>
       <use x="517.529297" xlink:href="#DejaVuSans-35"/>
      </g>
     </g>
    </g>
    <g id="xtick_10">
     <g id="line2d_19">
      <path clip-path="url(#p08c35358f9)" d="M 408.715969 276.48 
L 408.715969 41.472 
" style="fill:none;stroke:#b0b0b0;stroke-linecap:square;stroke-width:0.8;"/>
     </g>
     <g id="line2d_20">
      <g>
       <use style="stroke:#000000;stroke-width:0.8;" x="408.715969" xlink:href="#m75dda23f24" y="276.48"/>
      </g>
     </g>
     <g id="text_10">
      <!-- 2021-06-01 -->
      <g transform="translate(357.346517 319.118252)rotate(-30)scale(0.1 -0.1)">
       <defs>
        <path d="M 2113 2584 
Q 1688 2584 1439 2293 
Q 1191 2003 1191 1497 
Q 1191 994 1439 701 
Q 1688 409 2113 409 
Q 2538 409 2786 701 
Q 3034 994 3034 1497 
Q 3034 2003 2786 2293 
Q 2538 2584 2113 2584 
z
M 3366 4563 
L 3366 3988 
Q 3128 4100 2886 4159 
Q 2644 4219 2406 4219 
Q 1781 4219 1451 3797 
Q 1122 3375 1075 2522 
Q 1259 2794 1537 2939 
Q 1816 3084 2150 3084 
Q 2853 3084 3261 2657 
Q 3669 2231 3669 1497 
Q 3669 778 3244 343 
Q 2819 -91 2113 -91 
Q 1303 -91 875 529 
Q 447 1150 447 2328 
Q 447 3434 972 4092 
Q 1497 4750 2381 4750 
Q 2619 4750 2861 4703 
Q 3103 4656 3366 4563 
z
" id="DejaVuSans-36" transform="scale(0.015625)"/>
       </defs>
       <use xlink:href="#DejaVuSans-32"/>
       <use x="63.623047" xlink:href="#DejaVuSans-30"/>
       <use x="127.246094" xlink:href="#DejaVuSans-32"/>
       <use x="190.869141" xlink:href="#DejaVuSans-31"/>
       <use x="254.492188" xlink:href="#DejaVuSans-2d"/>
       <use x="290.576172" xlink:href="#DejaVuSans-30"/>
       <use x="354.199219" xlink:href="#DejaVuSans-36"/>
       <use x="417.822266" xlink:href="#DejaVuSans-2d"/>
       <use x="453.90625" xlink:href="#DejaVuSans-30"/>
       <use x="517.529297" xlink:href="#DejaVuSans-31"/>
      </g>
     </g>
    </g>
    <g id="text_11">
     <!-- Date -->
     <g transform="translate(224.209219 332.517752)scale(0.1 -0.1)">
      <defs>
       <path d="M 1259 4147 
L 1259 519 
L 2022 519 
Q 2988 519 3436 956 
Q 3884 1394 3884 2338 
Q 3884 3275 3436 3711 
Q 2988 4147 2022 4147 
L 1259 4147 
z
M 628 4666 
L 1925 4666 
Q 3281 4666 3915 4102 
Q 4550 3538 4550 2338 
Q 4550 1131 3912 565 
Q 3275 0 1925 0 
L 628 0 
L 628 4666 
z
" id="DejaVuSans-44" transform="scale(0.015625)"/>
       <path d="M 2194 1759 
Q 1497 1759 1228 1600 
Q 959 1441 959 1056 
Q 959 750 1161 570 
Q 1363 391 1709 391 
Q 2188 391 2477 730 
Q 2766 1069 2766 1631 
L 2766 1759 
L 2194 1759 
z
M 3341 1997 
L 3341 0 
L 2766 0 
L 2766 531 
Q 2569 213 2275 61 
Q 1981 -91 1556 -91 
Q 1019 -91 701 211 
Q 384 513 384 1019 
Q 384 1609 779 1909 
Q 1175 2209 1959 2209 
L 2766 2209 
L 2766 2266 
Q 2766 2663 2505 2880 
Q 2244 3097 1772 3097 
Q 1472 3097 1187 3025 
Q 903 2953 641 2809 
L 641 3341 
Q 956 3463 1253 3523 
Q 1550 3584 1831 3584 
Q 2591 3584 2966 3190 
Q 3341 2797 3341 1997 
z
" id="DejaVuSans-61" transform="scale(0.015625)"/>
       <path d="M 1172 4494 
L 1172 3500 
L 2356 3500 
L 2356 3053 
L 1172 3053 
L 1172 1153 
Q 1172 725 1289 603 
Q 1406 481 1766 481 
L 2356 481 
L 2356 0 
L 1766 0 
Q 1100 0 847 248 
Q 594 497 594 1153 
L 594 3053 
L 172 3053 
L 172 3500 
L 594 3500 
L 594 4494 
L 1172 4494 
z
" id="DejaVuSans-74" transform="scale(0.015625)"/>
       <path d="M 3597 1894 
L 3597 1613 
L 953 1613 
Q 991 1019 1311 708 
Q 1631 397 2203 397 
Q 2534 397 2845 478 
Q 3156 559 3463 722 
L 3463 178 
Q 3153 47 2828 -22 
Q 2503 -91 2169 -91 
Q 1331 -91 842 396 
Q 353 884 353 1716 
Q 353 2575 817 3079 
Q 1281 3584 2069 3584 
Q 2775 3584 3186 3129 
Q 3597 2675 3597 1894 
z
M 3022 2063 
Q 3016 2534 2758 2815 
Q 2500 3097 2075 3097 
Q 1594 3097 1305 2825 
Q 1016 2553 972 2059 
L 3022 2063 
z
" id="DejaVuSans-65" transform="scale(0.015625)"/>
      </defs>
      <use xlink:href="#DejaVuSans-44"/>
      <use x="77.001953" xlink:href="#DejaVuSans-61"/>
      <use x="138.28125" xlink:href="#DejaVuSans-74"/>
      <use x="177.490234" xlink:href="#DejaVuSans-65"/>
     </g>
    </g>
   </g>
   <g id="matplotlib.axis_2">
    <g id="ytick_1">
     <g id="line2d_21">
      <path clip-path="url(#p08c35358f9)" d="M 57.6 247.56588 
L 414.72 247.56588 
" style="fill:none;stroke:#b0b0b0;stroke-linecap:square;stroke-width:0.8;"/>
     </g>
     <g id="line2d_22">
      <defs>
       <path d="M 0 0 
L -3.5 0 
" id="mcbeeff5012" style="stroke:#000000;stroke-width:0.8;"/>
      </defs>
      <g>
       <use style="stroke:#000000;stroke-width:0.8;" x="57.6" xlink:href="#mcbeeff5012" y="247.56588"/>
      </g>
     </g>
     <g id="text_12">
      <!-- −2.5 -->
      <g transform="translate(26.317187 251.365099)scale(0.1 -0.1)">
       <defs>
        <path d="M 678 2272 
L 4684 2272 
L 4684 1741 
L 678 1741 
L 678 2272 
z
" id="DejaVuSans-2212" transform="scale(0.015625)"/>
        <path d="M 684 794 
L 1344 794 
L 1344 0 
L 684 0 
L 684 794 
z
" id="DejaVuSans-2e" transform="scale(0.015625)"/>
       </defs>
       <use xlink:href="#DejaVuSans-2212"/>
       <use x="83.789062" xlink:href="#DejaVuSans-32"/>
       <use x="147.412109" xlink:href="#DejaVuSans-2e"/>
       <use x="179.199219" xlink:href="#DejaVuSans-35"/>
      </g>
     </g>
    </g>
    <g id="ytick_2">
     <g id="line2d_23">
      <path clip-path="url(#p08c35358f9)" d="M 57.6 215.515306 
L 414.72 215.515306 
" style="fill:none;stroke:#b0b0b0;stroke-linecap:square;stroke-width:0.8;"/>
     </g>
     <g id="line2d_24">
      <g>
       <use style="stroke:#000000;stroke-width:0.8;" x="57.6" xlink:href="#mcbeeff5012" y="215.515306"/>
      </g>
     </g>
     <g id="text_13">
      <!-- 0.0 -->
      <g transform="translate(34.696875 219.314524)scale(0.1 -0.1)">
       <use xlink:href="#DejaVuSans-30"/>
       <use x="63.623047" xlink:href="#DejaVuSans-2e"/>
       <use x="95.410156" xlink:href="#DejaVuSans-30"/>
      </g>
     </g>
    </g>
    <g id="ytick_3">
     <g id="line2d_25">
      <path clip-path="url(#p08c35358f9)" d="M 57.6 183.464731 
L 414.72 183.464731 
" style="fill:none;stroke:#b0b0b0;stroke-linecap:square;stroke-width:0.8;"/>
     </g>
     <g id="line2d_26">
      <g>
       <use style="stroke:#000000;stroke-width:0.8;" x="57.6" xlink:href="#mcbeeff5012" y="183.464731"/>
      </g>
     </g>
     <g id="text_14">
      <!-- 2.5 -->
      <g transform="translate(34.696875 187.263949)scale(0.1 -0.1)">
       <use xlink:href="#DejaVuSans-32"/>
       <use x="63.623047" xlink:href="#DejaVuSans-2e"/>
       <use x="95.410156" xlink:href="#DejaVuSans-35"/>
      </g>
     </g>
    </g>
    <g id="ytick_4">
     <g id="line2d_27">
      <path clip-path="url(#p08c35358f9)" d="M 57.6 151.414156 
L 414.72 151.414156 
" style="fill:none;stroke:#b0b0b0;stroke-linecap:square;stroke-width:0.8;"/>
     </g>
     <g id="line2d_28">
      <g>
       <use style="stroke:#000000;stroke-width:0.8;" x="57.6" xlink:href="#mcbeeff5012" y="151.414156"/>
      </g>
     </g>
     <g id="text_15">
      <!-- 5.0 -->
      <g transform="translate(34.696875 155.213375)scale(0.1 -0.1)">
       <use xlink:href="#DejaVuSans-35"/>
       <use x="63.623047" xlink:href="#DejaVuSans-2e"/>
       <use x="95.410156" xlink:href="#DejaVuSans-30"/>
      </g>
     </g>
    </g>
    <g id="ytick_5">
     <g id="line2d_29">
      <path clip-path="url(#p08c35358f9)" d="M 57.6 119.363581 
L 414.72 119.363581 
" style="fill:none;stroke:#b0b0b0;stroke-linecap:square;stroke-width:0.8;"/>
     </g>
     <g id="line2d_30">
      <g>
       <use style="stroke:#000000;stroke-width:0.8;" x="57.6" xlink:href="#mcbeeff5012" y="119.363581"/>
      </g>
     </g>
     <g id="text_16">
      <!-- 7.5 -->
      <g transform="translate(34.696875 123.1628)scale(0.1 -0.1)">
       <defs>
        <path d="M 525 4666 
L 3525 4666 
L 3525 4397 
L 1831 0 
L 1172 0 
L 2766 4134 
L 525 4134 
L 525 4666 
z
" id="DejaVuSans-37" transform="scale(0.015625)"/>
       </defs>
       <use xlink:href="#DejaVuSans-37"/>
       <use x="63.623047" xlink:href="#DejaVuSans-2e"/>
       <use x="95.410156" xlink:href="#DejaVuSans-35"/>
      </g>
     </g>
    </g>
    <g id="ytick_6">
     <g id="line2d_31">
      <path clip-path="url(#p08c35358f9)" d="M 57.6 87.313006 
L 414.72 87.313006 
" style="fill:none;stroke:#b0b0b0;stroke-linecap:square;stroke-width:0.8;"/>
     </g>
     <g id="line2d_32">
      <g>
       <use style="stroke:#000000;stroke-width:0.8;" x="57.6" xlink:href="#mcbeeff5012" y="87.313006"/>
      </g>
     </g>
     <g id="text_17">
      <!-- 10.0 -->
      <g transform="translate(28.334375 91.112225)scale(0.1 -0.1)">
       <use xlink:href="#DejaVuSans-31"/>
       <use x="63.623047" xlink:href="#DejaVuSans-30"/>
       <use x="127.246094" xlink:href="#DejaVuSans-2e"/>
       <use x="159.033203" xlink:href="#DejaVuSans-30"/>
      </g>
     </g>
    </g>
    <g id="ytick_7">
     <g id="line2d_33">
      <path clip-path="url(#p08c35358f9)" d="M 57.6 55.262431 
L 414.72 55.262431 
" style="fill:none;stroke:#b0b0b0;stroke-linecap:square;stroke-width:0.8;"/>
     </g>
     <g id="line2d_34">
      <g>
       <use style="stroke:#000000;stroke-width:0.8;" x="57.6" xlink:href="#mcbeeff5012" y="55.262431"/>
      </g>
     </g>
     <g id="text_18">
      <!-- 12.5 -->
      <g transform="translate(28.334375 59.06165)scale(0.1 -0.1)">
       <use xlink:href="#DejaVuSans-31"/>
       <use x="63.623047" xlink:href="#DejaVuSans-32"/>
       <use x="127.246094" xlink:href="#DejaVuSans-2e"/>
       <use x="159.033203" xlink:href="#DejaVuSans-35"/>
      </g>
     </g>
    </g>
    <g id="text_19">
     <!-- Price [USD] -->
     <g transform="translate(20.2375 187.347875)rotate(-90)scale(0.1 -0.1)">
      <defs>
       <path d="M 1259 4147 
L 1259 2394 
L 2053 2394 
Q 2494 2394 2734 2622 
Q 2975 2850 2975 3272 
Q 2975 3691 2734 3919 
Q 2494 4147 2053 4147 
L 1259 4147 
z
M 628 4666 
L 2053 4666 
Q 2838 4666 3239 4311 
Q 3641 3956 3641 3272 
Q 3641 2581 3239 2228 
Q 2838 1875 2053 1875 
L 1259 1875 
L 1259 0 
L 628 0 
L 628 4666 
z
" id="DejaVuSans-50" transform="scale(0.015625)"/>
       <path d="M 2631 2963 
Q 2534 3019 2420 3045 
Q 2306 3072 2169 3072 
Q 1681 3072 1420 2755 
Q 1159 2438 1159 1844 
L 1159 0 
L 581 0 
L 581 3500 
L 1159 3500 
L 1159 2956 
Q 1341 3275 1631 3429 
Q 1922 3584 2338 3584 
Q 2397 3584 2469 3576 
Q 2541 3569 2628 3553 
L 2631 2963 
z
" id="DejaVuSans-72" transform="scale(0.015625)"/>
       <path d="M 603 3500 
L 1178 3500 
L 1178 0 
L 603 0 
L 603 3500 
z
M 603 4863 
L 1178 4863 
L 1178 4134 
L 603 4134 
L 603 4863 
z
" id="DejaVuSans-69" transform="scale(0.015625)"/>
       <path d="M 3122 3366 
L 3122 2828 
Q 2878 2963 2633 3030 
Q 2388 3097 2138 3097 
Q 1578 3097 1268 2742 
Q 959 2388 959 1747 
Q 959 1106 1268 751 
Q 1578 397 2138 397 
Q 2388 397 2633 464 
Q 2878 531 3122 666 
L 3122 134 
Q 2881 22 2623 -34 
Q 2366 -91 2075 -91 
Q 1284 -91 818 406 
Q 353 903 353 1747 
Q 353 2603 823 3093 
Q 1294 3584 2113 3584 
Q 2378 3584 2631 3529 
Q 2884 3475 3122 3366 
z
" id="DejaVuSans-63" transform="scale(0.015625)"/>
       <path id="DejaVuSans-20" transform="scale(0.015625)"/>
       <path d="M 550 4863 
L 1875 4863 
L 1875 4416 
L 1125 4416 
L 1125 -397 
L 1875 -397 
L 1875 -844 
L 550 -844 
L 550 4863 
z
" id="DejaVuSans-5b" transform="scale(0.015625)"/>
       <path d="M 556 4666 
L 1191 4666 
L 1191 1831 
Q 1191 1081 1462 751 
Q 1734 422 2344 422 
Q 2950 422 3222 751 
Q 3494 1081 3494 1831 
L 3494 4666 
L 4128 4666 
L 4128 1753 
Q 4128 841 3676 375 
Q 3225 -91 2344 -91 
Q 1459 -91 1007 375 
Q 556 841 556 1753 
L 556 4666 
z
" id="DejaVuSans-55" transform="scale(0.015625)"/>
       <path d="M 3425 4513 
L 3425 3897 
Q 3066 4069 2747 4153 
Q 2428 4238 2131 4238 
Q 1616 4238 1336 4038 
Q 1056 3838 1056 3469 
Q 1056 3159 1242 3001 
Q 1428 2844 1947 2747 
L 2328 2669 
Q 3034 2534 3370 2195 
Q 3706 1856 3706 1288 
Q 3706 609 3251 259 
Q 2797 -91 1919 -91 
Q 1588 -91 1214 -16 
Q 841 59 441 206 
L 441 856 
Q 825 641 1194 531 
Q 1563 422 1919 422 
Q 2459 422 2753 634 
Q 3047 847 3047 1241 
Q 3047 1584 2836 1778 
Q 2625 1972 2144 2069 
L 1759 2144 
Q 1053 2284 737 2584 
Q 422 2884 422 3419 
Q 422 4038 858 4394 
Q 1294 4750 2059 4750 
Q 2388 4750 2728 4690 
Q 3069 4631 3425 4513 
z
" id="DejaVuSans-53" transform="scale(0.015625)"/>
       <path d="M 1947 4863 
L 1947 -844 
L 622 -844 
L 622 -397 
L 1369 -397 
L 1369 4416 
L 622 4416 
L 622 4863 
L 1947 4863 
z
" id="DejaVuSans-5d" transform="scale(0.015625)"/>
      </defs>
      <use xlink:href="#DejaVuSans-50"/>
      <use x="58.552734" xlink:href="#DejaVuSans-72"/>
      <use x="99.666016" xlink:href="#DejaVuSans-69"/>
      <use x="127.449219" xlink:href="#DejaVuSans-63"/>
      <use x="182.429688" xlink:href="#DejaVuSans-65"/>
      <use x="243.953125" xlink:href="#DejaVuSans-20"/>
      <use x="275.740234" xlink:href="#DejaVuSans-5b"/>
      <use x="314.753906" xlink:href="#DejaVuSans-55"/>
      <use x="387.947266" xlink:href="#DejaVuSans-53"/>
      <use x="451.423828" xlink:href="#DejaVuSans-44"/>
      <use x="528.425781" xlink:href="#DejaVuSans-5d"/>
     </g>
    </g>
   </g>
   <g id="line2d_35">
    <path clip-path="url(#p08c35358f9)" d="M 73.832727 215.533844 
L 76.389901 215.467565 
L 84.061423 215.436688 
L 86.618597 215.870517 
L 89.175771 215.658128 
L 91.732945 215.544328 
L 94.290119 215.939658 
L 101.961641 215.577598 
L 104.518815 215.525975 
L 107.075989 215.605826 
L 109.633163 215.392594 
L 112.190337 215.480073 
L 119.861859 215.45058 
L 122.419033 215.458304 
L 124.976207 215.456297 
L 127.533381 215.497149 
L 130.090555 215.527858 
L 140.319251 215.514607 
L 142.876425 215.75537 
L 145.433598 215.61992 
L 147.990772 215.61069 
L 155.662294 215.593341 
L 158.219468 215.717405 
L 160.776642 215.454 
L 163.333816 215.528537 
L 165.89099 215.616855 
L 173.562512 215.429264 
L 176.119686 215.300898 
L 178.67686 215.645385 
L 181.234034 216.076463 
L 183.791208 215.585742 
L 191.46273 215.374609 
L 194.019904 215.53949 
L 196.577078 215.476282 
L 199.134252 215.434414 
L 201.691426 215.648712 
L 209.256399 215.420214 
L 211.813573 215.332208 
L 214.370747 215.587812 
L 216.927921 215.482229 
L 219.485095 215.477815 
L 227.156617 215.467084 
L 229.713791 215.442671 
L 232.270965 215.587161 
L 234.828139 215.391855 
L 237.385313 215.486351 
L 245.056834 215.451271 
L 247.614008 215.622042 
L 250.171182 215.665418 
L 252.728356 215.476447 
L 262.957052 215.395358 
L 265.514226 215.531544 
L 268.0714 215.565561 
L 270.628574 215.421819 
L 273.185748 215.457115 
L 280.85727 215.519998 
L 283.414444 215.638611 
L 285.971618 215.496419 
L 288.528792 215.419533 
L 291.085966 215.469426 
L 298.757488 215.412609 
L 301.314662 215.582355 
L 303.871836 215.408805 
L 306.42901 215.5645 
L 308.986184 215.550593 
L 316.657706 215.52143 
L 319.21488 215.687981 
L 321.772054 215.545216 
L 324.329228 215.586001 
L 326.886402 215.586393 
L 334.557923 215.435588 
L 337.115097 215.600853 
L 339.672271 215.417927 
L 342.229445 215.407557 
L 344.786619 215.373792 
L 352.458141 215.4938 
L 355.015315 215.621052 
L 357.572489 215.428126 
L 360.129663 215.505101 
L 362.686837 215.368189 
L 370.358359 215.542667 
L 372.915533 215.532623 
L 375.472707 215.669932 
L 378.029881 215.494461 
L 380.587055 215.468209 
L 388.258577 215.502574 
L 390.815751 215.464794 
L 393.372925 215.468249 
L 395.930099 215.544157 
L 398.487273 215.56844 
" style="fill:none;stroke:#1f77b4;stroke-linecap:square;stroke-width:1.5;"/>
   </g>
   <g id="line2d_36">
    <path clip-path="url(#p08c35358f9)" d="M 73.832727 215.496753 
L 76.389901 215.562957 
L 84.061423 215.593683 
L 86.618597 215.15508 
L 89.175771 215.371682 
L 91.732945 215.48625 
L 94.290119 215.083771 
L 101.961641 215.452861 
L 104.518815 215.504631 
L 107.075989 215.424464 
L 109.633163 215.637433 
L 112.190337 215.550489 
L 119.861859 215.579868 
L 122.419033 215.572181 
L 124.976207 215.574178 
L 127.533381 215.53345 
L 130.090555 215.502747 
L 140.319251 215.516004 
L 142.876425 215.272965 
L 145.433598 215.410262 
L 147.990772 215.419565 
L 155.662294 215.437031 
L 158.219468 215.311596 
L 160.776642 215.576465 
L 163.333816 215.502067 
L 165.89099 215.413352 
L 173.562512 215.60106 
L 176.119686 215.72794 
L 178.67686 215.384562 
L 181.234034 214.941496 
L 183.791208 215.444675 
L 191.46273 215.655236 
L 194.019904 215.491098 
L 196.577078 215.55427 
L 199.134252 215.595942 
L 201.691426 215.3812 
L 209.256399 215.610047 
L 211.813573 215.697108 
L 214.370747 215.442593 
L 216.927921 215.54834 
L 219.485095 215.552741 
L 227.156617 215.563437 
L 229.713791 215.587735 
L 232.270965 215.443248 
L 234.828139 215.638165 
L 237.385313 215.544227 
L 245.056834 215.579181 
L 247.614008 215.408122 
L 250.171182 215.364307 
L 252.728356 215.554105 
L 262.957052 215.634695 
L 265.514226 215.499057 
L 268.0714 215.464952 
L 270.628574 215.608453 
L 273.185748 215.573364 
L 280.85727 215.510612 
L 283.414444 215.391403 
L 285.971618 215.534178 
L 288.528792 215.610722 
L 291.085966 215.561103 
L 298.757488 215.617593 
L 301.314662 215.44808 
L 303.871836 215.621366 
L 306.42901 215.466016 
L 308.986184 215.479969 
L 316.657706 215.50918 
L 319.21488 215.341457 
L 321.772054 215.48536 
L 324.329228 215.444415 
L 326.886402 215.444021 
L 334.557923 215.594776 
L 337.115097 215.429471 
L 339.672271 215.612316 
L 342.229445 215.622603 
L 344.786619 215.656044 
L 352.458141 215.536793 
L 355.015315 215.40912 
L 357.572489 215.60219 
L 360.129663 215.525506 
L 362.686837 215.661584 
L 370.358359 215.487915 
L 372.915533 215.497976 
L 375.472707 215.359739 
L 378.029881 215.536133 
L 380.587055 215.562316 
L 388.258577 215.528031 
L 390.815751 215.565718 
L 393.372925 215.562275 
L 395.930099 215.486421 
L 398.487273 215.462061 
" style="fill:none;stroke:#ff7f0e;stroke-linecap:square;stroke-width:1.5;"/>
   </g>
   <g id="line2d_37">
    <path clip-path="url(#p08c35358f9)" d="M 73.832727 253.194894 
L 76.389901 257.960046 
L 84.061423 265.797818 
L 86.618597 229.775242 
L 89.175771 215.412876 
L 91.732945 212.507305 
L 94.290119 169.353876 
L 101.961641 163.109439 
L 104.518815 162.042006 
L 107.075989 152.957853 
L 109.633163 165.170627 
L 112.190337 168.689014 
L 119.861859 175.145308 
L 122.419033 180.832824 
L 124.976207 186.720106 
L 127.533381 188.534521 
L 130.090555 187.278661 
L 140.319251 187.348464 
L 142.876425 163.114419 
L 145.433598 152.61007 
L 147.990772 143.035974 
L 155.662294 135.208572 
L 158.219468 114.837637 
L 160.776642 120.953573 
L 163.333816 119.6297 
L 165.89099 109.434339 
L 173.562512 118.009776 
L 176.119686 139.27319 
L 178.67686 126.198828 
L 181.234034 68.817912 
L 183.791208 61.75483 
L 191.46273 75.747874 
L 194.019904 73.327104 
L 196.577078 77.22355 
L 199.134252 85.287246 
L 201.691426 71.876722 
L 209.256399 81.350826 
L 211.813573 99.531048 
L 214.370747 92.259798 
L 216.927921 95.563209 
L 219.485095 99.306781 
L 227.156617 104.1199 
L 229.713791 111.362895 
L 232.270965 104.15714 
L 234.828139 116.44313 
L 237.385313 119.335321 
L 245.056834 125.722872 
L 247.614008 115.004554 
L 250.171182 99.90474 
L 252.728356 103.784687 
L 262.957052 115.723675 
L 265.514226 114.098804 
L 268.0714 109.063416 
L 270.628574 118.37812 
L 273.185748 124.183961 
L 280.85727 123.714592 
L 283.414444 111.324382 
L 285.971618 113.211642 
L 288.528792 122.753316 
L 291.085966 127.333086 
L 298.757488 137.561815 
L 301.314662 130.839277 
L 303.871836 141.445375 
L 306.42901 136.516463 
L 308.986184 132.98282 
L 316.657706 132.370225 
L 319.21488 114.985352 
L 321.772054 111.990791 
L 324.329228 104.901723 
L 326.886402 97.773238 
L 334.557923 105.720266 
L 337.115097 97.136841 
L 339.672271 106.837848 
L 342.229445 117.567623 
L 344.786619 131.64143 
L 352.458141 133.790184 
L 355.015315 123.17167 
L 357.572489 131.860112 
L 360.129663 132.880135 
L 362.686837 147.507984 
L 370.358359 144.768926 
L 372.915533 143.035974 
L 375.472707 127.479369 
L 378.029881 129.562089 
L 380.587055 134.263155 
L 388.258577 135.53567 
L 390.815751 140.576943 
L 393.372925 145.273929 
L 395.930099 142.385513 
L 398.487273 137.061023 
" style="fill:none;stroke:#2ca02c;stroke-linecap:square;stroke-width:1.5;"/>
   </g>
   <g id="line2d_38">
    <path clip-path="url(#p08c35358f9)" d="M 73.832727 252.646564 
L 76.389901 257.265114 
L 84.061423 264.824514 
L 86.618597 229.696229 
L 89.175771 215.412872 
L 91.732945 212.503773 
L 94.290119 168.512751 
L 101.961641 162.023584 
L 104.518815 160.91115 
L 107.075989 151.406448 
L 109.633163 164.169049 
L 112.190337 167.823334 
L 119.861859 174.502972 
L 122.419033 180.359433 
L 124.976207 186.394291 
L 127.533381 188.248607 
L 130.090555 186.965409 
L 140.319251 187.036763 
L 142.876425 162.028771 
L 145.433598 151.041225 
L 147.990772 140.947998 
L 155.662294 132.639989 
L 158.219468 110.778968 
L 160.776642 117.378798 
L 163.333816 115.952849 
L 165.89099 104.921908 
L 173.562512 114.206017 
L 176.119686 136.960508 
L 178.67686 123.014032 
L 181.234034 60.095379 
L 183.791208 52.154182 
L 191.46273 67.844498 
L 194.019904 65.14234 
L 196.577078 69.489204 
L 199.134252 78.443189 
L 201.691426 63.52092 
L 209.256399 74.079196 
L 211.813573 94.122655 
L 214.370747 86.140287 
L 216.927921 89.772379 
L 219.485095 93.877131 
L 227.156617 99.137038 
L 229.713791 107.015255 
L 232.270965 99.177659 
L 234.828139 112.514537 
L 237.385313 115.635572 
L 245.056834 122.50364 
L 247.614008 110.95951 
L 250.171182 94.531671 
L 252.728356 98.771347 
L 262.957052 111.737061 
L 265.514226 109.979545 
L 268.0714 104.518928 
L 270.628574 114.603412 
L 273.185748 120.852089 
L 280.85727 120.347969 
L 283.414444 106.973482 
L 285.971618 109.01902 
L 288.528792 119.314949 
L 291.085966 124.229592 
L 298.757488 135.143057 
L 301.314662 127.980307 
L 303.871836 139.263839 
L 306.42901 134.031716 
L 308.986184 130.268297 
L 316.657706 129.614811 
L 319.21488 110.938742 
L 321.772054 107.696124 
L 324.329228 99.989573 
L 326.886402 92.197081 
L 334.557923 100.881591 
L 337.115097 91.499295 
L 339.672271 102.098573 
L 342.229445 113.728842 
L 344.786619 128.836963 
L 352.458141 131.129074 
L 355.015315 119.764621 
L 357.572489 129.07041 
L 360.129663 130.158778 
L 362.686837 145.671874 
L 370.358359 142.780506 
L 372.915533 140.947998 
L 375.472707 124.386282 
L 378.029881 126.615235 
L 380.587055 131.633084 
L 388.258577 132.988187 
L 390.815751 138.343443 
L 393.372925 143.314056 
L 395.930099 140.259529 
L 398.487273 134.610766 
" style="fill:none;stroke:#d62728;stroke-linecap:square;stroke-width:1.5;"/>
   </g>
   <g id="patch_3">
    <path d="M 57.6 276.48 
L 57.6 41.472 
" style="fill:none;stroke:#000000;stroke-linecap:square;stroke-linejoin:miter;stroke-width:0.8;"/>
   </g>
   <g id="patch_4">
    <path d="M 414.72 276.48 
L 414.72 41.472 
" style="fill:none;stroke:#000000;stroke-linecap:square;stroke-linejoin:miter;stroke-width:0.8;"/>
   </g>
   <g id="patch_5">
    <path d="M 57.6 276.48 
L 414.72 276.48 
" style="fill:none;stroke:#000000;stroke-linecap:square;stroke-linejoin:miter;stroke-width:0.8;"/>
   </g>
   <g id="patch_6">
    <path d="M 57.6 41.472 
L 414.72 41.472 
" style="fill:none;stroke:#000000;stroke-linecap:square;stroke-linejoin:miter;stroke-width:0.8;"/>
   </g>
   <g id="text_20">
    <!-- Relative Returns of NVS over last 90 days -->
    <g transform="translate(111.39375 35.472)scale(0.12 -0.12)">
     <defs>
      <path d="M 2841 2188 
Q 3044 2119 3236 1894 
Q 3428 1669 3622 1275 
L 4263 0 
L 3584 0 
L 2988 1197 
Q 2756 1666 2539 1819 
Q 2322 1972 1947 1972 
L 1259 1972 
L 1259 0 
L 628 0 
L 628 4666 
L 2053 4666 
Q 2853 4666 3247 4331 
Q 3641 3997 3641 3322 
Q 3641 2881 3436 2590 
Q 3231 2300 2841 2188 
z
M 1259 4147 
L 1259 2491 
L 2053 2491 
Q 2509 2491 2742 2702 
Q 2975 2913 2975 3322 
Q 2975 3731 2742 3939 
Q 2509 4147 2053 4147 
L 1259 4147 
z
" id="DejaVuSans-52" transform="scale(0.015625)"/>
      <path d="M 603 4863 
L 1178 4863 
L 1178 0 
L 603 0 
L 603 4863 
z
" id="DejaVuSans-6c" transform="scale(0.015625)"/>
      <path d="M 191 3500 
L 800 3500 
L 1894 563 
L 2988 3500 
L 3597 3500 
L 2284 0 
L 1503 0 
L 191 3500 
z
" id="DejaVuSans-76" transform="scale(0.015625)"/>
      <path d="M 544 1381 
L 544 3500 
L 1119 3500 
L 1119 1403 
Q 1119 906 1312 657 
Q 1506 409 1894 409 
Q 2359 409 2629 706 
Q 2900 1003 2900 1516 
L 2900 3500 
L 3475 3500 
L 3475 0 
L 2900 0 
L 2900 538 
Q 2691 219 2414 64 
Q 2138 -91 1772 -91 
Q 1169 -91 856 284 
Q 544 659 544 1381 
z
M 1991 3584 
L 1991 3584 
z
" id="DejaVuSans-75" transform="scale(0.015625)"/>
      <path d="M 3513 2113 
L 3513 0 
L 2938 0 
L 2938 2094 
Q 2938 2591 2744 2837 
Q 2550 3084 2163 3084 
Q 1697 3084 1428 2787 
Q 1159 2491 1159 1978 
L 1159 0 
L 581 0 
L 581 3500 
L 1159 3500 
L 1159 2956 
Q 1366 3272 1645 3428 
Q 1925 3584 2291 3584 
Q 2894 3584 3203 3211 
Q 3513 2838 3513 2113 
z
" id="DejaVuSans-6e" transform="scale(0.015625)"/>
      <path d="M 2834 3397 
L 2834 2853 
Q 2591 2978 2328 3040 
Q 2066 3103 1784 3103 
Q 1356 3103 1142 2972 
Q 928 2841 928 2578 
Q 928 2378 1081 2264 
Q 1234 2150 1697 2047 
L 1894 2003 
Q 2506 1872 2764 1633 
Q 3022 1394 3022 966 
Q 3022 478 2636 193 
Q 2250 -91 1575 -91 
Q 1294 -91 989 -36 
Q 684 19 347 128 
L 347 722 
Q 666 556 975 473 
Q 1284 391 1588 391 
Q 1994 391 2212 530 
Q 2431 669 2431 922 
Q 2431 1156 2273 1281 
Q 2116 1406 1581 1522 
L 1381 1569 
Q 847 1681 609 1914 
Q 372 2147 372 2553 
Q 372 3047 722 3315 
Q 1072 3584 1716 3584 
Q 2034 3584 2315 3537 
Q 2597 3491 2834 3397 
z
" id="DejaVuSans-73" transform="scale(0.015625)"/>
      <path d="M 1959 3097 
Q 1497 3097 1228 2736 
Q 959 2375 959 1747 
Q 959 1119 1226 758 
Q 1494 397 1959 397 
Q 2419 397 2687 759 
Q 2956 1122 2956 1747 
Q 2956 2369 2687 2733 
Q 2419 3097 1959 3097 
z
M 1959 3584 
Q 2709 3584 3137 3096 
Q 3566 2609 3566 1747 
Q 3566 888 3137 398 
Q 2709 -91 1959 -91 
Q 1206 -91 779 398 
Q 353 888 353 1747 
Q 353 2609 779 3096 
Q 1206 3584 1959 3584 
z
" id="DejaVuSans-6f" transform="scale(0.015625)"/>
      <path d="M 2375 4863 
L 2375 4384 
L 1825 4384 
Q 1516 4384 1395 4259 
Q 1275 4134 1275 3809 
L 1275 3500 
L 2222 3500 
L 2222 3053 
L 1275 3053 
L 1275 0 
L 697 0 
L 697 3053 
L 147 3053 
L 147 3500 
L 697 3500 
L 697 3744 
Q 697 4328 969 4595 
Q 1241 4863 1831 4863 
L 2375 4863 
z
" id="DejaVuSans-66" transform="scale(0.015625)"/>
      <path d="M 628 4666 
L 1478 4666 
L 3547 763 
L 3547 4666 
L 4159 4666 
L 4159 0 
L 3309 0 
L 1241 3903 
L 1241 0 
L 628 0 
L 628 4666 
z
" id="DejaVuSans-4e" transform="scale(0.015625)"/>
      <path d="M 1831 0 
L 50 4666 
L 709 4666 
L 2188 738 
L 3669 4666 
L 4325 4666 
L 2547 0 
L 1831 0 
z
" id="DejaVuSans-56" transform="scale(0.015625)"/>
      <path d="M 703 97 
L 703 672 
Q 941 559 1184 500 
Q 1428 441 1663 441 
Q 2288 441 2617 861 
Q 2947 1281 2994 2138 
Q 2813 1869 2534 1725 
Q 2256 1581 1919 1581 
Q 1219 1581 811 2004 
Q 403 2428 403 3163 
Q 403 3881 828 4315 
Q 1253 4750 1959 4750 
Q 2769 4750 3195 4129 
Q 3622 3509 3622 2328 
Q 3622 1225 3098 567 
Q 2575 -91 1691 -91 
Q 1453 -91 1209 -44 
Q 966 3 703 97 
z
M 1959 2075 
Q 2384 2075 2632 2365 
Q 2881 2656 2881 3163 
Q 2881 3666 2632 3958 
Q 2384 4250 1959 4250 
Q 1534 4250 1286 3958 
Q 1038 3666 1038 3163 
Q 1038 2656 1286 2365 
Q 1534 2075 1959 2075 
z
" id="DejaVuSans-39" transform="scale(0.015625)"/>
      <path d="M 2906 2969 
L 2906 4863 
L 3481 4863 
L 3481 0 
L 2906 0 
L 2906 525 
Q 2725 213 2448 61 
Q 2172 -91 1784 -91 
Q 1150 -91 751 415 
Q 353 922 353 1747 
Q 353 2572 751 3078 
Q 1150 3584 1784 3584 
Q 2172 3584 2448 3432 
Q 2725 3281 2906 2969 
z
M 947 1747 
Q 947 1113 1208 752 
Q 1469 391 1925 391 
Q 2381 391 2643 752 
Q 2906 1113 2906 1747 
Q 2906 2381 2643 2742 
Q 2381 3103 1925 3103 
Q 1469 3103 1208 2742 
Q 947 2381 947 1747 
z
" id="DejaVuSans-64" transform="scale(0.015625)"/>
      <path d="M 2059 -325 
Q 1816 -950 1584 -1140 
Q 1353 -1331 966 -1331 
L 506 -1331 
L 506 -850 
L 844 -850 
Q 1081 -850 1212 -737 
Q 1344 -625 1503 -206 
L 1606 56 
L 191 3500 
L 800 3500 
L 1894 763 
L 2988 3500 
L 3597 3500 
L 2059 -325 
z
" id="DejaVuSans-79" transform="scale(0.015625)"/>
     </defs>
     <use xlink:href="#DejaVuSans-52"/>
     <use x="64.982422" xlink:href="#DejaVuSans-65"/>
     <use x="126.505859" xlink:href="#DejaVuSans-6c"/>
     <use x="154.289062" xlink:href="#DejaVuSans-61"/>
     <use x="215.568359" xlink:href="#DejaVuSans-74"/>
     <use x="254.777344" xlink:href="#DejaVuSans-69"/>
     <use x="282.560547" xlink:href="#DejaVuSans-76"/>
     <use x="341.740234" xlink:href="#DejaVuSans-65"/>
     <use x="403.263672" xlink:href="#DejaVuSans-20"/>
     <use x="435.050781" xlink:href="#DejaVuSans-52"/>
     <use x="500.033203" xlink:href="#DejaVuSans-65"/>
     <use x="561.556641" xlink:href="#DejaVuSans-74"/>
     <use x="600.765625" xlink:href="#DejaVuSans-75"/>
     <use x="664.144531" xlink:href="#DejaVuSans-72"/>
     <use x="703.507812" xlink:href="#DejaVuSans-6e"/>
     <use x="766.886719" xlink:href="#DejaVuSans-73"/>
     <use x="818.986328" xlink:href="#DejaVuSans-20"/>
     <use x="850.773438" xlink:href="#DejaVuSans-6f"/>
     <use x="911.955078" xlink:href="#DejaVuSans-66"/>
     <use x="947.160156" xlink:href="#DejaVuSans-20"/>
     <use x="978.947266" xlink:href="#DejaVuSans-4e"/>
     <use x="1053.751953" xlink:href="#DejaVuSans-56"/>
     <use x="1122.160156" xlink:href="#DejaVuSans-53"/>
     <use x="1185.636719" xlink:href="#DejaVuSans-20"/>
     <use x="1217.423828" xlink:href="#DejaVuSans-6f"/>
     <use x="1278.605469" xlink:href="#DejaVuSans-76"/>
     <use x="1337.785156" xlink:href="#DejaVuSans-65"/>
     <use x="1399.308594" xlink:href="#DejaVuSans-72"/>
     <use x="1440.421875" xlink:href="#DejaVuSans-20"/>
     <use x="1472.208984" xlink:href="#DejaVuSans-6c"/>
     <use x="1499.992188" xlink:href="#DejaVuSans-61"/>
     <use x="1561.271484" xlink:href="#DejaVuSans-73"/>
     <use x="1613.371094" xlink:href="#DejaVuSans-74"/>
     <use x="1652.580078" xlink:href="#DejaVuSans-20"/>
     <use x="1684.367188" xlink:href="#DejaVuSans-39"/>
     <use x="1747.990234" xlink:href="#DejaVuSans-30"/>
     <use x="1811.613281" xlink:href="#DejaVuSans-20"/>
     <use x="1843.400391" xlink:href="#DejaVuSans-64"/>
     <use x="1906.876953" xlink:href="#DejaVuSans-61"/>
     <use x="1968.15625" xlink:href="#DejaVuSans-79"/>
     <use x="2027.335938" xlink:href="#DejaVuSans-73"/>
    </g>
   </g>
   <g id="legend_1">
    <g id="patch_7">
     <path d="M 149.084219 189.83225 
L 323.235781 189.83225 
Q 325.235781 189.83225 325.235781 187.83225 
L 325.235781 130.11975 
Q 325.235781 128.11975 323.235781 128.11975 
L 149.084219 128.11975 
Q 147.084219 128.11975 147.084219 130.11975 
L 147.084219 187.83225 
Q 147.084219 189.83225 149.084219 189.83225 
z
" style="fill:#ffffff;opacity:0.8;stroke:#cccccc;stroke-linejoin:miter;"/>
    </g>
    <g id="line2d_39">
     <path d="M 151.084219 136.218187 
L 171.084219 136.218187 
" style="fill:none;stroke:#1f77b4;stroke-linecap:square;stroke-width:1.5;"/>
    </g>
    <g id="line2d_40"/>
    <g id="text_21">
     <!-- Relative Return -->
     <g transform="translate(179.084219 139.718187)scale(0.1 -0.1)">
      <use xlink:href="#DejaVuSans-52"/>
      <use x="64.982422" xlink:href="#DejaVuSans-65"/>
      <use x="126.505859" xlink:href="#DejaVuSans-6c"/>
      <use x="154.289062" xlink:href="#DejaVuSans-61"/>
      <use x="215.568359" xlink:href="#DejaVuSans-74"/>
      <use x="254.777344" xlink:href="#DejaVuSans-69"/>
      <use x="282.560547" xlink:href="#DejaVuSans-76"/>
      <use x="341.740234" xlink:href="#DejaVuSans-65"/>
      <use x="403.263672" xlink:href="#DejaVuSans-20"/>
      <use x="435.050781" xlink:href="#DejaVuSans-52"/>
      <use x="500.033203" xlink:href="#DejaVuSans-65"/>
      <use x="561.556641" xlink:href="#DejaVuSans-74"/>
      <use x="600.765625" xlink:href="#DejaVuSans-75"/>
      <use x="664.144531" xlink:href="#DejaVuSans-72"/>
      <use x="703.507812" xlink:href="#DejaVuSans-6e"/>
     </g>
    </g>
    <g id="line2d_41">
     <path d="M 151.084219 150.896312 
L 171.084219 150.896312 
" style="fill:none;stroke:#ff7f0e;stroke-linecap:square;stroke-width:1.5;"/>
    </g>
    <g id="line2d_42"/>
    <g id="text_22">
     <!-- Log-Returns -->
     <g transform="translate(179.084219 154.396312)scale(0.1 -0.1)">
      <defs>
       <path d="M 628 4666 
L 1259 4666 
L 1259 531 
L 3531 531 
L 3531 0 
L 628 0 
L 628 4666 
z
" id="DejaVuSans-4c" transform="scale(0.015625)"/>
       <path d="M 2906 1791 
Q 2906 2416 2648 2759 
Q 2391 3103 1925 3103 
Q 1463 3103 1205 2759 
Q 947 2416 947 1791 
Q 947 1169 1205 825 
Q 1463 481 1925 481 
Q 2391 481 2648 825 
Q 2906 1169 2906 1791 
z
M 3481 434 
Q 3481 -459 3084 -895 
Q 2688 -1331 1869 -1331 
Q 1566 -1331 1297 -1286 
Q 1028 -1241 775 -1147 
L 775 -588 
Q 1028 -725 1275 -790 
Q 1522 -856 1778 -856 
Q 2344 -856 2625 -561 
Q 2906 -266 2906 331 
L 2906 616 
Q 2728 306 2450 153 
Q 2172 0 1784 0 
Q 1141 0 747 490 
Q 353 981 353 1791 
Q 353 2603 747 3093 
Q 1141 3584 1784 3584 
Q 2172 3584 2450 3431 
Q 2728 3278 2906 2969 
L 2906 3500 
L 3481 3500 
L 3481 434 
z
" id="DejaVuSans-67" transform="scale(0.015625)"/>
      </defs>
      <use xlink:href="#DejaVuSans-4c"/>
      <use x="53.962891" xlink:href="#DejaVuSans-6f"/>
      <use x="115.144531" xlink:href="#DejaVuSans-67"/>
      <use x="178.621094" xlink:href="#DejaVuSans-2d"/>
      <use x="214.705078" xlink:href="#DejaVuSans-52"/>
      <use x="279.6875" xlink:href="#DejaVuSans-65"/>
      <use x="341.210938" xlink:href="#DejaVuSans-74"/>
      <use x="380.419922" xlink:href="#DejaVuSans-75"/>
      <use x="443.798828" xlink:href="#DejaVuSans-72"/>
      <use x="483.162109" xlink:href="#DejaVuSans-6e"/>
      <use x="546.541016" xlink:href="#DejaVuSans-73"/>
     </g>
    </g>
    <g id="line2d_43">
     <path d="M 151.084219 165.574437 
L 171.084219 165.574437 
" style="fill:none;stroke:#2ca02c;stroke-linecap:square;stroke-width:1.5;"/>
    </g>
    <g id="line2d_44"/>
    <g id="text_23">
     <!-- Cumulative Log-Returns -->
     <g transform="translate(179.084219 169.074437)scale(0.1 -0.1)">
      <defs>
       <path d="M 4122 4306 
L 4122 3641 
Q 3803 3938 3442 4084 
Q 3081 4231 2675 4231 
Q 1875 4231 1450 3742 
Q 1025 3253 1025 2328 
Q 1025 1406 1450 917 
Q 1875 428 2675 428 
Q 3081 428 3442 575 
Q 3803 722 4122 1019 
L 4122 359 
Q 3791 134 3420 21 
Q 3050 -91 2638 -91 
Q 1578 -91 968 557 
Q 359 1206 359 2328 
Q 359 3453 968 4101 
Q 1578 4750 2638 4750 
Q 3056 4750 3426 4639 
Q 3797 4528 4122 4306 
z
" id="DejaVuSans-43" transform="scale(0.015625)"/>
       <path d="M 3328 2828 
Q 3544 3216 3844 3400 
Q 4144 3584 4550 3584 
Q 5097 3584 5394 3201 
Q 5691 2819 5691 2113 
L 5691 0 
L 5113 0 
L 5113 2094 
Q 5113 2597 4934 2840 
Q 4756 3084 4391 3084 
Q 3944 3084 3684 2787 
Q 3425 2491 3425 1978 
L 3425 0 
L 2847 0 
L 2847 2094 
Q 2847 2600 2669 2842 
Q 2491 3084 2119 3084 
Q 1678 3084 1418 2786 
Q 1159 2488 1159 1978 
L 1159 0 
L 581 0 
L 581 3500 
L 1159 3500 
L 1159 2956 
Q 1356 3278 1631 3431 
Q 1906 3584 2284 3584 
Q 2666 3584 2933 3390 
Q 3200 3197 3328 2828 
z
" id="DejaVuSans-6d" transform="scale(0.015625)"/>
      </defs>
      <use xlink:href="#DejaVuSans-43"/>
      <use x="69.824219" xlink:href="#DejaVuSans-75"/>
      <use x="133.203125" xlink:href="#DejaVuSans-6d"/>
      <use x="230.615234" xlink:href="#DejaVuSans-75"/>
      <use x="293.994141" xlink:href="#DejaVuSans-6c"/>
      <use x="321.777344" xlink:href="#DejaVuSans-61"/>
      <use x="383.056641" xlink:href="#DejaVuSans-74"/>
      <use x="422.265625" xlink:href="#DejaVuSans-69"/>
      <use x="450.048828" xlink:href="#DejaVuSans-76"/>
      <use x="509.228516" xlink:href="#DejaVuSans-65"/>
      <use x="570.751953" xlink:href="#DejaVuSans-20"/>
      <use x="602.539062" xlink:href="#DejaVuSans-4c"/>
      <use x="656.501953" xlink:href="#DejaVuSans-6f"/>
      <use x="717.683594" xlink:href="#DejaVuSans-67"/>
      <use x="781.160156" xlink:href="#DejaVuSans-2d"/>
      <use x="817.244141" xlink:href="#DejaVuSans-52"/>
      <use x="882.226562" xlink:href="#DejaVuSans-65"/>
      <use x="943.75" xlink:href="#DejaVuSans-74"/>
      <use x="982.958984" xlink:href="#DejaVuSans-75"/>
      <use x="1046.337891" xlink:href="#DejaVuSans-72"/>
      <use x="1085.701172" xlink:href="#DejaVuSans-6e"/>
      <use x="1149.080078" xlink:href="#DejaVuSans-73"/>
     </g>
    </g>
    <g id="line2d_45">
     <path d="M 151.084219 180.252562 
L 171.084219 180.252562 
" style="fill:none;stroke:#d62728;stroke-linecap:square;stroke-width:1.5;"/>
    </g>
    <g id="line2d_46"/>
    <g id="text_24">
     <!-- Cumulative Relative Returns -->
     <g transform="translate(179.084219 183.752562)scale(0.1 -0.1)">
      <use xlink:href="#DejaVuSans-43"/>
      <use x="69.824219" xlink:href="#DejaVuSans-75"/>
      <use x="133.203125" xlink:href="#DejaVuSans-6d"/>
      <use x="230.615234" xlink:href="#DejaVuSans-75"/>
      <use x="293.994141" xlink:href="#DejaVuSans-6c"/>
      <use x="321.777344" xlink:href="#DejaVuSans-61"/>
      <use x="383.056641" xlink:href="#DejaVuSans-74"/>
      <use x="422.265625" xlink:href="#DejaVuSans-69"/>
      <use x="450.048828" xlink:href="#DejaVuSans-76"/>
      <use x="509.228516" xlink:href="#DejaVuSans-65"/>
      <use x="570.751953" xlink:href="#DejaVuSans-20"/>
      <use x="602.539062" xlink:href="#DejaVuSans-52"/>
      <use x="667.521484" xlink:href="#DejaVuSans-65"/>
      <use x="729.044922" xlink:href="#DejaVuSans-6c"/>
      <use x="756.828125" xlink:href="#DejaVuSans-61"/>
      <use x="818.107422" xlink:href="#DejaVuSans-74"/>
      <use x="857.316406" xlink:href="#DejaVuSans-69"/>
      <use x="885.099609" xlink:href="#DejaVuSans-76"/>
      <use x="944.279297" xlink:href="#DejaVuSans-65"/>
      <use x="1005.802734" xlink:href="#DejaVuSans-20"/>
      <use x="1037.589844" xlink:href="#DejaVuSans-52"/>
      <use x="1102.572266" xlink:href="#DejaVuSans-65"/>
      <use x="1164.095703" xlink:href="#DejaVuSans-74"/>
      <use x="1203.304688" xlink:href="#DejaVuSans-75"/>
      <use x="1266.683594" xlink:href="#DejaVuSans-72"/>
      <use x="1306.046875" xlink:href="#DejaVuSans-6e"/>
      <use x="1369.425781" xlink:href="#DejaVuSans-73"/>
     </g>
    </g>
   </g>
  </g>
 </g>
 <defs>
  <clipPath id="p08c35358f9">
   <rect height="235.008" width="357.12" x="57.6" y="41.472"/>
  </clipPath>
 </defs>
</svg>
